ISO-10303-21;
HEADER;
/* Generated by software containing ST-Developer
 * from STEP Tools, Inc. (www.steptools.com) 
 */
/* OPTION: using custom renumber hook */

FILE_DESCRIPTION(
/* description */ ('STEP AP242 Edition 2',
'CAx-IF Rec.Pracs.---Representation and Presentation of Product Manufa
cturing Information (PMI)---4.0---2014-10-13',
'CAx-IF Rec.Pracs.---3D Tessellated Geometry---0.4---2014-09-14','2;1',
'CAx-IF Rec.Pracs.---User Defined Attributes---1.5---2016-08-15'),
/* implementation_level */ '2;1');

FILE_NAME(
/* name */ 'Big Gear Inner Ring',
/* time_stamp */ '2026-06-29T21:37:29Z',
/* author */ (''),
/* organization */ (''),
/* preprocessor_version */ 'ST-DEVELOPER v20',
/* originating_system */ 'ONSHAPE BY PTC INC, 1.217',
/* authorisation */ '  ');

FILE_SCHEMA (('AP242_MANAGED_MODEL_BASED_3D_ENGINEERING_MIM_LF { 1 0 10303 442 3 1 4 }'));
ENDSEC;

DATA;
#10=SHAPE_REPRESENTATION_RELATIONSHIP('','',#147,#11);
#11=ADVANCED_BREP_SHAPE_REPRESENTATION('',(#145),#245);
#12=CYLINDRICAL_SURFACE('',#163,0.0041);
#13=CYLINDRICAL_SURFACE('',#164,0.0375);
#14=CYLINDRICAL_SURFACE('',#165,0.00155);
#15=CYLINDRICAL_SURFACE('',#166,0.00155);
#16=CYLINDRICAL_SURFACE('',#167,0.00155);
#17=CYLINDRICAL_SURFACE('',#168,0.00155);
#18=ORIENTED_EDGE('',*,*,#42,.F.);
#19=ORIENTED_EDGE('',*,*,#43,.F.);
#20=ORIENTED_EDGE('',*,*,#44,.F.);
#21=ORIENTED_EDGE('',*,*,#45,.F.);
#22=ORIENTED_EDGE('',*,*,#46,.T.);
#23=ORIENTED_EDGE('',*,*,#47,.F.);
#24=ORIENTED_EDGE('',*,*,#48,.T.);
#25=ORIENTED_EDGE('',*,*,#49,.T.);
#26=ORIENTED_EDGE('',*,*,#50,.T.);
#27=ORIENTED_EDGE('',*,*,#51,.T.);
#28=ORIENTED_EDGE('',*,*,#52,.F.);
#29=ORIENTED_EDGE('',*,*,#53,.T.);
#30=ORIENTED_EDGE('',*,*,#53,.F.);
#31=ORIENTED_EDGE('',*,*,#47,.T.);
#32=ORIENTED_EDGE('',*,*,#52,.T.);
#33=ORIENTED_EDGE('',*,*,#46,.F.);
#34=ORIENTED_EDGE('',*,*,#45,.T.);
#35=ORIENTED_EDGE('',*,*,#51,.F.);
#36=ORIENTED_EDGE('',*,*,#44,.T.);
#37=ORIENTED_EDGE('',*,*,#50,.F.);
#38=ORIENTED_EDGE('',*,*,#43,.T.);
#39=ORIENTED_EDGE('',*,*,#49,.F.);
#40=ORIENTED_EDGE('',*,*,#42,.T.);
#41=ORIENTED_EDGE('',*,*,#48,.F.);
#42=EDGE_CURVE('',#54,#54,#66,.T.);
#43=EDGE_CURVE('',#55,#55,#67,.T.);
#44=EDGE_CURVE('',#56,#56,#68,.T.);
#45=EDGE_CURVE('',#57,#57,#69,.T.);
#46=EDGE_CURVE('',#58,#58,#70,.T.);
#47=EDGE_CURVE('',#59,#59,#71,.T.);
#48=EDGE_CURVE('',#60,#60,#72,.T.);
#49=EDGE_CURVE('',#61,#61,#73,.T.);
#50=EDGE_CURVE('',#62,#62,#74,.T.);
#51=EDGE_CURVE('',#63,#63,#75,.T.);
#52=EDGE_CURVE('',#64,#64,#76,.T.);
#53=EDGE_CURVE('',#65,#65,#77,.T.);
#54=VERTEX_POINT('',#214);
#55=VERTEX_POINT('',#216);
#56=VERTEX_POINT('',#218);
#57=VERTEX_POINT('',#220);
#58=VERTEX_POINT('',#222);
#59=VERTEX_POINT('',#224);
#60=VERTEX_POINT('',#227);
#61=VERTEX_POINT('',#229);
#62=VERTEX_POINT('',#231);
#63=VERTEX_POINT('',#233);
#64=VERTEX_POINT('',#235);
#65=VERTEX_POINT('',#237);
#66=CIRCLE('',#150,0.00155);
#67=CIRCLE('',#151,0.00155);
#68=CIRCLE('',#152,0.00155);
#69=CIRCLE('',#153,0.00155);
#70=CIRCLE('',#154,0.0375);
#71=CIRCLE('',#155,0.0041);
#72=CIRCLE('',#157,0.00155);
#73=CIRCLE('',#158,0.00155);
#74=CIRCLE('',#159,0.00155);
#75=CIRCLE('',#160,0.00155);
#76=CIRCLE('',#161,0.0375);
#77=CIRCLE('',#162,0.0041);
#78=EDGE_LOOP('',(#18));
#79=EDGE_LOOP('',(#19));
#80=EDGE_LOOP('',(#20));
#81=EDGE_LOOP('',(#21));
#82=EDGE_LOOP('',(#22));
#83=EDGE_LOOP('',(#23));
#84=EDGE_LOOP('',(#24));
#85=EDGE_LOOP('',(#25));
#86=EDGE_LOOP('',(#26));
#87=EDGE_LOOP('',(#27));
#88=EDGE_LOOP('',(#28));
#89=EDGE_LOOP('',(#29));
#90=EDGE_LOOP('',(#30));
#91=EDGE_LOOP('',(#31));
#92=EDGE_LOOP('',(#32));
#93=EDGE_LOOP('',(#33));
#94=EDGE_LOOP('',(#34));
#95=EDGE_LOOP('',(#35));
#96=EDGE_LOOP('',(#36));
#97=EDGE_LOOP('',(#37));
#98=EDGE_LOOP('',(#38));
#99=EDGE_LOOP('',(#39));
#100=EDGE_LOOP('',(#40));
#101=EDGE_LOOP('',(#41));
#102=FACE_BOUND('',#78,.T.);
#103=FACE_BOUND('',#79,.T.);
#104=FACE_BOUND('',#80,.T.);
#105=FACE_BOUND('',#81,.T.);
#106=FACE_BOUND('',#82,.T.);
#107=FACE_BOUND('',#83,.T.);
#108=FACE_BOUND('',#84,.T.);
#109=FACE_BOUND('',#85,.T.);
#110=FACE_BOUND('',#86,.T.);
#111=FACE_BOUND('',#87,.T.);
#112=FACE_BOUND('',#88,.T.);
#113=FACE_BOUND('',#89,.T.);
#114=FACE_BOUND('',#90,.T.);
#115=FACE_BOUND('',#91,.T.);
#116=FACE_BOUND('',#92,.T.);
#117=FACE_BOUND('',#93,.T.);
#118=FACE_BOUND('',#94,.T.);
#119=FACE_BOUND('',#95,.T.);
#120=FACE_BOUND('',#96,.T.);
#121=FACE_BOUND('',#97,.T.);
#122=FACE_BOUND('',#98,.T.);
#123=FACE_BOUND('',#99,.T.);
#124=FACE_BOUND('',#100,.T.);
#125=FACE_BOUND('',#101,.T.);
#126=PLANE('',#149);
#127=PLANE('',#156);
#128=ADVANCED_FACE('',(#102,#103,#104,#105,#106,#107),#126,.T.);
#129=ADVANCED_FACE('',(#108,#109,#110,#111,#112,#113),#127,.F.);
#130=ADVANCED_FACE('',(#114,#115),#12,.F.);
#131=ADVANCED_FACE('',(#116,#117),#13,.T.);
#132=ADVANCED_FACE('',(#118,#119),#14,.F.);
#133=ADVANCED_FACE('',(#120,#121),#15,.F.);
#134=ADVANCED_FACE('',(#122,#123),#16,.F.);
#135=ADVANCED_FACE('',(#124,#125),#17,.F.);
#136=CLOSED_SHELL('',(#128,#129,#130,#131,#132,#133,#134,#135));
#137=STYLED_ITEM('',(#138),#145);
#138=PRESENTATION_STYLE_ASSIGNMENT((#139));
#139=SURFACE_STYLE_USAGE(.BOTH.,#140);
#140=SURFACE_SIDE_STYLE('',(#141));
#141=SURFACE_STYLE_FILL_AREA(#142);
#142=FILL_AREA_STYLE('',(#143));
#143=FILL_AREA_STYLE_COLOUR('',#144);
#144=COLOUR_RGB('',0.0980392156862745,0.0980392156862745,0.0980392156862745);
#145=MANIFOLD_SOLID_BREP('DrivenGear30T',#136);
#146=SHAPE_DEFINITION_REPRESENTATION(#250,#147);
#147=SHAPE_REPRESENTATION('DrivenGear30T',(#148),#245);
#148=AXIS2_PLACEMENT_3D('',#211,#169,#170);
#149=AXIS2_PLACEMENT_3D('',#212,#171,#172);
#150=AXIS2_PLACEMENT_3D('',#213,#173,#174);
#151=AXIS2_PLACEMENT_3D('',#215,#175,#176);
#152=AXIS2_PLACEMENT_3D('',#217,#177,#178);
#153=AXIS2_PLACEMENT_3D('',#219,#179,#180);
#154=AXIS2_PLACEMENT_3D('',#221,#181,#182);
#155=AXIS2_PLACEMENT_3D('',#223,#183,#184);
#156=AXIS2_PLACEMENT_3D('',#225,#185,#186);
#157=AXIS2_PLACEMENT_3D('',#226,#187,#188);
#158=AXIS2_PLACEMENT_3D('',#228,#189,#190);
#159=AXIS2_PLACEMENT_3D('',#230,#191,#192);
#160=AXIS2_PLACEMENT_3D('',#232,#193,#194);
#161=AXIS2_PLACEMENT_3D('',#234,#195,#196);
#162=AXIS2_PLACEMENT_3D('',#236,#197,#198);
#163=AXIS2_PLACEMENT_3D('',#238,#199,#200);
#164=AXIS2_PLACEMENT_3D('',#239,#201,#202);
#165=AXIS2_PLACEMENT_3D('',#240,#203,#204);
#166=AXIS2_PLACEMENT_3D('',#241,#205,#206);
#167=AXIS2_PLACEMENT_3D('',#242,#207,#208);
#168=AXIS2_PLACEMENT_3D('',#243,#209,#210);
#169=DIRECTION('',(0.,0.,1.));
#170=DIRECTION('',(1.,0.,0.));
#171=DIRECTION('',(0.,0.,1.));
#172=DIRECTION('',(1.,0.,0.));
#173=DIRECTION('',(0.,0.,1.));
#174=DIRECTION('',(1.,0.,0.));
#175=DIRECTION('',(0.,0.,1.));
#176=DIRECTION('',(1.,0.,0.));
#177=DIRECTION('',(0.,0.,1.));
#178=DIRECTION('',(1.,0.,0.));
#179=DIRECTION('',(0.,0.,1.));
#180=DIRECTION('',(1.,0.,0.));
#181=DIRECTION('',(0.,0.,1.));
#182=DIRECTION('',(1.,0.,0.));
#183=DIRECTION('',(0.,0.,1.));
#184=DIRECTION('',(1.,0.,0.));
#185=DIRECTION('',(0.,0.,1.));
#186=DIRECTION('',(1.,0.,0.));
#187=DIRECTION('',(0.,0.,1.));
#188=DIRECTION('',(1.,0.,0.));
#189=DIRECTION('',(0.,0.,1.));
#190=DIRECTION('',(1.,0.,0.));
#191=DIRECTION('',(0.,0.,1.));
#192=DIRECTION('',(1.,0.,0.));
#193=DIRECTION('',(0.,0.,1.));
#194=DIRECTION('',(1.,0.,0.));
#195=DIRECTION('',(0.,0.,1.));
#196=DIRECTION('',(1.,0.,0.));
#197=DIRECTION('',(0.,0.,1.));
#198=DIRECTION('',(1.,0.,0.));
#199=DIRECTION('',(0.,0.,1.));
#200=DIRECTION('',(1.,0.,0.));
#201=DIRECTION('',(0.,0.,1.));
#202=DIRECTION('',(1.,0.,0.));
#203=DIRECTION('',(0.,0.,1.));
#204=DIRECTION('',(1.,0.,0.));
#205=DIRECTION('',(0.,0.,1.));
#206=DIRECTION('',(1.,0.,0.));
#207=DIRECTION('',(0.,0.,1.));
#208=DIRECTION('',(1.,0.,0.));
#209=DIRECTION('',(0.,0.,1.));
#210=DIRECTION('',(1.,0.,0.));
#211=CARTESIAN_POINT('',(0.,0.,0.));
#212=CARTESIAN_POINT('',(-3.16E-18,-1.12E-18,0.007));
#213=CARTESIAN_POINT('',(-0.023864855,-0.023864855,0.007));
#214=CARTESIAN_POINT('',(-0.022314855,-0.023864855,0.007));
#215=CARTESIAN_POINT('',(0.023864855,-0.023864855,0.007));
#216=CARTESIAN_POINT('',(0.025414855,-0.023864855,0.007));
#217=CARTESIAN_POINT('',(0.023864855,0.023864855,0.007));
#218=CARTESIAN_POINT('',(0.025414855,0.023864855,0.007));
#219=CARTESIAN_POINT('',(-0.023864855,0.023864855,0.007));
#220=CARTESIAN_POINT('',(-0.022314855,0.023864855,0.007));
#221=CARTESIAN_POINT('',(0.,4.34786628227148E-18,0.007));
#222=CARTESIAN_POINT('',(0.0375,4.34786628227148E-18,0.007));
#223=CARTESIAN_POINT('',(0.,0.,0.007));
#224=CARTESIAN_POINT('',(0.0041,0.,0.007));
#225=CARTESIAN_POINT('',(-3.16E-18,-1.12E-18,0.));
#226=CARTESIAN_POINT('',(-0.023864855,-0.023864855,0.));
#227=CARTESIAN_POINT('',(-0.022314855,-0.023864855,0.));
#228=CARTESIAN_POINT('',(0.023864855,-0.023864855,0.));
#229=CARTESIAN_POINT('',(0.025414855,-0.023864855,0.));
#230=CARTESIAN_POINT('',(0.023864855,0.023864855,0.));
#231=CARTESIAN_POINT('',(0.025414855,0.023864855,0.));
#232=CARTESIAN_POINT('',(-0.023864855,0.023864855,0.));
#233=CARTESIAN_POINT('',(-0.022314855,0.023864855,0.));
#234=CARTESIAN_POINT('',(0.,4.34786628227148E-18,0.));
#235=CARTESIAN_POINT('',(0.0375,4.34786628227148E-18,0.));
#236=CARTESIAN_POINT('',(0.,0.,0.));
#237=CARTESIAN_POINT('',(0.0041,0.,0.));
#238=CARTESIAN_POINT('',(0.,0.,0.007));
#239=CARTESIAN_POINT('',(0.,4.34786628227148E-18,0.));
#240=CARTESIAN_POINT('',(-0.023864855,0.023864855,-0.018));
#241=CARTESIAN_POINT('',(0.023864855,0.023864855,-0.018));
#242=CARTESIAN_POINT('',(0.023864855,-0.023864855,-0.018));
#243=CARTESIAN_POINT('',(-0.023864855,-0.023864855,-0.018));
#244=MECHANICAL_DESIGN_GEOMETRIC_PRESENTATION_REPRESENTATION('',(#137),
#245);
#245=(
GEOMETRIC_REPRESENTATION_CONTEXT(3)
GLOBAL_UNCERTAINTY_ASSIGNED_CONTEXT((#246))
GLOBAL_UNIT_ASSIGNED_CONTEXT((#249,#248,#247))
REPRESENTATION_CONTEXT('DrivenGear30T','TOP_LEVEL_ASSEMBLY_PART')
);
#246=UNCERTAINTY_MEASURE_WITH_UNIT(LENGTH_MEASURE(1.E-8),#249,
'DISTANCE_ACCURACY_VALUE','Maximum Tolerance applied to model');
#247=(
NAMED_UNIT(*)
SI_UNIT($,.STERADIAN.)
SOLID_ANGLE_UNIT()
);
#248=(
NAMED_UNIT(*)
PLANE_ANGLE_UNIT()
SI_UNIT($,.RADIAN.)
);
#249=(
LENGTH_UNIT()
NAMED_UNIT(*)
SI_UNIT($,.METRE.)
);
#250=PRODUCT_DEFINITION_SHAPE('','',#251);
#251=PRODUCT_DEFINITION('','',#253,#252);
#252=PRODUCT_DEFINITION_CONTEXT('',#259,'design');
#253=PRODUCT_DEFINITION_FORMATION_WITH_SPECIFIED_SOURCE('','',#255,
 .NOT_KNOWN.);
#254=PRODUCT_RELATED_PRODUCT_CATEGORY('','',(#255));
#255=PRODUCT('DrivenGear30T','DrivenGear30T','DrivenGear30T',(#257));
#256=PRODUCT_CATEGORY('','');
#257=PRODUCT_CONTEXT('',#259,'mechanical');
#258=APPLICATION_PROTOCOL_DEFINITION('international standard',
'ap242_managed_model_based_3d_engineering',2020,#259);
#259=APPLICATION_CONTEXT('managed model based 3d engineering');
ENDSEC;
END-ISO-10303-21;
