ISO-10303-21;
HEADER;
/* Generated by software containing ST-Developer
 * from STEP Tools, Inc. (www.steptools.com) 
 */
/* OPTION: using custom renumber hook */

FILE_DESCRIPTION(
/* description */ ('STEP AP242 Edition 2',
'CAx-IF Rec.Pracs.---Representation and Presentation of Product Manufa
cturing Information (PMI)---4.0---2014-10-13',
'CAx-IF Rec.Pracs.---3D Tessellated Geometry---0.4---2014-09-14','2;1',
'CAx-IF Rec.Pracs.---User Defined Attributes---1.5---2016-08-15'),
/* implementation_level */ '2;1');

FILE_NAME(
/* name */ '6a42e5403a49f9c46f698c43',
/* time_stamp */ '2026-06-29T21:36:00Z',
/* author */ (''),
/* organization */ (''),
/* preprocessor_version */ 'ST-DEVELOPER v20',
/* originating_system */ 'ONSHAPE BY PTC INC, 1.217',
/* authorisation */ '  ');

FILE_SCHEMA (('AP242_MANAGED_MODEL_BASED_3D_ENGINEERING_MIM_LF { 1 0 10303 442 3 1 4 }'));
ENDSEC;

DATA;
#10=TOROIDAL_SURFACE('',#572,0.01915,0.004);
#11=CONTEXT_DEPENDENT_SHAPE_REPRESENTATION(#15,#1018);
#12=CONTEXT_DEPENDENT_SHAPE_REPRESENTATION(#16,#1020);
#13=NEXT_ASSEMBLY_USAGE_OCCURRENCE('NAUO1','Part 1','Part 1',#1021,#1022,
'');
#14=NEXT_ASSEMBLY_USAGE_OCCURRENCE('NAUO2','V2','V2',#1021,#1023,'');
#15=(
REPRESENTATION_RELATIONSHIP(' ',' ',#519,#518)
REPRESENTATION_RELATIONSHIP_WITH_TRANSFORMATION(#17)
SHAPE_REPRESENTATION_RELATIONSHIP()
);
#16=(
REPRESENTATION_RELATIONSHIP(' ',' ',#520,#518)
REPRESENTATION_RELATIONSHIP_WITH_TRANSFORMATION(#18)
SHAPE_REPRESENTATION_RELATIONSHIP()
);
#17=ITEM_DEFINED_TRANSFORMATION(' ',' ',#521,#551);
#18=ITEM_DEFINED_TRANSFORMATION(' ',' ',#521,#577);
#19=SHAPE_REPRESENTATION_RELATIONSHIP('','',#519,#21);
#20=SHAPE_REPRESENTATION_RELATIONSHIP('','',#520,#22);
#21=ADVANCED_BREP_SHAPE_REPRESENTATION('',(#513),#1008);
#22=ADVANCED_BREP_SHAPE_REPRESENTATION('',(#514),#1009);
#23=PLANE('',#537);
#24=PLANE('',#542);
#25=PLANE('',#543);
#26=PLANE('',#544);
#27=PLANE('',#549);
#28=PLANE('',#550);
#29=PLANE('',#552);
#30=PLANE('',#559);
#31=PLANE('',#562);
#32=PLANE('',#566);
#33=PLANE('',#570);
#34=PLANE('',#574);
#35=PLANE('',#575);
#36=PLANE('',#576);
#37=CIRCLE('',#523,0.004);
#38=CIRCLE('',#524,0.004);
#39=CIRCLE('',#526,0.002);
#40=CIRCLE('',#527,0.002);
#41=CIRCLE('',#529,0.002);
#42=CIRCLE('',#530,0.002);
#43=CIRCLE('',#532,0.002);
#44=CIRCLE('',#533,0.002);
#45=CIRCLE('',#535,0.002);
#46=CIRCLE('',#536,0.002);
#47=CIRCLE('',#538,0.00395);
#48=CIRCLE('',#539,0.00395);
#49=CIRCLE('',#540,0.00395);
#50=CIRCLE('',#541,0.00395);
#51=CIRCLE('',#554,0.01115);
#52=CIRCLE('',#555,0.01115);
#53=CIRCLE('',#557,0.01515);
#54=CIRCLE('',#558,0.01515);
#55=CIRCLE('',#560,0.0250842359480537);
#56=CIRCLE('',#561,0.01915);
#57=CIRCLE('',#563,0.00915);
#58=CIRCLE('',#565,0.00915);
#59=CIRCLE('',#567,0.01115);
#60=CIRCLE('',#569,0.01115);
#61=CIRCLE('',#571,0.0250842359480537);
#62=LINE('',#733,#89);
#63=LINE('',#737,#90);
#64=LINE('',#741,#91);
#65=LINE('',#754,#92);
#66=LINE('',#767,#93);
#67=LINE('',#780,#94);
#68=LINE('',#926,#95);
#69=LINE('',#928,#96);
#70=LINE('',#930,#97);
#71=LINE('',#932,#98);
#72=LINE('',#934,#99);
#73=LINE('',#936,#100);
#74=LINE('',#938,#101);
#75=LINE('',#940,#102);
#76=LINE('',#942,#103);
#77=LINE('',#944,#104);
#78=LINE('',#945,#105);
#79=LINE('',#954,#106);
#80=LINE('',#957,#107);
#81=LINE('',#959,#108);
#82=LINE('',#961,#109);
#83=LINE('',#973,#110);
#84=LINE('',#975,#111);
#85=LINE('',#993,#112);
#86=LINE('',#997,#113);
#87=LINE('',#1000,#114);
#88=LINE('',#1001,#115);
#89=VECTOR('',#582,1.);
#90=VECTOR('',#585,1.);
#91=VECTOR('',#588,1.);
#92=VECTOR('',#589,1.);
#93=VECTOR('',#590,1.);
#94=VECTOR('',#591,1.);
#95=VECTOR('',#626,1.);
#96=VECTOR('',#627,1.);
#97=VECTOR('',#628,1.);
#98=VECTOR('',#631,1.);
#99=VECTOR('',#632,1.);
#100=VECTOR('',#633,1.);
#101=VECTOR('',#636,1.);
#102=VECTOR('',#637,1.);
#103=VECTOR('',#638,1.);
#104=VECTOR('',#641,1.);
#105=VECTOR('',#642,1.);
#106=VECTOR('',#659,1.);
#107=VECTOR('',#660,1.);
#108=VECTOR('',#661,1.);
#109=VECTOR('',#662,1.);
#110=VECTOR('',#677,1.);
#111=VECTOR('',#678,1.);
#112=VECTOR('',#701,1.);
#113=VECTOR('',#704,1.);
#114=VECTOR('',#709,1.);
#115=VECTOR('',#710,1.);
#116=ORIENTED_EDGE('',*,*,#236,.F.);
#117=ORIENTED_EDGE('',*,*,#237,.F.);
#118=ORIENTED_EDGE('',*,*,#238,.F.);
#119=ORIENTED_EDGE('',*,*,#239,.T.);
#120=ORIENTED_EDGE('',*,*,#240,.T.);
#121=ORIENTED_EDGE('',*,*,#241,.F.);
#122=ORIENTED_EDGE('',*,*,#242,.F.);
#123=ORIENTED_EDGE('',*,*,#243,.F.);
#124=ORIENTED_EDGE('',*,*,#244,.F.);
#125=ORIENTED_EDGE('',*,*,#245,.F.);
#126=ORIENTED_EDGE('',*,*,#246,.F.);
#127=ORIENTED_EDGE('',*,*,#247,.F.);
#128=ORIENTED_EDGE('',*,*,#248,.F.);
#129=ORIENTED_EDGE('',*,*,#249,.T.);
#130=ORIENTED_EDGE('',*,*,#250,.T.);
#131=ORIENTED_EDGE('',*,*,#251,.F.);
#132=ORIENTED_EDGE('',*,*,#252,.T.);
#133=ORIENTED_EDGE('',*,*,#253,.T.);
#134=ORIENTED_EDGE('',*,*,#254,.F.);
#135=ORIENTED_EDGE('',*,*,#255,.T.);
#136=ORIENTED_EDGE('',*,*,#256,.T.);
#137=ORIENTED_EDGE('',*,*,#257,.F.);
#138=ORIENTED_EDGE('',*,*,#258,.T.);
#139=ORIENTED_EDGE('',*,*,#259,.T.);
#140=ORIENTED_EDGE('',*,*,#258,.F.);
#141=ORIENTED_EDGE('',*,*,#259,.F.);
#142=ORIENTED_EDGE('',*,*,#255,.F.);
#143=ORIENTED_EDGE('',*,*,#256,.F.);
#144=ORIENTED_EDGE('',*,*,#252,.F.);
#145=ORIENTED_EDGE('',*,*,#253,.F.);
#146=ORIENTED_EDGE('',*,*,#249,.F.);
#147=ORIENTED_EDGE('',*,*,#250,.F.);
#148=ORIENTED_EDGE('',*,*,#237,.T.);
#149=ORIENTED_EDGE('',*,*,#260,.T.);
#150=ORIENTED_EDGE('',*,*,#247,.T.);
#151=ORIENTED_EDGE('',*,*,#261,.T.);
#152=ORIENTED_EDGE('',*,*,#245,.T.);
#153=ORIENTED_EDGE('',*,*,#262,.T.);
#154=ORIENTED_EDGE('',*,*,#243,.T.);
#155=ORIENTED_EDGE('',*,*,#263,.T.);
#156=ORIENTED_EDGE('',*,*,#241,.T.);
#157=ORIENTED_EDGE('',*,*,#264,.F.);
#158=ORIENTED_EDGE('',*,*,#265,.F.);
#159=ORIENTED_EDGE('',*,*,#266,.T.);
#160=ORIENTED_EDGE('',*,*,#264,.T.);
#161=ORIENTED_EDGE('',*,*,#240,.F.);
#162=ORIENTED_EDGE('',*,*,#267,.T.);
#163=ORIENTED_EDGE('',*,*,#268,.T.);
#164=ORIENTED_EDGE('',*,*,#269,.T.);
#165=ORIENTED_EDGE('',*,*,#268,.F.);
#166=ORIENTED_EDGE('',*,*,#270,.T.);
#167=ORIENTED_EDGE('',*,*,#271,.T.);
#168=ORIENTED_EDGE('',*,*,#272,.T.);
#169=ORIENTED_EDGE('',*,*,#257,.T.);
#170=ORIENTED_EDGE('',*,*,#254,.T.);
#171=ORIENTED_EDGE('',*,*,#251,.T.);
#172=ORIENTED_EDGE('',*,*,#248,.T.);
#173=ORIENTED_EDGE('',*,*,#273,.T.);
#174=ORIENTED_EDGE('',*,*,#238,.T.);
#175=ORIENTED_EDGE('',*,*,#266,.F.);
#176=ORIENTED_EDGE('',*,*,#274,.F.);
#177=ORIENTED_EDGE('',*,*,#271,.F.);
#178=ORIENTED_EDGE('',*,*,#236,.T.);
#179=ORIENTED_EDGE('',*,*,#260,.F.);
#180=ORIENTED_EDGE('',*,*,#246,.T.);
#181=ORIENTED_EDGE('',*,*,#261,.F.);
#182=ORIENTED_EDGE('',*,*,#244,.T.);
#183=ORIENTED_EDGE('',*,*,#262,.F.);
#184=ORIENTED_EDGE('',*,*,#242,.T.);
#185=ORIENTED_EDGE('',*,*,#263,.F.);
#186=ORIENTED_EDGE('',*,*,#270,.F.);
#187=ORIENTED_EDGE('',*,*,#267,.F.);
#188=ORIENTED_EDGE('',*,*,#239,.F.);
#189=ORIENTED_EDGE('',*,*,#273,.F.);
#190=ORIENTED_EDGE('',*,*,#274,.T.);
#191=ORIENTED_EDGE('',*,*,#265,.T.);
#192=ORIENTED_EDGE('',*,*,#269,.F.);
#193=ORIENTED_EDGE('',*,*,#272,.F.);
#194=ORIENTED_EDGE('',*,*,#275,.T.);
#195=ORIENTED_EDGE('',*,*,#276,.T.);
#196=ORIENTED_EDGE('',*,*,#277,.F.);
#197=ORIENTED_EDGE('',*,*,#278,.F.);
#198=ORIENTED_EDGE('',*,*,#279,.F.);
#199=ORIENTED_EDGE('',*,*,#280,.T.);
#200=ORIENTED_EDGE('',*,*,#281,.T.);
#201=ORIENTED_EDGE('',*,*,#282,.F.);
#202=ORIENTED_EDGE('',*,*,#283,.T.);
#203=ORIENTED_EDGE('',*,*,#275,.F.);
#204=ORIENTED_EDGE('',*,*,#284,.F.);
#205=ORIENTED_EDGE('',*,*,#285,.T.);
#206=ORIENTED_EDGE('',*,*,#286,.F.);
#207=ORIENTED_EDGE('',*,*,#287,.F.);
#208=ORIENTED_EDGE('',*,*,#279,.T.);
#209=ORIENTED_EDGE('',*,*,#287,.T.);
#210=ORIENTED_EDGE('',*,*,#288,.F.);
#211=ORIENTED_EDGE('',*,*,#288,.T.);
#212=ORIENTED_EDGE('',*,*,#289,.T.);
#213=ORIENTED_EDGE('',*,*,#290,.T.);
#214=ORIENTED_EDGE('',*,*,#289,.F.);
#215=ORIENTED_EDGE('',*,*,#291,.F.);
#216=ORIENTED_EDGE('',*,*,#292,.T.);
#217=ORIENTED_EDGE('',*,*,#293,.T.);
#218=ORIENTED_EDGE('',*,*,#277,.T.);
#219=ORIENTED_EDGE('',*,*,#290,.F.);
#220=ORIENTED_EDGE('',*,*,#281,.F.);
#221=ORIENTED_EDGE('',*,*,#286,.T.);
#222=ORIENTED_EDGE('',*,*,#285,.F.);
#223=ORIENTED_EDGE('',*,*,#294,.T.);
#224=ORIENTED_EDGE('',*,*,#292,.F.);
#225=ORIENTED_EDGE('',*,*,#295,.F.);
#226=ORIENTED_EDGE('',*,*,#280,.F.);
#227=ORIENTED_EDGE('',*,*,#282,.T.);
#228=ORIENTED_EDGE('',*,*,#283,.F.);
#229=ORIENTED_EDGE('',*,*,#295,.T.);
#230=ORIENTED_EDGE('',*,*,#291,.T.);
#231=ORIENTED_EDGE('',*,*,#276,.F.);
#232=ORIENTED_EDGE('',*,*,#294,.F.);
#233=ORIENTED_EDGE('',*,*,#284,.T.);
#234=ORIENTED_EDGE('',*,*,#278,.T.);
#235=ORIENTED_EDGE('',*,*,#293,.F.);
#236=EDGE_CURVE('',#296,#297,#343,.T.);
#237=EDGE_CURVE('',#298,#296,#62,.T.);
#238=EDGE_CURVE('',#299,#298,#37,.T.);
#239=EDGE_CURVE('',#299,#300,#63,.T.);
#240=EDGE_CURVE('',#300,#301,#38,.T.);
#241=EDGE_CURVE('',#302,#301,#64,.T.);
#242=EDGE_CURVE('',#303,#302,#344,.T.);
#243=EDGE_CURVE('',#304,#303,#65,.T.);
#244=EDGE_CURVE('',#305,#304,#345,.T.);
#245=EDGE_CURVE('',#306,#305,#66,.T.);
#246=EDGE_CURVE('',#307,#306,#346,.T.);
#247=EDGE_CURVE('',#297,#307,#67,.T.);
#248=EDGE_CURVE('',#308,#308,#39,.T.);
#249=EDGE_CURVE('',#309,#310,#347,.T.);
#250=EDGE_CURVE('',#310,#309,#40,.T.);
#251=EDGE_CURVE('',#311,#311,#41,.T.);
#252=EDGE_CURVE('',#312,#313,#348,.T.);
#253=EDGE_CURVE('',#313,#312,#42,.T.);
#254=EDGE_CURVE('',#314,#314,#43,.T.);
#255=EDGE_CURVE('',#315,#316,#349,.T.);
#256=EDGE_CURVE('',#316,#315,#44,.T.);
#257=EDGE_CURVE('',#317,#317,#45,.T.);
#258=EDGE_CURVE('',#318,#319,#350,.T.);
#259=EDGE_CURVE('',#319,#318,#46,.T.);
#260=EDGE_CURVE('',#296,#297,#47,.T.);
#261=EDGE_CURVE('',#307,#306,#48,.T.);
#262=EDGE_CURVE('',#305,#304,#49,.T.);
#263=EDGE_CURVE('',#303,#302,#50,.T.);
#264=EDGE_CURVE('',#320,#301,#68,.T.);
#265=EDGE_CURVE('',#321,#320,#69,.T.);
#266=EDGE_CURVE('',#321,#298,#70,.T.);
#267=EDGE_CURVE('',#300,#322,#71,.T.);
#268=EDGE_CURVE('',#322,#323,#72,.T.);
#269=EDGE_CURVE('',#323,#320,#73,.T.);
#270=EDGE_CURVE('',#322,#324,#74,.T.);
#271=EDGE_CURVE('',#324,#325,#75,.T.);
#272=EDGE_CURVE('',#325,#323,#76,.T.);
#273=EDGE_CURVE('',#324,#299,#77,.T.);
#274=EDGE_CURVE('',#325,#321,#78,.T.);
#275=EDGE_CURVE('',#326,#327,#79,.T.);
#276=EDGE_CURVE('',#327,#328,#80,.T.);
#277=EDGE_CURVE('',#329,#328,#81,.T.);
#278=EDGE_CURVE('',#326,#329,#82,.T.);
#279=EDGE_CURVE('',#330,#330,#51,.T.);
#280=EDGE_CURVE('',#331,#331,#52,.T.);
#281=EDGE_CURVE('',#332,#332,#53,.T.);
#282=EDGE_CURVE('',#333,#333,#54,.T.);
#283=EDGE_CURVE('',#334,#327,#83,.T.);
#284=EDGE_CURVE('',#335,#326,#84,.T.);
#285=EDGE_CURVE('',#335,#334,#55,.T.);
#286=EDGE_CURVE('',#336,#336,#56,.T.);
#287=EDGE_CURVE('',#337,#337,#57,.T.);
#288=EDGE_CURVE('',#338,#338,#58,.T.);
#289=EDGE_CURVE('',#339,#339,#59,.T.);
#290=EDGE_CURVE('',#340,#340,#60,.T.);
#291=EDGE_CURVE('',#341,#328,#85,.T.);
#292=EDGE_CURVE('',#341,#342,#61,.T.);
#293=EDGE_CURVE('',#342,#329,#86,.T.);
#294=EDGE_CURVE('',#335,#342,#87,.T.);
#295=EDGE_CURVE('',#334,#341,#88,.T.);
#296=VERTEX_POINT('',#731);
#297=VERTEX_POINT('',#732);
#298=VERTEX_POINT('',#734);
#299=VERTEX_POINT('',#736);
#300=VERTEX_POINT('',#738);
#301=VERTEX_POINT('',#740);
#302=VERTEX_POINT('',#742);
#303=VERTEX_POINT('',#753);
#304=VERTEX_POINT('',#755);
#305=VERTEX_POINT('',#766);
#306=VERTEX_POINT('',#768);
#307=VERTEX_POINT('',#779);
#308=VERTEX_POINT('',#783);
#309=VERTEX_POINT('',#813);
#310=VERTEX_POINT('',#814);
#311=VERTEX_POINT('',#818);
#312=VERTEX_POINT('',#848);
#313=VERTEX_POINT('',#849);
#314=VERTEX_POINT('',#853);
#315=VERTEX_POINT('',#883);
#316=VERTEX_POINT('',#884);
#317=VERTEX_POINT('',#888);
#318=VERTEX_POINT('',#918);
#319=VERTEX_POINT('',#919);
#320=VERTEX_POINT('',#927);
#321=VERTEX_POINT('',#929);
#322=VERTEX_POINT('',#933);
#323=VERTEX_POINT('',#935);
#324=VERTEX_POINT('',#939);
#325=VERTEX_POINT('',#941);
#326=VERTEX_POINT('',#955);
#327=VERTEX_POINT('',#956);
#328=VERTEX_POINT('',#958);
#329=VERTEX_POINT('',#960);
#330=VERTEX_POINT('',#964);
#331=VERTEX_POINT('',#966);
#332=VERTEX_POINT('',#969);
#333=VERTEX_POINT('',#971);
#334=VERTEX_POINT('',#974);
#335=VERTEX_POINT('',#976);
#336=VERTEX_POINT('',#979);
#337=VERTEX_POINT('',#982);
#338=VERTEX_POINT('',#985);
#339=VERTEX_POINT('',#988);
#340=VERTEX_POINT('',#991);
#341=VERTEX_POINT('',#994);
#342=VERTEX_POINT('',#996);
#343=B_SPLINE_CURVE_WITH_KNOTS('',3,(#721,#722,#723,#724,#725,#726,#727,
#728,#729,#730),.UNSPECIFIED.,.F.,.F.,(4,1,1,1,1,1,1,4),(0.,0.00267335919902187,
0.0040100387985328,0.00534671839804373,0.00668339799755466,0.0080200775970656,
0.00935675719657653,0.0106934367960875),.UNSPECIFIED.);
#344=B_SPLINE_CURVE_WITH_KNOTS('',3,(#743,#744,#745,#746,#747,#748,#749,
#750,#751,#752),.UNSPECIFIED.,.F.,.F.,(4,1,1,1,1,1,1,4),(0.,0.00267335919902185,
0.00401003879853278,0.00534671839804371,0.00668339799755463,0.00802007759706556,
0.00935675719657648,0.0106934367960874),.UNSPECIFIED.);
#345=B_SPLINE_CURVE_WITH_KNOTS('',3,(#756,#757,#758,#759,#760,#761,#762,
#763,#764,#765),.UNSPECIFIED.,.F.,.F.,(4,1,1,1,1,1,1,4),(0.,0.00267335919902186,
0.00401003879853278,0.00534671839804371,0.00668339799755464,0.00802007759706557,
0.0093567571965765,0.0106934367960874),.UNSPECIFIED.);
#346=B_SPLINE_CURVE_WITH_KNOTS('',3,(#769,#770,#771,#772,#773,#774,#775,
#776,#777,#778),.UNSPECIFIED.,.F.,.F.,(4,1,1,1,1,1,1,4),(0.,0.00267335919902185,
0.00401003879853278,0.00534671839804371,0.00668339799755464,0.00802007759706556,
0.00935675719657649,0.0106934367960874),.UNSPECIFIED.);
#347=B_SPLINE_CURVE_WITH_KNOTS('',3,(#784,#785,#786,#787,#788,#789,#790,
#791,#792,#793,#794,#795,#796,#797,#798,#799,#800,#801,#802,#803,#804,#805,
#806,#807,#808,#809,#810,#811,#812),.UNSPECIFIED.,.F.,.F.,(4,2,2,2,2,2,
2,1,2,2,2,2,2,2,4),(54.128491192431,54.2367443679041,54.3449975433771,54.5615038943233,
54.7780102452694,54.9945165962155,55.4275292981077,55.860542,56.2935547018923,
56.7265674037845,56.9430737547306,57.1595801056768,57.3760864566229,57.4843396320959,
57.592592807569),.UNSPECIFIED.);
#348=B_SPLINE_CURVE_WITH_KNOTS('',3,(#819,#820,#821,#822,#823,#824,#825,
#826,#827,#828,#829,#830,#831,#832,#833,#834,#835,#836,#837,#838,#839,#840,
#841,#842,#843,#844,#845,#846,#847),.UNSPECIFIED.,.F.,.F.,(4,2,2,2,2,2,
2,1,2,2,2,2,2,2,4),(39.107392479957,39.2156456554301,39.3238988309031,39.5404051818492,
39.7569115327952,39.9734178837412,40.4064305856334,40.8394432875255,41.2724559894176,
41.7054686913098,41.9219750422558,42.1384813932019,42.354987744148,42.463240919621,
42.571494095094),.UNSPECIFIED.);
#349=B_SPLINE_CURVE_WITH_KNOTS('',3,(#854,#855,#856,#857,#858,#859,#860,
#861,#862,#863,#864,#865,#866,#867,#868,#869,#870,#871,#872,#873,#874,#875,
#876,#877,#878,#879,#880,#881,#882),.UNSPECIFIED.,.F.,.F.,(4,2,2,2,2,2,
2,1,2,2,2,2,2,2,4),(17.428505904906,17.536759080379,17.6450122558521,17.8615186067981,
18.0780249577442,18.2945313086902,18.7275440105824,19.1605567124745,19.5935694143667,
20.0265821162588,20.2430884672048,20.4595948181509,20.676101169097,20.78435434457,
20.892607520043),.UNSPECIFIED.);
#350=B_SPLINE_CURVE_WITH_KNOTS('',3,(#889,#890,#891,#892,#893,#894,#895,
#896,#897,#898,#899,#900,#901,#902,#903,#904,#905,#906,#907,#908,#909,#910,
#911,#912,#913,#914,#915,#916,#917),.UNSPECIFIED.,.F.,.F.,(4,2,2,2,2,2,
2,1,2,2,2,2,2,2,4),(2.407407192431,2.51566036790406,2.62391354337713,2.84041989432325,
3.05692624526938,3.2734325962155,3.70644529810775,4.139458,4.57247070189225,
5.0054834037845,5.22198975473062,5.43849610567675,5.65500245662287,5.76325563209594,
5.871508807569),.UNSPECIFIED.);
#351=EDGE_LOOP('',(#116,#117,#118,#119,#120,#121,#122,#123,#124,#125,#126,
#127));
#352=EDGE_LOOP('',(#128));
#353=EDGE_LOOP('',(#129,#130));
#354=EDGE_LOOP('',(#131));
#355=EDGE_LOOP('',(#132,#133));
#356=EDGE_LOOP('',(#134));
#357=EDGE_LOOP('',(#135,#136));
#358=EDGE_LOOP('',(#137));
#359=EDGE_LOOP('',(#138,#139));
#360=EDGE_LOOP('',(#140,#141));
#361=EDGE_LOOP('',(#142,#143));
#362=EDGE_LOOP('',(#144,#145));
#363=EDGE_LOOP('',(#146,#147));
#364=EDGE_LOOP('',(#148,#149,#150,#151,#152,#153,#154,#155,#156,#157,#158,
#159));
#365=EDGE_LOOP('',(#160,#161,#162,#163,#164));
#366=EDGE_LOOP('',(#165,#166,#167,#168));
#367=EDGE_LOOP('',(#169));
#368=EDGE_LOOP('',(#170));
#369=EDGE_LOOP('',(#171));
#370=EDGE_LOOP('',(#172));
#371=EDGE_LOOP('',(#173,#174,#175,#176,#177));
#372=EDGE_LOOP('',(#178,#179));
#373=EDGE_LOOP('',(#180,#181));
#374=EDGE_LOOP('',(#182,#183));
#375=EDGE_LOOP('',(#184,#185));
#376=EDGE_LOOP('',(#186,#187,#188,#189));
#377=EDGE_LOOP('',(#190,#191,#192,#193));
#378=EDGE_LOOP('',(#194,#195,#196,#197));
#379=EDGE_LOOP('',(#198));
#380=EDGE_LOOP('',(#199));
#381=EDGE_LOOP('',(#200));
#382=EDGE_LOOP('',(#201));
#383=EDGE_LOOP('',(#202,#203,#204,#205));
#384=EDGE_LOOP('',(#206));
#385=EDGE_LOOP('',(#207));
#386=EDGE_LOOP('',(#208));
#387=EDGE_LOOP('',(#209));
#388=EDGE_LOOP('',(#210));
#389=EDGE_LOOP('',(#211));
#390=EDGE_LOOP('',(#212));
#391=EDGE_LOOP('',(#213));
#392=EDGE_LOOP('',(#214));
#393=EDGE_LOOP('',(#215,#216,#217,#218));
#394=EDGE_LOOP('',(#219));
#395=EDGE_LOOP('',(#220));
#396=EDGE_LOOP('',(#221));
#397=EDGE_LOOP('',(#222,#223,#224,#225));
#398=EDGE_LOOP('',(#226));
#399=EDGE_LOOP('',(#227));
#400=EDGE_LOOP('',(#228,#229,#230,#231));
#401=EDGE_LOOP('',(#232,#233,#234,#235));
#402=FACE_BOUND('',#351,.T.);
#403=FACE_BOUND('',#352,.T.);
#404=FACE_BOUND('',#353,.T.);
#405=FACE_BOUND('',#354,.T.);
#406=FACE_BOUND('',#355,.T.);
#407=FACE_BOUND('',#356,.T.);
#408=FACE_BOUND('',#357,.T.);
#409=FACE_BOUND('',#358,.T.);
#410=FACE_BOUND('',#359,.T.);
#411=FACE_BOUND('',#360,.T.);
#412=FACE_BOUND('',#361,.T.);
#413=FACE_BOUND('',#362,.T.);
#414=FACE_BOUND('',#363,.T.);
#415=FACE_BOUND('',#364,.T.);
#416=FACE_BOUND('',#365,.T.);
#417=FACE_BOUND('',#366,.T.);
#418=FACE_BOUND('',#367,.T.);
#419=FACE_BOUND('',#368,.T.);
#420=FACE_BOUND('',#369,.T.);
#421=FACE_BOUND('',#370,.T.);
#422=FACE_BOUND('',#371,.T.);
#423=FACE_BOUND('',#372,.T.);
#424=FACE_BOUND('',#373,.T.);
#425=FACE_BOUND('',#374,.T.);
#426=FACE_BOUND('',#375,.T.);
#427=FACE_BOUND('',#376,.T.);
#428=FACE_BOUND('',#377,.T.);
#429=FACE_BOUND('',#378,.T.);
#430=FACE_BOUND('',#379,.T.);
#431=FACE_BOUND('',#380,.T.);
#432=FACE_BOUND('',#381,.T.);
#433=FACE_BOUND('',#382,.T.);
#434=FACE_BOUND('',#383,.T.);
#435=FACE_BOUND('',#384,.T.);
#436=FACE_BOUND('',#385,.T.);
#437=FACE_BOUND('',#386,.T.);
#438=FACE_BOUND('',#387,.T.);
#439=FACE_BOUND('',#388,.T.);
#440=FACE_BOUND('',#389,.T.);
#441=FACE_BOUND('',#390,.T.);
#442=FACE_BOUND('',#391,.T.);
#443=FACE_BOUND('',#392,.T.);
#444=FACE_BOUND('',#393,.T.);
#445=FACE_BOUND('',#394,.T.);
#446=FACE_BOUND('',#395,.T.);
#447=FACE_BOUND('',#396,.T.);
#448=FACE_BOUND('',#397,.T.);
#449=FACE_BOUND('',#398,.T.);
#450=FACE_BOUND('',#399,.T.);
#451=FACE_BOUND('',#400,.T.);
#452=FACE_BOUND('',#401,.T.);
#453=CYLINDRICAL_SURFACE('',#522,0.004);
#454=CYLINDRICAL_SURFACE('',#525,0.002);
#455=CYLINDRICAL_SURFACE('',#528,0.002);
#456=CYLINDRICAL_SURFACE('',#531,0.002);
#457=CYLINDRICAL_SURFACE('',#534,0.002);
#458=CYLINDRICAL_SURFACE('',#545,0.00395);
#459=CYLINDRICAL_SURFACE('',#546,0.00395);
#460=CYLINDRICAL_SURFACE('',#547,0.00395);
#461=CYLINDRICAL_SURFACE('',#548,0.00395);
#462=CYLINDRICAL_SURFACE('',#553,0.01115);
#463=CYLINDRICAL_SURFACE('',#556,0.01515);
#464=CYLINDRICAL_SURFACE('',#564,0.00915);
#465=CYLINDRICAL_SURFACE('',#568,0.01115);
#466=CYLINDRICAL_SURFACE('',#573,0.0250842359480537);
#467=ADVANCED_FACE('',(#402),#453,.F.);
#468=ADVANCED_FACE('',(#403,#404),#454,.F.);
#469=ADVANCED_FACE('',(#405,#406),#455,.F.);
#470=ADVANCED_FACE('',(#407,#408),#456,.F.);
#471=ADVANCED_FACE('',(#409,#410),#457,.F.);
#472=ADVANCED_FACE('',(#411,#412,#413,#414,#415),#23,.F.);
#473=ADVANCED_FACE('',(#416),#24,.T.);
#474=ADVANCED_FACE('',(#417,#418,#419,#420,#421),#25,.F.);
#475=ADVANCED_FACE('',(#422),#26,.F.);
#476=ADVANCED_FACE('',(#423),#458,.F.);
#477=ADVANCED_FACE('',(#424),#459,.F.);
#478=ADVANCED_FACE('',(#425),#460,.F.);
#479=ADVANCED_FACE('',(#426),#461,.F.);
#480=ADVANCED_FACE('',(#427),#27,.F.);
#481=ADVANCED_FACE('',(#428),#28,.T.);
#482=ADVANCED_FACE('',(#429),#29,.F.);
#483=ADVANCED_FACE('',(#430,#431),#462,.F.);
#484=ADVANCED_FACE('',(#432,#433),#463,.T.);
#485=ADVANCED_FACE('',(#434,#435),#30,.T.);
#486=ADVANCED_FACE('',(#436,#437),#31,.T.);
#487=ADVANCED_FACE('',(#438,#439),#464,.F.);
#488=ADVANCED_FACE('',(#440,#441),#32,.F.);
#489=ADVANCED_FACE('',(#442,#443),#465,.F.);
#490=ADVANCED_FACE('',(#444,#445),#33,.F.);
#491=ADVANCED_FACE('',(#446,#447),#10,.F.);
#492=ADVANCED_FACE('',(#448),#466,.T.);
#493=ADVANCED_FACE('',(#449,#450),#34,.T.);
#494=ADVANCED_FACE('',(#451),#35,.T.);
#495=ADVANCED_FACE('',(#452),#36,.F.);
#496=CLOSED_SHELL('',(#467,#468,#469,#470,#471,#472,#473,#474,#475,#476,
#477,#478,#479,#480,#481));
#497=CLOSED_SHELL('',(#482,#483,#484,#485,#486,#487,#488,#489,#490,#491,
#492,#493,#494,#495));
#498=STYLED_ITEM('',(#500),#513);
#499=STYLED_ITEM('',(#501),#514);
#500=PRESENTATION_STYLE_ASSIGNMENT((#502));
#501=PRESENTATION_STYLE_ASSIGNMENT((#503));
#502=SURFACE_STYLE_USAGE(.BOTH.,#504);
#503=SURFACE_STYLE_USAGE(.BOTH.,#505);
#504=SURFACE_SIDE_STYLE('',(#506));
#505=SURFACE_SIDE_STYLE('',(#507));
#506=SURFACE_STYLE_FILL_AREA(#508);
#507=SURFACE_STYLE_FILL_AREA(#509);
#508=FILL_AREA_STYLE('',(#510));
#509=FILL_AREA_STYLE('',(#511));
#510=FILL_AREA_STYLE_COLOUR('',#512);
#511=FILL_AREA_STYLE_COLOUR('',#512);
#512=COLOUR_RGB('',0.615686274509804,0.811764705882353,0.929411764705882);
#513=MANIFOLD_SOLID_BREP('Part 1',#496);
#514=MANIFOLD_SOLID_BREP('V2',#497);
#515=SHAPE_DEFINITION_REPRESENTATION(#1016,#518);
#516=SHAPE_DEFINITION_REPRESENTATION(#1017,#519);
#517=SHAPE_DEFINITION_REPRESENTATION(#1019,#520);
#518=SHAPE_REPRESENTATION('Full Short Body',(#521,#551,#577),#1007);
#519=SHAPE_REPRESENTATION('Part 1',(#521),#1008);
#520=SHAPE_REPRESENTATION('V2',(#521),#1009);
#521=AXIS2_PLACEMENT_3D('',#719,#578,#579);
#522=AXIS2_PLACEMENT_3D('',#720,#580,#581);
#523=AXIS2_PLACEMENT_3D('',#735,#583,#584);
#524=AXIS2_PLACEMENT_3D('',#739,#586,#587);
#525=AXIS2_PLACEMENT_3D('',#781,#592,#593);
#526=AXIS2_PLACEMENT_3D('',#782,#594,#595);
#527=AXIS2_PLACEMENT_3D('',#815,#596,#597);
#528=AXIS2_PLACEMENT_3D('',#816,#598,#599);
#529=AXIS2_PLACEMENT_3D('',#817,#600,#601);
#530=AXIS2_PLACEMENT_3D('',#850,#602,#603);
#531=AXIS2_PLACEMENT_3D('',#851,#604,#605);
#532=AXIS2_PLACEMENT_3D('',#852,#606,#607);
#533=AXIS2_PLACEMENT_3D('',#885,#608,#609);
#534=AXIS2_PLACEMENT_3D('',#886,#610,#611);
#535=AXIS2_PLACEMENT_3D('',#887,#612,#613);
#536=AXIS2_PLACEMENT_3D('',#920,#614,#615);
#537=AXIS2_PLACEMENT_3D('',#921,#616,#617);
#538=AXIS2_PLACEMENT_3D('',#922,#618,#619);
#539=AXIS2_PLACEMENT_3D('',#923,#620,#621);
#540=AXIS2_PLACEMENT_3D('',#924,#622,#623);
#541=AXIS2_PLACEMENT_3D('',#925,#624,#625);
#542=AXIS2_PLACEMENT_3D('',#931,#629,#630);
#543=AXIS2_PLACEMENT_3D('',#937,#634,#635);
#544=AXIS2_PLACEMENT_3D('',#943,#639,#640);
#545=AXIS2_PLACEMENT_3D('',#946,#643,#644);
#546=AXIS2_PLACEMENT_3D('',#947,#645,#646);
#547=AXIS2_PLACEMENT_3D('',#948,#647,#648);
#548=AXIS2_PLACEMENT_3D('',#949,#649,#650);
#549=AXIS2_PLACEMENT_3D('',#950,#651,#652);
#550=AXIS2_PLACEMENT_3D('',#951,#653,#654);
#551=AXIS2_PLACEMENT_3D('',#952,#655,#656);
#552=AXIS2_PLACEMENT_3D('',#953,#657,#658);
#553=AXIS2_PLACEMENT_3D('',#962,#663,#664);
#554=AXIS2_PLACEMENT_3D('',#963,#665,#666);
#555=AXIS2_PLACEMENT_3D('',#965,#667,#668);
#556=AXIS2_PLACEMENT_3D('',#967,#669,#670);
#557=AXIS2_PLACEMENT_3D('',#968,#671,#672);
#558=AXIS2_PLACEMENT_3D('',#970,#673,#674);
#559=AXIS2_PLACEMENT_3D('',#972,#675,#676);
#560=AXIS2_PLACEMENT_3D('',#977,#679,#680);
#561=AXIS2_PLACEMENT_3D('',#978,#681,#682);
#562=AXIS2_PLACEMENT_3D('',#980,#683,#684);
#563=AXIS2_PLACEMENT_3D('',#981,#685,#686);
#564=AXIS2_PLACEMENT_3D('',#983,#687,#688);
#565=AXIS2_PLACEMENT_3D('',#984,#689,#690);
#566=AXIS2_PLACEMENT_3D('',#986,#691,#692);
#567=AXIS2_PLACEMENT_3D('',#987,#693,#694);
#568=AXIS2_PLACEMENT_3D('',#989,#695,#696);
#569=AXIS2_PLACEMENT_3D('',#990,#697,#698);
#570=AXIS2_PLACEMENT_3D('',#992,#699,#700);
#571=AXIS2_PLACEMENT_3D('',#995,#702,#703);
#572=AXIS2_PLACEMENT_3D('',#998,#705,#706);
#573=AXIS2_PLACEMENT_3D('',#999,#707,#708);
#574=AXIS2_PLACEMENT_3D('',#1002,#711,#712);
#575=AXIS2_PLACEMENT_3D('',#1003,#713,#714);
#576=AXIS2_PLACEMENT_3D('',#1004,#715,#716);
#577=AXIS2_PLACEMENT_3D('',#1005,#717,#718);
#578=DIRECTION('',(0.,0.,1.));
#579=DIRECTION('',(1.,0.,0.));
#580=DIRECTION('',(1.,0.,0.));
#581=DIRECTION('',(0.,-1.,2.22044604925E-16));
#582=DIRECTION('',(1.,-2.22044604925E-16,2.775557561563E-16));
#583=DIRECTION('',(1.,-2.22044604925E-16,2.775557561563E-16));
#584=DIRECTION('',(-2.775557561563E-16,-2.22044604925E-16,1.));
#585=DIRECTION('',(1.,-2.22044604925E-16,2.775557561563E-16));
#586=DIRECTION('',(1.,-2.22044604925E-16,2.775557561563E-16));
#587=DIRECTION('',(-2.775557561563E-16,-2.22044604925E-16,1.));
#588=DIRECTION('',(1.,-2.22044604925E-16,2.775557561563E-16));
#589=DIRECTION('',(1.,-2.22044604925E-16,2.775557561563E-16));
#590=DIRECTION('',(1.,-2.22044604925E-16,2.775557561563E-16));
#591=DIRECTION('',(1.,-2.22044604925E-16,2.775557561563E-16));
#592=DIRECTION('',(0.,0.,1.));
#593=DIRECTION('',(-1.,-6.162975822039E-32,0.));
#594=DIRECTION('',(-2.775557561563E-16,2.22044604925E-16,1.));
#595=DIRECTION('',(-1.,-6.162975822039E-32,-2.775557561563E-16));
#596=DIRECTION('',(-2.775557561563E-16,2.22044604925E-16,1.));
#597=DIRECTION('',(-1.,-4.930380657631E-32,-2.775557561563E-16));
#598=DIRECTION('',(0.,0.,1.));
#599=DIRECTION('',(-1.,-6.162975822039E-32,0.));
#600=DIRECTION('',(-2.775557561563E-16,2.22044604925E-16,1.));
#601=DIRECTION('',(-1.,-6.162975822039E-32,-2.775557561563E-16));
#602=DIRECTION('',(-2.775557561563E-16,2.22044604925E-16,1.));
#603=DIRECTION('',(-1.,-4.930380657631E-32,-2.775557561563E-16));
#604=DIRECTION('',(0.,0.,1.));
#605=DIRECTION('',(-1.,-6.162975822039E-32,0.));
#606=DIRECTION('',(-2.775557561563E-16,2.22044604925E-16,1.));
#607=DIRECTION('',(-1.,-6.162975822039E-32,-2.775557561563E-16));
#608=DIRECTION('',(-2.775557561563E-16,2.22044604925E-16,1.));
#609=DIRECTION('',(-1.,-4.930380657631E-32,-2.775557561563E-16));
#610=DIRECTION('',(0.,0.,1.));
#611=DIRECTION('',(-1.,-6.162975822039E-32,0.));
#612=DIRECTION('',(-2.775557561563E-16,2.22044604925E-16,1.));
#613=DIRECTION('',(-1.,-6.162975822039E-32,-2.775557561563E-16));
#614=DIRECTION('',(-2.775557561563E-16,2.22044604925E-16,1.));
#615=DIRECTION('',(-1.,-4.930380657631E-32,-2.775557561563E-16));
#616=DIRECTION('',(0.,0.,-1.));
#617=DIRECTION('',(-2.22044604925E-16,-1.,0.));
#618=DIRECTION('',(0.,0.,1.));
#619=DIRECTION('',(1.,0.,0.));
#620=DIRECTION('',(0.,0.,1.));
#621=DIRECTION('',(1.,0.,0.));
#622=DIRECTION('',(0.,0.,1.));
#623=DIRECTION('',(1.,0.,0.));
#624=DIRECTION('',(0.,0.,1.));
#625=DIRECTION('',(1.,0.,0.));
#626=DIRECTION('',(-2.22044604925E-16,-1.,2.22044604925E-16));
#627=DIRECTION('',(1.,-2.22044604925E-16,2.775557561563E-16));
#628=DIRECTION('',(-2.22044604925E-16,-1.,2.22044604925E-16));
#629=DIRECTION('',(1.,0.,0.));
#630=DIRECTION('',(0.,1.479114197289E-31,1.));
#631=DIRECTION('',(2.22044604925E-16,-2.22044604925E-16,-1.));
#632=DIRECTION('',(2.22044604925E-16,1.,-2.22044604925E-16));
#633=DIRECTION('',(-2.22044604925E-16,2.22044604925E-16,1.));
#634=DIRECTION('',(0.,0.,1.));
#635=DIRECTION('',(1.,0.,0.));
#636=DIRECTION('',(-1.,0.,0.));
#637=DIRECTION('',(2.22044604925E-16,1.,-2.22044604925E-16));
#638=DIRECTION('',(1.,-2.22044604925E-16,2.775557561563E-16));
#639=DIRECTION('',(1.,0.,0.));
#640=DIRECTION('',(0.,1.479114197289E-31,1.));
#641=DIRECTION('',(-2.22044604925E-16,2.22044604925E-16,1.));
#642=DIRECTION('',(-2.22044604925E-16,2.22044604925E-16,1.));
#643=DIRECTION('',(0.,0.,-1.));
#644=DIRECTION('',(-1.,0.,0.));
#645=DIRECTION('',(0.,0.,-1.));
#646=DIRECTION('',(-1.,0.,0.));
#647=DIRECTION('',(0.,0.,-1.));
#648=DIRECTION('',(-1.,0.,0.));
#649=DIRECTION('',(0.,0.,-1.));
#650=DIRECTION('',(-1.,0.,0.));
#651=DIRECTION('',(0.,1.,0.));
#652=DIRECTION('',(-1.,0.,0.));
#653=DIRECTION('',(0.,1.,0.));
#654=DIRECTION('',(-1.,0.,0.));
#655=DIRECTION('',(0.,0.,1.));
#656=DIRECTION('',(1.,0.,0.));
#657=DIRECTION('',(0.,0.,1.));
#658=DIRECTION('',(1.,0.,0.));
#659=DIRECTION('',(1.,0.,0.));
#660=DIRECTION('',(0.,-1.,2.22044604925E-16));
#661=DIRECTION('',(1.,0.,0.));
#662=DIRECTION('',(0.,-1.,2.22044604925E-16));
#663=DIRECTION('',(0.,-1.,0.));
#664=DIRECTION('',(1.,0.,-1.826722203279E-50));
#665=DIRECTION('',(2.873774171972E-34,1.,2.22044604925E-16));
#666=DIRECTION('',(1.,-2.873774171972E-34,0.));
#667=DIRECTION('',(2.873774171972E-34,1.,2.22044604925E-16));
#668=DIRECTION('',(1.,-2.873774171972E-34,0.));
#669=DIRECTION('',(0.,-1.,0.));
#670=DIRECTION('',(1.,0.,-1.164349077425E-51));
#671=DIRECTION('',(6.651070529198E-36,1.,2.22044604925E-16));
#672=DIRECTION('',(1.,-6.651070529201E-36,1.301750668682E-32));
#673=DIRECTION('',(2.873774171972E-34,1.,2.22044604925E-16));
#674=DIRECTION('',(1.,-2.873774171972E-34,0.));
#675=DIRECTION('',(0.,1.,0.));
#676=DIRECTION('',(0.,0.,1.));
#677=DIRECTION('',(0.0838273137537972,-2.21263073769371E-16,-0.996480296578323));
#678=DIRECTION('',(-0.0838273137537972,-2.21263073769371E-16,-0.996480296578323));
#679=DIRECTION('',(0.,1.,0.));
#680=DIRECTION('',(0.,0.,1.));
#681=DIRECTION('',(6.651070529198E-36,1.,2.22044604925E-16));
#682=DIRECTION('',(1.,-6.651070529201E-36,1.301750668682E-32));
#683=DIRECTION('',(0.,1.,0.));
#684=DIRECTION('',(0.,0.,1.));
#685=DIRECTION('',(6.651070529198E-36,1.,2.22044604925E-16));
#686=DIRECTION('',(1.,-6.651070529198E-36,-1.336382355046E-51));
#687=DIRECTION('',(0.,-1.,0.));
#688=DIRECTION('',(1.,0.,-1.164349077425E-51));
#689=DIRECTION('',(6.651070529198E-36,1.,2.22044604925E-16));
#690=DIRECTION('',(1.,-6.651070529198E-36,-1.336382355046E-51));
#691=DIRECTION('',(0.,1.,0.));
#692=DIRECTION('',(0.,0.,1.));
#693=DIRECTION('',(0.,-1.,-2.22044604925E-16));
#694=DIRECTION('',(1.,0.,0.));
#695=DIRECTION('',(0.,-1.,0.));
#696=DIRECTION('',(1.,0.,-1.826722203279E-50));
#697=DIRECTION('',(0.,-1.,-2.22044604925E-16));
#698=DIRECTION('',(1.,0.,0.));
#699=DIRECTION('',(0.,1.,0.));
#700=DIRECTION('',(0.,0.,1.));
#701=DIRECTION('',(0.0838273137537972,-2.21263073769371E-16,-0.996480296578323));
#702=DIRECTION('',(0.,-1.,0.));
#703=DIRECTION('',(0.,0.,-1.));
#704=DIRECTION('',(-0.0838273137537972,-2.21263073769371E-16,-0.996480296578323));
#705=DIRECTION('',(0.,-1.,0.));
#706=DIRECTION('',(1.,0.,1.301750668682E-32));
#707=DIRECTION('',(0.,-1.,0.));
#708=DIRECTION('',(0.,0.,-1.));
#709=DIRECTION('',(0.,-1.,0.));
#710=DIRECTION('',(0.,-1.,0.));
#711=DIRECTION('',(0.,1.,0.));
#712=DIRECTION('',(0.,0.,1.));
#713=DIRECTION('',(0.996480296578323,1.86134027643861E-17,0.0838273137537972));
#714=DIRECTION('',(0.0838273137537972,-2.21263073769371E-16,-0.996480296578323));
#715=DIRECTION('',(0.996480296578323,-1.86134027643861E-17,-0.0838273137537972));
#716=DIRECTION('',(-0.0838273137537972,-2.21263073769371E-16,-0.996480296578323));
#717=DIRECTION('',(0.,0.,1.));
#718=DIRECTION('',(1.,0.,0.));
#719=CARTESIAN_POINT('',(0.,0.,0.));
#720=CARTESIAN_POINT('',(-0.03,0.004,-0.0488));
#721=CARTESIAN_POINT('',(-0.0296818637608571,0.004,-0.0528));
#722=CARTESIAN_POINT('',(-0.0294521351438263,0.00312213303664847,-0.0528));
#723=CARTESIAN_POINT('',(-0.0286728059475749,0.00201308308153804,-0.0523616084567478));
#724=CARTESIAN_POINT('',(-0.0271983848906732,0.00120930671759791,-0.0516847636981963));
#725=CARTESIAN_POINT('',(-0.0258639326463812,0.000970405552541413,-0.0514095887146301));
#726=CARTESIAN_POINT('',(-0.0245197509973329,0.0012090734491785,-0.0516852152300656));
#727=CARTESIAN_POINT('',(-0.0234172630613478,0.00181468642292441,-0.052192098525972));
#728=CARTESIAN_POINT('',(-0.0225336133854764,0.00273983471063601,-0.0526529383789705));
#729=CARTESIAN_POINT('',(-0.0221540917247871,0.00356103909220583,-0.0528));
#730=CARTESIAN_POINT('',(-0.0220392202391429,0.004,-0.0528));
#731=CARTESIAN_POINT('',(-0.0296818637608571,0.004,-0.0528));
#732=CARTESIAN_POINT('',(-0.0220392202391429,0.004,-0.0528));
#733=CARTESIAN_POINT('',(-0.03,0.004,-0.0528));
#734=CARTESIAN_POINT('',(-0.03,0.004,-0.0528));
#735=CARTESIAN_POINT('',(-0.03,0.004,-0.0488));
#736=CARTESIAN_POINT('',(-0.03,-7.4162898044959E-18,-0.0488));
#737=CARTESIAN_POINT('',(-0.03,-1.136868377216E-17,-0.0488));
#738=CARTESIAN_POINT('',(0.03,-1.38777878078145E-17,-0.0488));
#739=CARTESIAN_POINT('',(0.03,0.004,-0.0488));
#740=CARTESIAN_POINT('',(0.03,0.004,-0.0528));
#741=CARTESIAN_POINT('',(-0.03,0.004,-0.0528));
#742=CARTESIAN_POINT('',(0.0296818637608571,0.004,-0.0528));
#743=CARTESIAN_POINT('',(0.0220392202391429,0.004,-0.0528));
#744=CARTESIAN_POINT('',(0.0222689488561737,0.00312213303664847,-0.0528));
#745=CARTESIAN_POINT('',(0.0230482780524251,0.00201308308153804,-0.0523616084567478));
#746=CARTESIAN_POINT('',(0.0245226991093268,0.00120930671759791,-0.0516847636981963));
#747=CARTESIAN_POINT('',(0.0258571513536188,0.000970405552541412,-0.0514095887146301));
#748=CARTESIAN_POINT('',(0.0272013330026671,0.00120907344917851,-0.0516852152300656));
#749=CARTESIAN_POINT('',(0.0283038209386522,0.00181468642292441,-0.0521920985259721));
#750=CARTESIAN_POINT('',(0.0291874706145236,0.002739834710636,-0.0526529383789705));
#751=CARTESIAN_POINT('',(0.0295669922752129,0.00356103909220583,-0.0528));
#752=CARTESIAN_POINT('',(0.0296818637608571,0.004,-0.0528));
#753=CARTESIAN_POINT('',(0.0220392202391429,0.004,-0.0528));
#754=CARTESIAN_POINT('',(-0.03,0.004,-0.0528));
#755=CARTESIAN_POINT('',(0.0146607650483821,0.004,-0.0528));
#756=CARTESIAN_POINT('',(0.0070181215266679,0.004,-0.0528));
#757=CARTESIAN_POINT('',(0.00724785014369873,0.00312213303664847,-0.0528));
#758=CARTESIAN_POINT('',(0.00802717933995013,0.00201308308153804,-0.0523616084567478));
#759=CARTESIAN_POINT('',(0.00950160039685182,0.00120930671759791,-0.0516847636981963));
#760=CARTESIAN_POINT('',(0.0108360526411438,0.000970405552541411,-0.0514095887146301));
#761=CARTESIAN_POINT('',(0.0121802342901921,0.00120907344917851,-0.0516852152300656));
#762=CARTESIAN_POINT('',(0.0132827222261772,0.0018146864229244,-0.052192098525972));
#763=CARTESIAN_POINT('',(0.0141663719020486,0.00273983471063602,-0.0526529383789705));
#764=CARTESIAN_POINT('',(0.0145458935627379,0.00356103909220583,-0.0528));
#765=CARTESIAN_POINT('',(0.0146607650483821,0.004,-0.0528));
#766=CARTESIAN_POINT('',(0.0070181215266679,0.004,-0.0528));
#767=CARTESIAN_POINT('',(-0.03,0.004,-0.0528));
#768=CARTESIAN_POINT('',(-0.0070181215266629,0.004,-0.0528));
#769=CARTESIAN_POINT('',(-0.0146607650483771,0.004,-0.0528));
#770=CARTESIAN_POINT('',(-0.0144310364313463,0.00312213303664847,-0.0528));
#771=CARTESIAN_POINT('',(-0.0136517072350949,0.00201308308153804,-0.0523616084567478));
#772=CARTESIAN_POINT('',(-0.0121772861781932,0.00120930671759791,-0.0516847636981963));
#773=CARTESIAN_POINT('',(-0.0108428339339012,0.000970405552541413,-0.0514095887146301));
#774=CARTESIAN_POINT('',(-0.00949865228485295,0.00120907344917851,-0.0516852152300656));
#775=CARTESIAN_POINT('',(-0.00839616434886782,0.0018146864229244,-0.052192098525972));
#776=CARTESIAN_POINT('',(-0.00751251467299636,0.002739834710636,-0.0526529383789705));
#777=CARTESIAN_POINT('',(-0.0071329930123071,0.00356103909220583,-0.0528));
#778=CARTESIAN_POINT('',(-0.0070181215266629,0.004,-0.0528));
#779=CARTESIAN_POINT('',(-0.0146607650483771,0.004,-0.0528));
#780=CARTESIAN_POINT('',(-0.03,0.004,-0.0528));
#781=CARTESIAN_POINT('',(0.025860542,0.005,-0.0528));
#782=CARTESIAN_POINT('',(0.025860542,0.005,-0.0628));
#783=CARTESIAN_POINT('',(0.023860542,0.005,-0.0628));
#784=CARTESIAN_POINT('',(0.024128491192431,0.004,-0.0528));
#785=CARTESIAN_POINT('',(0.0241645755842555,0.00393750000000006,-0.0528));
#786=CARTESIAN_POINT('',(0.02420065997608,0.00388257340264387,-0.0528));
#787=CARTESIAN_POINT('',(0.0242728287597287,0.00378221929435775,-0.0528));
#788=CARTESIAN_POINT('',(0.024308913151553,0.00373687325165613,-0.0528));
#789=CARTESIAN_POINT('',(0.0244171663270261,0.00361115864713326,-0.0528));
#790=CARTESIAN_POINT('',(0.0244893351106747,0.00354095171000887,-0.0528));
#791=CARTESIAN_POINT('',(0.0246336726779721,0.00341765841378734,-0.0528));
#792=CARTESIAN_POINT('',(0.0247058414616208,0.00336475867623439,-0.0528));
#793=CARTESIAN_POINT('',(0.0248501790289182,0.00327184232921522,-0.0528));
#794=CARTESIAN_POINT('',(0.0249223478125669,0.00323188834590818,-0.0528));
#795=CARTESIAN_POINT('',(0.025138854163513,0.00312788616717821,-0.0528));
#796=CARTESIAN_POINT('',(0.0252831917308105,0.0030794423663208,-0.0528));
#797=CARTESIAN_POINT('',(0.0255718668654054,0.00301542605113633,-0.0528));
#798=CARTESIAN_POINT('',(0.0258605420000001,0.00298457394886363,-0.0528));
#799=CARTESIAN_POINT('',(0.0261492171345946,0.00301542605113644,-0.0527999999999994));
#800=CARTESIAN_POINT('',(0.0264378922691896,0.00307944236632092,-0.0527999999999967));
#801=CARTESIAN_POINT('',(0.0265822298364871,0.00312788616717843,-0.0527999999999957));
#802=CARTESIAN_POINT('',(0.0267987361874327,0.0032318883459076,-0.0527999999999964));
#803=CARTESIAN_POINT('',(0.0268709049710812,0.00327184232921432,-0.0527999999999968));
#804=CARTESIAN_POINT('',(0.0270152425383756,0.00336475867622846,-0.052799999999998));
#805=CARTESIAN_POINT('',(0.0270874113220219,0.00341765841377744,-0.0527999999999987));
#806=CARTESIAN_POINT('',(0.0272317488893014,0.00354095170996778,-0.0528));
#807=CARTESIAN_POINT('',(0.0273039176729356,0.00361115864706705,-0.0528));
#808=CARTESIAN_POINT('',(0.0274121708483457,0.00373687325148085,-0.0528));
#809=CARTESIAN_POINT('',(0.0274482552401419,0.00378221929413363,-0.0528));
#810=CARTESIAN_POINT('',(0.0275204240237071,0.00388257340227487,-0.0528));
#811=CARTESIAN_POINT('',(0.0275565084154762,0.00393749999953525,-0.0528));
#812=CARTESIAN_POINT('',(0.027592592807221,0.003999999999397,-0.0528));
#813=CARTESIAN_POINT('',(0.024128491192431,0.004,-0.0528));
#814=CARTESIAN_POINT('',(0.027592592807221,0.0039999999996985,-0.0528));
#815=CARTESIAN_POINT('',(0.025860542,0.005,-0.0528));
#816=CARTESIAN_POINT('',(0.010839443287525,0.005,-0.0528));
#817=CARTESIAN_POINT('',(0.010839443287525,0.005,-0.0628));
#818=CARTESIAN_POINT('',(0.008839443287525,0.005,-0.0628));
#819=CARTESIAN_POINT('',(0.009107392479957,0.004,-0.0528));
#820=CARTESIAN_POINT('',(0.00914347687178126,0.00393750000000005,-0.0528));
#821=CARTESIAN_POINT('',(0.00917956126360564,0.00388257340264385,-0.0528));
#822=CARTESIAN_POINT('',(0.00925173004725433,0.0037822192943577,-0.0528));
#823=CARTESIAN_POINT('',(0.00928781443907867,0.00373687325165606,-0.0528));
#824=CARTESIAN_POINT('',(0.00939606761455168,0.00361115864713314,-0.0528));
#825=CARTESIAN_POINT('',(0.00946823639820038,0.00354095171000874,-0.0528));
#826=CARTESIAN_POINT('',(0.00961257396549779,0.0034176584137872,-0.0528));
#827=CARTESIAN_POINT('',(0.00968474274914648,0.00336475867623424,-0.0528));
#828=CARTESIAN_POINT('',(0.0098290803164439,0.00327184232921506,-0.0528));
#829=CARTESIAN_POINT('',(0.00990124910009264,0.00323188834590799,-0.0528));
#830=CARTESIAN_POINT('',(0.0101177554510388,0.00312788616717801,-0.0528));
#831=CARTESIAN_POINT('',(0.0102620930183362,0.00307944236632073,-0.0528));
#832=CARTESIAN_POINT('',(0.010550768152931,0.00301542605113642,-0.0528));
#833=CARTESIAN_POINT('',(0.010839443287526,0.00298457394886353,-0.0528));
#834=CARTESIAN_POINT('',(0.0111281184221207,0.00301542605113651,-0.0528));
#835=CARTESIAN_POINT('',(0.0114167935567154,0.00307944236632102,-0.0528));
#836=CARTESIAN_POINT('',(0.011561131124013,0.00312788616717852,-0.0528));
#837=CARTESIAN_POINT('',(0.0117776374749586,0.00323188834590764,-0.0528));
#838=CARTESIAN_POINT('',(0.011849806258607,0.00327184232921433,-0.0528));
#839=CARTESIAN_POINT('',(0.0119941438259014,0.00336475867622845,-0.0528));
#840=CARTESIAN_POINT('',(0.0120663126095478,0.00341765841377746,-0.0528));
#841=CARTESIAN_POINT('',(0.0122106501768272,0.00354095170996788,-0.0528));
#842=CARTESIAN_POINT('',(0.0122828189604614,0.00361115864706723,-0.0528));
#843=CARTESIAN_POINT('',(0.0123910721358714,0.00373687325148104,-0.0528));
#844=CARTESIAN_POINT('',(0.0124271565276675,0.0037822192941338,-0.0528));
#845=CARTESIAN_POINT('',(0.0124993253112325,0.00388257340227495,-0.0528));
#846=CARTESIAN_POINT('',(0.0125354097030015,0.00393749999953527,-0.0528));
#847=CARTESIAN_POINT('',(0.012571494094746,0.003999999999397,-0.0528));
#848=CARTESIAN_POINT('',(0.009107392479957,0.004,-0.0528));
#849=CARTESIAN_POINT('',(0.012571494094746,0.0039999999996985,-0.0528));
#850=CARTESIAN_POINT('',(0.010839443287525,0.005,-0.0528));
#851=CARTESIAN_POINT('',(-0.01083944328752,0.005,-0.0528));
#852=CARTESIAN_POINT('',(-0.01083944328752,0.005,-0.0628));
#853=CARTESIAN_POINT('',(-0.01283944328752,0.005,-0.0628));
#854=CARTESIAN_POINT('',(-0.01257149409509,0.004,-0.0528));
#855=CARTESIAN_POINT('',(-0.0125354097032667,0.00393750000000008,-0.0528));
#856=CARTESIAN_POINT('',(-0.0124993253114427,0.0038825734026439,-0.0528));
#857=CARTESIAN_POINT('',(-0.0124271565277943,0.0037822192943578,-0.0528));
#858=CARTESIAN_POINT('',(-0.01239107213597,0.00373687325165619,-0.0528));
#859=CARTESIAN_POINT('',(-0.0122828189604969,0.00361115864713333,-0.0528));
#860=CARTESIAN_POINT('',(-0.0122106501768482,0.00354095171000895,-0.0528));
#861=CARTESIAN_POINT('',(-0.0120663126095511,0.00341765841378745,-0.0528));
#862=CARTESIAN_POINT('',(-0.0119941438259027,0.0033647586762345,-0.0528));
#863=CARTESIAN_POINT('',(-0.0118498062586055,0.00327184232921535,-0.0528));
#864=CARTESIAN_POINT('',(-0.0117776374749566,0.00323188834590831,-0.0528));
#865=CARTESIAN_POINT('',(-0.0115611311240094,0.00312788616717832,-0.0528));
#866=CARTESIAN_POINT('',(-0.0114167935567104,0.00307944236632091,-0.0528));
#867=CARTESIAN_POINT('',(-0.0111281184221169,0.00301542605113639,-0.0528));
#868=CARTESIAN_POINT('',(-0.0108394432875288,0.00298457394886367,-0.0528));
#869=CARTESIAN_POINT('',(-0.0105507681529275,0.00301542605113631,-0.0528));
#870=CARTESIAN_POINT('',(-0.0102620930183326,0.00307944236632055,-0.0528));
#871=CARTESIAN_POINT('',(-0.0101177554510358,0.00312788616717807,-0.0528));
#872=CARTESIAN_POINT('',(-0.00990124910009128,0.00323188834590734,-0.0528));
#873=CARTESIAN_POINT('',(-0.00982908031644317,0.0032718423292141,-0.0528));
#874=CARTESIAN_POINT('',(-0.00968474274914928,0.00336475867622829,-0.0528));
#875=CARTESIAN_POINT('',(-0.00961257396550305,0.00341765841377729,-0.0528));
#876=CARTESIAN_POINT('',(-0.00946823639822375,0.00354095170996767,-0.0528));
#877=CARTESIAN_POINT('',(-0.00939606761458951,0.00361115864706696,-0.0528));
#878=CARTESIAN_POINT('',(-0.00928781443917936,0.00373687325148079,-0.0528));
#879=CARTESIAN_POINT('',(-0.00925173004738316,0.00378221929413358,-0.0528));
#880=CARTESIAN_POINT('',(-0.00917956126381794,0.00388257340227483,-0.0528));
#881=CARTESIAN_POINT('',(-0.00914347687204874,0.00393749999953523,-0.0528));
#882=CARTESIAN_POINT('',(-0.009107392480304,0.003999999999397,-0.0528));
#883=CARTESIAN_POINT('',(-0.01257149409509,0.004,-0.0528));
#884=CARTESIAN_POINT('',(-0.009107392480304,0.0039999999996985,-0.0528));
#885=CARTESIAN_POINT('',(-0.01083944328752,0.005,-0.0528));
#886=CARTESIAN_POINT('',(-0.025860542,0.005,-0.0528));
#887=CARTESIAN_POINT('',(-0.025860542,0.005,-0.0628));
#888=CARTESIAN_POINT('',(-0.027860542,0.005,-0.0628));
#889=CARTESIAN_POINT('',(-0.02759259280756,0.004,-0.0528));
#890=CARTESIAN_POINT('',(-0.0275565084157367,0.00393750000000007,-0.0528));
#891=CARTESIAN_POINT('',(-0.0275204240239127,0.00388257340264388,-0.0528));
#892=CARTESIAN_POINT('',(-0.0274482552402643,0.00378221929435775,-0.0528));
#893=CARTESIAN_POINT('',(-0.0274121708484399,0.00373687325165612,-0.0528));
#894=CARTESIAN_POINT('',(-0.0273039176729669,0.00361115864713323,-0.0528));
#895=CARTESIAN_POINT('',(-0.0272317488893181,0.00354095171000883,-0.0528));
#896=CARTESIAN_POINT('',(-0.0270874113220211,0.00341765841378732,-0.0527999999999988));
#897=CARTESIAN_POINT('',(-0.0270152425383729,0.00336475867623439,-0.0527999999999983));
#898=CARTESIAN_POINT('',(-0.0268709049710763,0.00327184232921525,-0.0527999999999976));
#899=CARTESIAN_POINT('',(-0.0267987361874281,0.00323188834590823,-0.0527999999999976));
#900=CARTESIAN_POINT('',(-0.026582229836483,0.00312788616717837,-0.0527999999999982));
#901=CARTESIAN_POINT('',(-0.0264378922691857,0.00307944236632111,-0.0527999999999994));
#902=CARTESIAN_POINT('',(-0.0261492171345895,0.00301542605113655,-0.0528));
#903=CARTESIAN_POINT('',(-0.025860541999995,0.00298457394886353,-0.0528));
#904=CARTESIAN_POINT('',(-0.0255718668654004,0.00301542605113637,-0.0527999999999994));
#905=CARTESIAN_POINT('',(-0.0252831917308045,0.00307944236632081,-0.0527999999999967));
#906=CARTESIAN_POINT('',(-0.0251388541635075,0.00312788616717845,-0.0527999999999957));
#907=CARTESIAN_POINT('',(-0.0249223478125631,0.00323188834590768,-0.0527999999999964));
#908=CARTESIAN_POINT('',(-0.024850179028915,0.00327184232921438,-0.0527999999999969));
#909=CARTESIAN_POINT('',(-0.0247058414616206,0.0033647586762285,-0.0527999999999981));
#910=CARTESIAN_POINT('',(-0.0246336726779739,0.00341765841377745,-0.0527999999999987));
#911=CARTESIAN_POINT('',(-0.0244893351106938,0.00354095170996777,-0.0528));
#912=CARTESIAN_POINT('',(-0.0244171663270593,0.00361115864706705,-0.0528));
#913=CARTESIAN_POINT('',(-0.0243089131516482,0.00373687325148085,-0.0528));
#914=CARTESIAN_POINT('',(-0.0242728287598516,0.00378221929413363,-0.0528));
#915=CARTESIAN_POINT('',(-0.0242006599762854,0.00388257340227487,-0.0528));
#916=CARTESIAN_POINT('',(-0.0241645755845154,0.00393749999953525,-0.0528));
#917=CARTESIAN_POINT('',(-0.02412849119277,0.003999999999397,-0.0528));
#918=CARTESIAN_POINT('',(-0.02759259280756,0.004,-0.0528));
#919=CARTESIAN_POINT('',(-0.02412849119277,0.0039999999996985,-0.0528));
#920=CARTESIAN_POINT('',(-0.025860542,0.005,-0.0528));
#921=CARTESIAN_POINT('',(-0.03,0.01,-0.0528));
#922=CARTESIAN_POINT('',(-0.025860542,0.005,-0.0528));
#923=CARTESIAN_POINT('',(-0.01083944328752,0.005,-0.0528));
#924=CARTESIAN_POINT('',(0.010839443287525,0.005,-0.0528));
#925=CARTESIAN_POINT('',(0.025860542,0.005,-0.0528));
#926=CARTESIAN_POINT('',(0.03,0.01,-0.0528));
#927=CARTESIAN_POINT('',(0.03,0.01,-0.0528));
#928=CARTESIAN_POINT('',(-0.03,0.01,-0.0528));
#929=CARTESIAN_POINT('',(-0.03,0.01,-0.0528));
#930=CARTESIAN_POINT('',(-0.03,0.01,-0.0528));
#931=CARTESIAN_POINT('',(0.03,0.005,-0.0578));
#932=CARTESIAN_POINT('',(0.03,-1.127986593019E-17,-0.0528));
#933=CARTESIAN_POINT('',(0.03,-1.376294973165E-17,-0.0628));
#934=CARTESIAN_POINT('',(0.03,-1.350031197944E-17,-0.0628));
#935=CARTESIAN_POINT('',(0.03,0.01,-0.0628));
#936=CARTESIAN_POINT('',(0.03,0.01,-0.0628));
#937=CARTESIAN_POINT('',(-0.031437522,-1.394440118929E-17,-0.0628));
#938=CARTESIAN_POINT('',(-0.031437522,-1.376294973165E-17,-0.0628));
#939=CARTESIAN_POINT('',(-0.03,-1.38777878078145E-17,-0.0628));
#940=CARTESIAN_POINT('',(-0.03,-1.7763568394E-19,-0.0628));
#941=CARTESIAN_POINT('',(-0.03,0.01,-0.0628));
#942=CARTESIAN_POINT('',(-0.03,0.01,-0.0628));
#943=CARTESIAN_POINT('',(-0.03,0.005,-0.0578));
#944=CARTESIAN_POINT('',(-0.03,-5.56461424253E-18,-0.02486079462911));
#945=CARTESIAN_POINT('',(-0.03,0.01,-0.0628));
#946=CARTESIAN_POINT('',(-0.025860542,0.005,-0.0478));
#947=CARTESIAN_POINT('',(-0.01083944328752,0.005,-0.0478));
#948=CARTESIAN_POINT('',(0.010839443287525,0.005,-0.0478));
#949=CARTESIAN_POINT('',(0.025860542,0.005,-0.0478));
#950=CARTESIAN_POINT('',(0.,0.,-0.0578));
#951=CARTESIAN_POINT('',(0.,0.01,-0.0578));
#952=CARTESIAN_POINT('',(-0.013350723311305,-0.0761075492799282,-0.00882290409885846));
#953=CARTESIAN_POINT('',(-0.031437522,-1.394440118929E-17,-0.0628));
#954=CARTESIAN_POINT('',(-0.031437522,-1.394440118929E-17,-0.0628));
#955=CARTESIAN_POINT('',(-0.0314375220000049,-1.39444011892927E-17,-0.0628));
#956=CARTESIAN_POINT('',(0.032537522000008,-1.39444011892927E-17,-0.0628));
#957=CARTESIAN_POINT('',(0.032537522000005,-1.394440118929E-17,-0.0628));
#958=CARTESIAN_POINT('',(0.032537522000008,-0.007,-0.0628));
#959=CARTESIAN_POINT('',(-0.031437522,-0.007,-0.0628));
#960=CARTESIAN_POINT('',(-0.0314375220000049,-0.007,-0.0628));
#961=CARTESIAN_POINT('',(-0.031437522,-1.394440118929E-17,-0.0628));
#962=CARTESIAN_POINT('',(0.00055,0.0195,0.018208195983303));
#963=CARTESIAN_POINT('',(0.00055,0.0195,0.018208195983303));
#964=CARTESIAN_POINT('',(0.0117,0.0195,0.018208195983303));
#965=CARTESIAN_POINT('',(0.00055,0.0265,0.018208195983303));
#966=CARTESIAN_POINT('',(0.0117,0.0265,0.018208195983303));
#967=CARTESIAN_POINT('',(0.00055,-4.04303168351E-18,0.018208195983303));
#968=CARTESIAN_POINT('',(0.00055,0.004,0.018208195983303));
#969=CARTESIAN_POINT('',(0.0157,0.004,0.018208195983303));
#970=CARTESIAN_POINT('',(0.00055,0.0265,0.018208195983303));
#971=CARTESIAN_POINT('',(0.0157,0.0265,0.018208195983303));
#972=CARTESIAN_POINT('',(0.000532022784451,-1.376294973165E-17,0.06198281528296));
#973=CARTESIAN_POINT('',(0.020700709234632,1.729899024028E-17,0.077907726000001));
#974=CARTESIAN_POINT('',(0.0255459468769571,3.46944695195361E-18,0.0203109401003948));
#975=CARTESIAN_POINT('',(-0.01960070923463,1.729899024028E-17,0.077907726000001));
#976=CARTESIAN_POINT('',(-0.0244459468769571,3.46944695195361E-18,0.0203109401003948));
#977=CARTESIAN_POINT('',(0.000549999999999849,-1.38777878078145E-17,0.018208195983303));
#978=CARTESIAN_POINT('',(0.00055,-4.04303168351E-18,0.018208195983303));
#979=CARTESIAN_POINT('',(0.0197,-4.04303168351E-18,0.018208195983303));
#980=CARTESIAN_POINT('',(0.00047821888412,0.0195,0.042250947690864));
#981=CARTESIAN_POINT('',(0.00055,0.0195,0.018208195983303));
#982=CARTESIAN_POINT('',(0.0097,0.0195,0.018208195983303));
#983=CARTESIAN_POINT('',(0.00055,-4.04303168351E-18,0.018208195983303));
#984=CARTESIAN_POINT('',(0.00055,-4.04303168351E-18,0.018208195983303));
#985=CARTESIAN_POINT('',(0.0097,-4.04303168351E-18,0.018208195983303));
#986=CARTESIAN_POINT('',(0.000532022784451,-1.376294973165E-17,0.06198281528296));
#987=CARTESIAN_POINT('',(0.00055,-4.04303168351E-18,0.018208195983303));
#988=CARTESIAN_POINT('',(0.0117,-4.04303168351E-18,0.018208195983303));
#989=CARTESIAN_POINT('',(0.00055,0.0195,0.018208195983303));
#990=CARTESIAN_POINT('',(0.00055,-0.007,0.018208195983303));
#991=CARTESIAN_POINT('',(0.0117,-0.007,0.018208195983303));
#992=CARTESIAN_POINT('',(0.000532022784451,-0.007,0.06198281528296));
#993=CARTESIAN_POINT('',(0.020700709234632,-0.007,0.077907726000001));
#994=CARTESIAN_POINT('',(0.0255459468769571,-0.007,0.0203109401003948));
#995=CARTESIAN_POINT('',(0.000549999999999849,-0.007,0.018208195983303));
#996=CARTESIAN_POINT('',(-0.0244459468769571,-0.007,0.0203109401003948));
#997=CARTESIAN_POINT('',(-0.01960070923463,-0.007,0.077907726000001));
#998=CARTESIAN_POINT('',(0.00055,0.004,0.018208195983303));
#999=CARTESIAN_POINT('',(0.000549999999999849,0.018,0.018208195983303));
#1000=CARTESIAN_POINT('',(-0.0244459468769571,0.018,0.0203109401003948));
#1001=CARTESIAN_POINT('',(0.0255459468769571,0.018,0.0203109401003948));
#1002=CARTESIAN_POINT('',(0.000477964426877,0.0265,0.042336176963653));
#1003=CARTESIAN_POINT('',(0.020700709234632,1.729899024028E-17,0.077907726000001));
#1004=CARTESIAN_POINT('',(-0.01960070923463,1.729899024028E-17,0.077907726000001));
#1005=CARTESIAN_POINT('',(-0.0139007233113065,-0.0761075492799282,-0.00882290409885846));
#1006=MECHANICAL_DESIGN_GEOMETRIC_PRESENTATION_REPRESENTATION('',(#498,
#499),#1007);
#1007=(
GEOMETRIC_REPRESENTATION_CONTEXT(3)
GLOBAL_UNCERTAINTY_ASSIGNED_CONTEXT((#1010))
GLOBAL_UNIT_ASSIGNED_CONTEXT((#1015,#1014,#1013))
REPRESENTATION_CONTEXT('Full Short Body','TOP_LEVEL_ASSEMBLY_PART')
);
#1008=(
GEOMETRIC_REPRESENTATION_CONTEXT(3)
GLOBAL_UNCERTAINTY_ASSIGNED_CONTEXT((#1011))
GLOBAL_UNIT_ASSIGNED_CONTEXT((#1015,#1014,#1013))
REPRESENTATION_CONTEXT('Part 1','COMPONENT_PART')
);
#1009=(
GEOMETRIC_REPRESENTATION_CONTEXT(3)
GLOBAL_UNCERTAINTY_ASSIGNED_CONTEXT((#1012))
GLOBAL_UNIT_ASSIGNED_CONTEXT((#1015,#1014,#1013))
REPRESENTATION_CONTEXT('V2','COMPONENT_PART')
);
#1010=UNCERTAINTY_MEASURE_WITH_UNIT(LENGTH_MEASURE(1.E-8),#1015,
'DISTANCE_ACCURACY_VALUE','Maximum Tolerance applied to model');
#1011=UNCERTAINTY_MEASURE_WITH_UNIT(LENGTH_MEASURE(2.E-5),#1015,
'DISTANCE_ACCURACY_VALUE','Maximum Tolerance applied to model');
#1012=UNCERTAINTY_MEASURE_WITH_UNIT(LENGTH_MEASURE(1.E-8),#1015,
'DISTANCE_ACCURACY_VALUE','Maximum Tolerance applied to model');
#1013=(
NAMED_UNIT(*)
SI_UNIT($,.STERADIAN.)
SOLID_ANGLE_UNIT()
);
#1014=(
NAMED_UNIT(*)
PLANE_ANGLE_UNIT()
SI_UNIT($,.RADIAN.)
);
#1015=(
LENGTH_UNIT()
NAMED_UNIT(*)
SI_UNIT($,.METRE.)
);
#1016=PRODUCT_DEFINITION_SHAPE('','',#1021);
#1017=PRODUCT_DEFINITION_SHAPE('','',#1022);
#1018=PRODUCT_DEFINITION_SHAPE(' ','NAUO PRDDFN',#13);
#1019=PRODUCT_DEFINITION_SHAPE('','',#1023);
#1020=PRODUCT_DEFINITION_SHAPE(' ','NAUO PRDDFN',#14);
#1021=PRODUCT_DEFINITION('','',#1027,#1024);
#1022=PRODUCT_DEFINITION('','',#1028,#1025);
#1023=PRODUCT_DEFINITION('','',#1029,#1026);
#1024=PRODUCT_DEFINITION_CONTEXT('',#1043,'design');
#1025=PRODUCT_DEFINITION_CONTEXT('',#1043,'design');
#1026=PRODUCT_DEFINITION_CONTEXT('',#1043,'design');
#1027=PRODUCT_DEFINITION_FORMATION_WITH_SPECIFIED_SOURCE('','',#1033,
 .NOT_KNOWN.);
#1028=PRODUCT_DEFINITION_FORMATION_WITH_SPECIFIED_SOURCE('','',#1034,
 .NOT_KNOWN.);
#1029=PRODUCT_DEFINITION_FORMATION_WITH_SPECIFIED_SOURCE('','',#1035,
 .NOT_KNOWN.);
#1030=PRODUCT_RELATED_PRODUCT_CATEGORY('','',(#1033));
#1031=PRODUCT_RELATED_PRODUCT_CATEGORY('','',(#1034));
#1032=PRODUCT_RELATED_PRODUCT_CATEGORY('','',(#1035));
#1033=PRODUCT('Full Short Body','Full Short Body','Full Short Body',(#1039));
#1034=PRODUCT('Part 1','Part 1','Part 1',(#1040));
#1035=PRODUCT('V2','V2','V2',(#1041));
#1036=PRODUCT_CATEGORY('','');
#1037=PRODUCT_CATEGORY('','');
#1038=PRODUCT_CATEGORY('','');
#1039=PRODUCT_CONTEXT('',#1043,'mechanical');
#1040=PRODUCT_CONTEXT('',#1043,'mechanical');
#1041=PRODUCT_CONTEXT('',#1043,'mechanical');
#1042=APPLICATION_PROTOCOL_DEFINITION('international standard',
'ap242_managed_model_based_3d_engineering',2020,#1043);
#1043=APPLICATION_CONTEXT('managed model based 3d engineering');
ENDSEC;
END-ISO-10303-21;
