ISO-10303-21;
HEADER;
/* Generated by software containing ST-Developer
 * from STEP Tools, Inc. (www.steptools.com) 
 */
/* OPTION: using custom renumber hook */

FILE_DESCRIPTION(
/* description */ ('STEP AP242 Edition 2',
'CAx-IF Rec.Pracs.---Representation and Presentation of Product Manufa
cturing Information (PMI)---4.0---2014-10-13',
'CAx-IF Rec.Pracs.---3D Tessellated Geometry---0.4---2014-09-14','2;1',
'CAx-IF Rec.Pracs.---User Defined Attributes---1.5---2016-08-15'),
/* implementation_level */ '2;1');

FILE_NAME(
/* name */ '6a42e53a3a49f9c46f698c34',
/* time_stamp */ '2026-06-29T21:35:54Z',
/* author */ (''),
/* organization */ (''),
/* preprocessor_version */ 'ST-DEVELOPER v20',
/* originating_system */ 'ONSHAPE BY PTC INC, 1.217',
/* authorisation */ '  ');

FILE_SCHEMA (('AP242_MANAGED_MODEL_BASED_3D_ENGINEERING_MIM_LF { 1 0 10303 442 3 1 4 }'));
ENDSEC;

DATA;
#10=TOROIDAL_SURFACE('',#916,0.01915,0.004);
#11=CONTEXT_DEPENDENT_SHAPE_REPRESENTATION(#15,#1564);
#12=CONTEXT_DEPENDENT_SHAPE_REPRESENTATION(#16,#1566);
#13=NEXT_ASSEMBLY_USAGE_OCCURRENCE('NAUO1','Part 1','Part 1',#1567,#1568,
'');
#14=NEXT_ASSEMBLY_USAGE_OCCURRENCE('NAUO2','V2','V2',#1567,#1569,'');
#15=(
REPRESENTATION_RELATIONSHIP(' ',' ',#853,#852)
REPRESENTATION_RELATIONSHIP_WITH_TRANSFORMATION(#17)
SHAPE_REPRESENTATION_RELATIONSHIP()
);
#16=(
REPRESENTATION_RELATIONSHIP(' ',' ',#854,#852)
REPRESENTATION_RELATIONSHIP_WITH_TRANSFORMATION(#18)
SHAPE_REPRESENTATION_RELATIONSHIP()
);
#17=ITEM_DEFINED_TRANSFORMATION(' ',' ',#855,#885);
#18=ITEM_DEFINED_TRANSFORMATION(' ',' ',#855,#941);
#19=SHAPE_REPRESENTATION_RELATIONSHIP('','',#853,#21);
#20=SHAPE_REPRESENTATION_RELATIONSHIP('','',#854,#22);
#21=ADVANCED_BREP_SHAPE_REPRESENTATION('',(#847),#1554);
#22=ADVANCED_BREP_SHAPE_REPRESENTATION('',(#848),#1555);
#23=PLANE('',#871);
#24=PLANE('',#876);
#25=PLANE('',#877);
#26=PLANE('',#878);
#27=PLANE('',#883);
#28=PLANE('',#884);
#29=PLANE('',#886);
#30=PLANE('',#887);
#31=PLANE('',#888);
#32=PLANE('',#889);
#33=PLANE('',#903);
#34=PLANE('',#907);
#35=PLANE('',#911);
#36=PLANE('',#920);
#37=PLANE('',#923);
#38=PLANE('',#930);
#39=PLANE('',#931);
#40=PLANE('',#932);
#41=PLANE('',#933);
#42=PLANE('',#934);
#43=PLANE('',#935);
#44=PLANE('',#936);
#45=PLANE('',#937);
#46=PLANE('',#938);
#47=PLANE('',#939);
#48=PLANE('',#940);
#49=CIRCLE('',#857,0.004);
#50=CIRCLE('',#858,0.004);
#51=CIRCLE('',#860,0.002);
#52=CIRCLE('',#861,0.002);
#53=CIRCLE('',#863,0.002);
#54=CIRCLE('',#864,0.002);
#55=CIRCLE('',#866,0.002);
#56=CIRCLE('',#867,0.002);
#57=CIRCLE('',#869,0.002);
#58=CIRCLE('',#870,0.002);
#59=CIRCLE('',#872,0.00395);
#60=CIRCLE('',#873,0.00395);
#61=CIRCLE('',#874,0.00395);
#62=CIRCLE('',#875,0.00395);
#63=CIRCLE('',#890,0.01915);
#64=CIRCLE('',#891,0.01115);
#65=CIRCLE('',#892,0.01515);
#66=CIRCLE('',#893,0.020150709234632);
#67=CIRCLE('',#895,0.01115);
#68=CIRCLE('',#896,0.01115);
#69=CIRCLE('',#898,0.01515);
#70=CIRCLE('',#899,0.01515);
#71=CIRCLE('',#901,0.00625);
#72=CIRCLE('',#902,0.00625);
#73=CIRCLE('',#904,0.00915);
#74=CIRCLE('',#906,0.00915);
#75=CIRCLE('',#908,0.01115);
#76=CIRCLE('',#910,0.01115);
#77=CIRCLE('',#912,0.01115);
#78=CIRCLE('',#913,0.002);
#79=CIRCLE('',#914,0.002);
#80=CIRCLE('',#915,0.020150709234632);
#81=CIRCLE('',#919,0.01115);
#82=CIRCLE('',#921,0.01115);
#83=CIRCLE('',#925,0.002);
#84=CIRCLE('',#927,0.002);
#85=CIRCLE('',#929,0.01515);
#86=LINE('',#1187,#143);
#87=LINE('',#1191,#144);
#88=LINE('',#1195,#145);
#89=LINE('',#1208,#146);
#90=LINE('',#1221,#147);
#91=LINE('',#1234,#148);
#92=LINE('',#1380,#149);
#93=LINE('',#1382,#150);
#94=LINE('',#1384,#151);
#95=LINE('',#1386,#152);
#96=LINE('',#1388,#153);
#97=LINE('',#1390,#154);
#98=LINE('',#1392,#155);
#99=LINE('',#1394,#156);
#100=LINE('',#1396,#157);
#101=LINE('',#1398,#158);
#102=LINE('',#1399,#159);
#103=LINE('',#1408,#160);
#104=LINE('',#1411,#161);
#105=LINE('',#1413,#162);
#106=LINE('',#1415,#163);
#107=LINE('',#1417,#164);
#108=LINE('',#1420,#165);
#109=LINE('',#1422,#166);
#110=LINE('',#1424,#167);
#111=LINE('',#1426,#168);
#112=LINE('',#1429,#169);
#113=LINE('',#1431,#170);
#114=LINE('',#1433,#171);
#115=LINE('',#1441,#172);
#116=LINE('',#1443,#173);
#117=LINE('',#1445,#174);
#118=LINE('',#1447,#175);
#119=LINE('',#1449,#176);
#120=LINE('',#1451,#177);
#121=LINE('',#1453,#178);
#122=LINE('',#1455,#179);
#123=LINE('',#1457,#180);
#124=LINE('',#1459,#181);
#125=LINE('',#1494,#182);
#126=LINE('',#1496,#183);
#127=LINE('',#1518,#184);
#128=LINE('',#1520,#185);
#129=LINE('',#1522,#186);
#130=LINE('',#1524,#187);
#131=LINE('',#1526,#188);
#132=LINE('',#1528,#189);
#133=LINE('',#1530,#190);
#134=LINE('',#1532,#191);
#135=LINE('',#1534,#192);
#136=LINE('',#1536,#193);
#137=LINE('',#1538,#194);
#138=LINE('',#1541,#195);
#139=LINE('',#1543,#196);
#140=LINE('',#1545,#197);
#141=LINE('',#1547,#198);
#142=LINE('',#1549,#199);
#143=VECTOR('',#946,1.);
#144=VECTOR('',#949,1.);
#145=VECTOR('',#952,1.);
#146=VECTOR('',#953,1.);
#147=VECTOR('',#954,1.);
#148=VECTOR('',#955,1.);
#149=VECTOR('',#990,1.);
#150=VECTOR('',#991,1.);
#151=VECTOR('',#992,1.);
#152=VECTOR('',#995,1.);
#153=VECTOR('',#996,1.);
#154=VECTOR('',#997,1.);
#155=VECTOR('',#1000,1.);
#156=VECTOR('',#1001,1.);
#157=VECTOR('',#1002,1.);
#158=VECTOR('',#1005,1.);
#159=VECTOR('',#1006,1.);
#160=VECTOR('',#1023,1.);
#161=VECTOR('',#1024,1.);
#162=VECTOR('',#1025,1.);
#163=VECTOR('',#1026,1.);
#164=VECTOR('',#1029,1.);
#165=VECTOR('',#1030,1.);
#166=VECTOR('',#1031,1.);
#167=VECTOR('',#1032,1.);
#168=VECTOR('',#1035,1.);
#169=VECTOR('',#1036,1.);
#170=VECTOR('',#1037,1.);
#171=VECTOR('',#1038,1.);
#172=VECTOR('',#1047,1.);
#173=VECTOR('',#1048,1.);
#174=VECTOR('',#1049,1.);
#175=VECTOR('',#1050,1.);
#176=VECTOR('',#1051,1.);
#177=VECTOR('',#1052,1.);
#178=VECTOR('',#1055,1.);
#179=VECTOR('',#1056,1.);
#180=VECTOR('',#1057,1.);
#181=VECTOR('',#1058,1.);
#182=VECTOR('',#1101,1.);
#183=VECTOR('',#1104,1.);
#184=VECTOR('',#1137,1.);
#185=VECTOR('',#1138,1.);
#186=VECTOR('',#1139,1.);
#187=VECTOR('',#1142,1.);
#188=VECTOR('',#1143,1.);
#189=VECTOR('',#1144,1.);
#190=VECTOR('',#1147,1.);
#191=VECTOR('',#1148,1.);
#192=VECTOR('',#1151,1.);
#193=VECTOR('',#1152,1.);
#194=VECTOR('',#1155,1.);
#195=VECTOR('',#1160,1.);
#196=VECTOR('',#1161,1.);
#197=VECTOR('',#1164,1.);
#198=VECTOR('',#1165,1.);
#199=VECTOR('',#1168,1.);
#200=ORIENTED_EDGE('',*,*,#404,.F.);
#201=ORIENTED_EDGE('',*,*,#405,.F.);
#202=ORIENTED_EDGE('',*,*,#406,.F.);
#203=ORIENTED_EDGE('',*,*,#407,.T.);
#204=ORIENTED_EDGE('',*,*,#408,.T.);
#205=ORIENTED_EDGE('',*,*,#409,.F.);
#206=ORIENTED_EDGE('',*,*,#410,.F.);
#207=ORIENTED_EDGE('',*,*,#411,.F.);
#208=ORIENTED_EDGE('',*,*,#412,.F.);
#209=ORIENTED_EDGE('',*,*,#413,.F.);
#210=ORIENTED_EDGE('',*,*,#414,.F.);
#211=ORIENTED_EDGE('',*,*,#415,.F.);
#212=ORIENTED_EDGE('',*,*,#416,.F.);
#213=ORIENTED_EDGE('',*,*,#417,.T.);
#214=ORIENTED_EDGE('',*,*,#418,.T.);
#215=ORIENTED_EDGE('',*,*,#419,.F.);
#216=ORIENTED_EDGE('',*,*,#420,.T.);
#217=ORIENTED_EDGE('',*,*,#421,.T.);
#218=ORIENTED_EDGE('',*,*,#422,.F.);
#219=ORIENTED_EDGE('',*,*,#423,.T.);
#220=ORIENTED_EDGE('',*,*,#424,.T.);
#221=ORIENTED_EDGE('',*,*,#425,.F.);
#222=ORIENTED_EDGE('',*,*,#426,.T.);
#223=ORIENTED_EDGE('',*,*,#427,.T.);
#224=ORIENTED_EDGE('',*,*,#426,.F.);
#225=ORIENTED_EDGE('',*,*,#427,.F.);
#226=ORIENTED_EDGE('',*,*,#423,.F.);
#227=ORIENTED_EDGE('',*,*,#424,.F.);
#228=ORIENTED_EDGE('',*,*,#420,.F.);
#229=ORIENTED_EDGE('',*,*,#421,.F.);
#230=ORIENTED_EDGE('',*,*,#417,.F.);
#231=ORIENTED_EDGE('',*,*,#418,.F.);
#232=ORIENTED_EDGE('',*,*,#405,.T.);
#233=ORIENTED_EDGE('',*,*,#428,.T.);
#234=ORIENTED_EDGE('',*,*,#415,.T.);
#235=ORIENTED_EDGE('',*,*,#429,.T.);
#236=ORIENTED_EDGE('',*,*,#413,.T.);
#237=ORIENTED_EDGE('',*,*,#430,.T.);
#238=ORIENTED_EDGE('',*,*,#411,.T.);
#239=ORIENTED_EDGE('',*,*,#431,.T.);
#240=ORIENTED_EDGE('',*,*,#409,.T.);
#241=ORIENTED_EDGE('',*,*,#432,.F.);
#242=ORIENTED_EDGE('',*,*,#433,.F.);
#243=ORIENTED_EDGE('',*,*,#434,.T.);
#244=ORIENTED_EDGE('',*,*,#432,.T.);
#245=ORIENTED_EDGE('',*,*,#408,.F.);
#246=ORIENTED_EDGE('',*,*,#435,.T.);
#247=ORIENTED_EDGE('',*,*,#436,.T.);
#248=ORIENTED_EDGE('',*,*,#437,.T.);
#249=ORIENTED_EDGE('',*,*,#436,.F.);
#250=ORIENTED_EDGE('',*,*,#438,.T.);
#251=ORIENTED_EDGE('',*,*,#439,.T.);
#252=ORIENTED_EDGE('',*,*,#440,.T.);
#253=ORIENTED_EDGE('',*,*,#425,.T.);
#254=ORIENTED_EDGE('',*,*,#422,.T.);
#255=ORIENTED_EDGE('',*,*,#419,.T.);
#256=ORIENTED_EDGE('',*,*,#416,.T.);
#257=ORIENTED_EDGE('',*,*,#441,.T.);
#258=ORIENTED_EDGE('',*,*,#406,.T.);
#259=ORIENTED_EDGE('',*,*,#434,.F.);
#260=ORIENTED_EDGE('',*,*,#442,.F.);
#261=ORIENTED_EDGE('',*,*,#439,.F.);
#262=ORIENTED_EDGE('',*,*,#404,.T.);
#263=ORIENTED_EDGE('',*,*,#428,.F.);
#264=ORIENTED_EDGE('',*,*,#414,.T.);
#265=ORIENTED_EDGE('',*,*,#429,.F.);
#266=ORIENTED_EDGE('',*,*,#412,.T.);
#267=ORIENTED_EDGE('',*,*,#430,.F.);
#268=ORIENTED_EDGE('',*,*,#410,.T.);
#269=ORIENTED_EDGE('',*,*,#431,.F.);
#270=ORIENTED_EDGE('',*,*,#438,.F.);
#271=ORIENTED_EDGE('',*,*,#435,.F.);
#272=ORIENTED_EDGE('',*,*,#407,.F.);
#273=ORIENTED_EDGE('',*,*,#441,.F.);
#274=ORIENTED_EDGE('',*,*,#442,.T.);
#275=ORIENTED_EDGE('',*,*,#433,.T.);
#276=ORIENTED_EDGE('',*,*,#437,.F.);
#277=ORIENTED_EDGE('',*,*,#440,.F.);
#278=ORIENTED_EDGE('',*,*,#443,.T.);
#279=ORIENTED_EDGE('',*,*,#444,.T.);
#280=ORIENTED_EDGE('',*,*,#445,.F.);
#281=ORIENTED_EDGE('',*,*,#446,.F.);
#282=ORIENTED_EDGE('',*,*,#447,.T.);
#283=ORIENTED_EDGE('',*,*,#448,.T.);
#284=ORIENTED_EDGE('',*,*,#449,.F.);
#285=ORIENTED_EDGE('',*,*,#450,.F.);
#286=ORIENTED_EDGE('',*,*,#451,.F.);
#287=ORIENTED_EDGE('',*,*,#452,.T.);
#288=ORIENTED_EDGE('',*,*,#453,.T.);
#289=ORIENTED_EDGE('',*,*,#454,.F.);
#290=ORIENTED_EDGE('',*,*,#455,.F.);
#291=ORIENTED_EDGE('',*,*,#456,.F.);
#292=ORIENTED_EDGE('',*,*,#457,.F.);
#293=ORIENTED_EDGE('',*,*,#458,.T.);
#294=ORIENTED_EDGE('',*,*,#443,.F.);
#295=ORIENTED_EDGE('',*,*,#459,.F.);
#296=ORIENTED_EDGE('',*,*,#460,.F.);
#297=ORIENTED_EDGE('',*,*,#461,.T.);
#298=ORIENTED_EDGE('',*,*,#462,.T.);
#299=ORIENTED_EDGE('',*,*,#463,.F.);
#300=ORIENTED_EDGE('',*,*,#447,.F.);
#301=ORIENTED_EDGE('',*,*,#464,.F.);
#302=ORIENTED_EDGE('',*,*,#452,.F.);
#303=ORIENTED_EDGE('',*,*,#465,.T.);
#304=ORIENTED_EDGE('',*,*,#466,.T.);
#305=ORIENTED_EDGE('',*,*,#467,.F.);
#306=ORIENTED_EDGE('',*,*,#468,.F.);
#307=ORIENTED_EDGE('',*,*,#469,.F.);
#308=ORIENTED_EDGE('',*,*,#470,.T.);
#309=ORIENTED_EDGE('',*,*,#471,.T.);
#310=ORIENTED_EDGE('',*,*,#472,.F.);
#311=ORIENTED_EDGE('',*,*,#473,.T.);
#312=ORIENTED_EDGE('',*,*,#474,.F.);
#313=ORIENTED_EDGE('',*,*,#475,.F.);
#314=ORIENTED_EDGE('',*,*,#469,.T.);
#315=ORIENTED_EDGE('',*,*,#475,.T.);
#316=ORIENTED_EDGE('',*,*,#476,.F.);
#317=ORIENTED_EDGE('',*,*,#476,.T.);
#318=ORIENTED_EDGE('',*,*,#477,.T.);
#319=ORIENTED_EDGE('',*,*,#478,.T.);
#320=ORIENTED_EDGE('',*,*,#477,.F.);
#321=ORIENTED_EDGE('',*,*,#473,.F.);
#322=ORIENTED_EDGE('',*,*,#479,.F.);
#323=ORIENTED_EDGE('',*,*,#478,.F.);
#324=ORIENTED_EDGE('',*,*,#480,.F.);
#325=ORIENTED_EDGE('',*,*,#481,.F.);
#326=ORIENTED_EDGE('',*,*,#482,.F.);
#327=ORIENTED_EDGE('',*,*,#454,.T.);
#328=ORIENTED_EDGE('',*,*,#483,.T.);
#329=ORIENTED_EDGE('',*,*,#449,.T.);
#330=ORIENTED_EDGE('',*,*,#484,.T.);
#331=ORIENTED_EDGE('',*,*,#445,.T.);
#332=ORIENTED_EDGE('',*,*,#471,.F.);
#333=ORIENTED_EDGE('',*,*,#455,.T.);
#334=ORIENTED_EDGE('',*,*,#464,.T.);
#335=ORIENTED_EDGE('',*,*,#450,.T.);
#336=ORIENTED_EDGE('',*,*,#483,.F.);
#337=ORIENTED_EDGE('',*,*,#453,.F.);
#338=ORIENTED_EDGE('',*,*,#479,.T.);
#339=ORIENTED_EDGE('',*,*,#485,.T.);
#340=ORIENTED_EDGE('',*,*,#486,.T.);
#341=ORIENTED_EDGE('',*,*,#474,.T.);
#342=ORIENTED_EDGE('',*,*,#486,.F.);
#343=ORIENTED_EDGE('',*,*,#456,.T.);
#344=ORIENTED_EDGE('',*,*,#470,.F.);
#345=ORIENTED_EDGE('',*,*,#472,.T.);
#346=ORIENTED_EDGE('',*,*,#481,.T.);
#347=ORIENTED_EDGE('',*,*,#487,.F.);
#348=ORIENTED_EDGE('',*,*,#480,.T.);
#349=ORIENTED_EDGE('',*,*,#488,.F.);
#350=ORIENTED_EDGE('',*,*,#489,.F.);
#351=ORIENTED_EDGE('',*,*,#457,.T.);
#352=ORIENTED_EDGE('',*,*,#485,.F.);
#353=ORIENTED_EDGE('',*,*,#489,.T.);
#354=ORIENTED_EDGE('',*,*,#482,.T.);
#355=ORIENTED_EDGE('',*,*,#444,.F.);
#356=ORIENTED_EDGE('',*,*,#458,.F.);
#357=ORIENTED_EDGE('',*,*,#490,.F.);
#358=ORIENTED_EDGE('',*,*,#491,.F.);
#359=ORIENTED_EDGE('',*,*,#492,.T.);
#360=ORIENTED_EDGE('',*,*,#465,.F.);
#361=ORIENTED_EDGE('',*,*,#451,.T.);
#362=ORIENTED_EDGE('',*,*,#463,.T.);
#363=ORIENTED_EDGE('',*,*,#493,.F.);
#364=ORIENTED_EDGE('',*,*,#494,.T.);
#365=ORIENTED_EDGE('',*,*,#495,.T.);
#366=ORIENTED_EDGE('',*,*,#459,.T.);
#367=ORIENTED_EDGE('',*,*,#446,.T.);
#368=ORIENTED_EDGE('',*,*,#484,.F.);
#369=ORIENTED_EDGE('',*,*,#448,.F.);
#370=ORIENTED_EDGE('',*,*,#462,.F.);
#371=ORIENTED_EDGE('',*,*,#496,.F.);
#372=ORIENTED_EDGE('',*,*,#497,.F.);
#373=ORIENTED_EDGE('',*,*,#493,.T.);
#374=ORIENTED_EDGE('',*,*,#498,.T.);
#375=ORIENTED_EDGE('',*,*,#460,.T.);
#376=ORIENTED_EDGE('',*,*,#495,.F.);
#377=ORIENTED_EDGE('',*,*,#499,.T.);
#378=ORIENTED_EDGE('',*,*,#461,.F.);
#379=ORIENTED_EDGE('',*,*,#498,.F.);
#380=ORIENTED_EDGE('',*,*,#500,.F.);
#381=ORIENTED_EDGE('',*,*,#496,.T.);
#382=ORIENTED_EDGE('',*,*,#497,.T.);
#383=ORIENTED_EDGE('',*,*,#500,.T.);
#384=ORIENTED_EDGE('',*,*,#499,.F.);
#385=ORIENTED_EDGE('',*,*,#494,.F.);
#386=ORIENTED_EDGE('',*,*,#487,.T.);
#387=ORIENTED_EDGE('',*,*,#466,.F.);
#388=ORIENTED_EDGE('',*,*,#492,.F.);
#389=ORIENTED_EDGE('',*,*,#501,.F.);
#390=ORIENTED_EDGE('',*,*,#502,.T.);
#391=ORIENTED_EDGE('',*,*,#490,.T.);
#392=ORIENTED_EDGE('',*,*,#468,.T.);
#393=ORIENTED_EDGE('',*,*,#503,.F.);
#394=ORIENTED_EDGE('',*,*,#504,.T.);
#395=ORIENTED_EDGE('',*,*,#503,.T.);
#396=ORIENTED_EDGE('',*,*,#467,.T.);
#397=ORIENTED_EDGE('',*,*,#502,.F.);
#398=ORIENTED_EDGE('',*,*,#505,.T.);
#399=ORIENTED_EDGE('',*,*,#501,.T.);
#400=ORIENTED_EDGE('',*,*,#491,.T.);
#401=ORIENTED_EDGE('',*,*,#504,.F.);
#402=ORIENTED_EDGE('',*,*,#505,.F.);
#403=ORIENTED_EDGE('',*,*,#488,.T.);
#404=EDGE_CURVE('',#506,#507,#585,.T.);
#405=EDGE_CURVE('',#508,#506,#86,.T.);
#406=EDGE_CURVE('',#509,#508,#49,.T.);
#407=EDGE_CURVE('',#509,#510,#87,.T.);
#408=EDGE_CURVE('',#510,#511,#50,.T.);
#409=EDGE_CURVE('',#512,#511,#88,.T.);
#410=EDGE_CURVE('',#513,#512,#586,.T.);
#411=EDGE_CURVE('',#514,#513,#89,.T.);
#412=EDGE_CURVE('',#515,#514,#587,.T.);
#413=EDGE_CURVE('',#516,#515,#90,.T.);
#414=EDGE_CURVE('',#517,#516,#588,.T.);
#415=EDGE_CURVE('',#507,#517,#91,.T.);
#416=EDGE_CURVE('',#518,#518,#51,.T.);
#417=EDGE_CURVE('',#519,#520,#589,.T.);
#418=EDGE_CURVE('',#520,#519,#52,.T.);
#419=EDGE_CURVE('',#521,#521,#53,.T.);
#420=EDGE_CURVE('',#522,#523,#590,.T.);
#421=EDGE_CURVE('',#523,#522,#54,.T.);
#422=EDGE_CURVE('',#524,#524,#55,.T.);
#423=EDGE_CURVE('',#525,#526,#591,.T.);
#424=EDGE_CURVE('',#526,#525,#56,.T.);
#425=EDGE_CURVE('',#527,#527,#57,.T.);
#426=EDGE_CURVE('',#528,#529,#592,.T.);
#427=EDGE_CURVE('',#529,#528,#58,.T.);
#428=EDGE_CURVE('',#506,#507,#59,.T.);
#429=EDGE_CURVE('',#517,#516,#60,.T.);
#430=EDGE_CURVE('',#515,#514,#61,.T.);
#431=EDGE_CURVE('',#513,#512,#62,.T.);
#432=EDGE_CURVE('',#530,#511,#92,.T.);
#433=EDGE_CURVE('',#531,#530,#93,.T.);
#434=EDGE_CURVE('',#531,#508,#94,.T.);
#435=EDGE_CURVE('',#510,#532,#95,.T.);
#436=EDGE_CURVE('',#532,#533,#96,.T.);
#437=EDGE_CURVE('',#533,#530,#97,.T.);
#438=EDGE_CURVE('',#532,#534,#98,.T.);
#439=EDGE_CURVE('',#534,#535,#99,.T.);
#440=EDGE_CURVE('',#535,#533,#100,.T.);
#441=EDGE_CURVE('',#534,#509,#101,.T.);
#442=EDGE_CURVE('',#535,#531,#102,.T.);
#443=EDGE_CURVE('',#536,#537,#103,.T.);
#444=EDGE_CURVE('',#537,#538,#104,.T.);
#445=EDGE_CURVE('',#539,#538,#105,.T.);
#446=EDGE_CURVE('',#536,#539,#106,.T.);
#447=EDGE_CURVE('',#540,#541,#107,.T.);
#448=EDGE_CURVE('',#541,#542,#108,.T.);
#449=EDGE_CURVE('',#543,#542,#109,.T.);
#450=EDGE_CURVE('',#540,#543,#110,.T.);
#451=EDGE_CURVE('',#544,#545,#111,.T.);
#452=EDGE_CURVE('',#544,#546,#112,.T.);
#453=EDGE_CURVE('',#546,#547,#113,.T.);
#454=EDGE_CURVE('',#545,#547,#114,.T.);
#455=EDGE_CURVE('',#548,#548,#63,.T.);
#456=EDGE_CURVE('',#549,#549,#64,.T.);
#457=EDGE_CURVE('',#550,#550,#65,.T.);
#458=EDGE_CURVE('',#551,#537,#115,.T.);
#459=EDGE_CURVE('',#552,#536,#116,.T.);
#460=EDGE_CURVE('',#553,#552,#117,.T.);
#461=EDGE_CURVE('',#553,#554,#118,.T.);
#462=EDGE_CURVE('',#554,#555,#119,.T.);
#463=EDGE_CURVE('',#541,#555,#120,.T.);
#464=EDGE_CURVE('',#546,#540,#66,.T.);
#465=EDGE_CURVE('',#544,#556,#121,.T.);
#466=EDGE_CURVE('',#556,#557,#122,.T.);
#467=EDGE_CURVE('',#558,#557,#123,.T.);
#468=EDGE_CURVE('',#551,#558,#124,.T.);
#469=EDGE_CURVE('',#559,#559,#67,.T.);
#470=EDGE_CURVE('',#560,#560,#68,.T.);
#471=EDGE_CURVE('',#561,#561,#69,.T.);
#472=EDGE_CURVE('',#562,#562,#70,.T.);
#473=EDGE_CURVE('',#563,#563,#71,.T.);
#474=EDGE_CURVE('',#564,#564,#72,.F.);
#475=EDGE_CURVE('',#565,#565,#73,.T.);
#476=EDGE_CURVE('',#566,#566,#74,.T.);
#477=EDGE_CURVE('',#567,#567,#75,.T.);
#478=EDGE_CURVE('',#568,#568,#76,.T.);
#479=EDGE_CURVE('',#569,#569,#77,.T.);
#480=EDGE_CURVE('',#570,#570,#78,.T.);
#481=EDGE_CURVE('',#571,#571,#79,.T.);
#482=EDGE_CURVE('',#545,#538,#125,.T.);
#483=EDGE_CURVE('',#547,#543,#80,.T.);
#484=EDGE_CURVE('',#542,#539,#126,.T.);
#485=EDGE_CURVE('',#572,#572,#81,.T.);
#486=EDGE_CURVE('',#573,#573,#82,.T.);
#487=EDGE_CURVE('',#574,#574,#83,.T.);
#488=EDGE_CURVE('',#575,#575,#84,.T.);
#489=EDGE_CURVE('',#576,#576,#85,.T.);
#490=EDGE_CURVE('',#577,#551,#127,.T.);
#491=EDGE_CURVE('',#578,#577,#128,.T.);
#492=EDGE_CURVE('',#578,#556,#129,.T.);
#493=EDGE_CURVE('',#579,#555,#130,.T.);
#494=EDGE_CURVE('',#579,#580,#131,.T.);
#495=EDGE_CURVE('',#580,#552,#132,.T.);
#496=EDGE_CURVE('',#581,#554,#133,.T.);
#497=EDGE_CURVE('',#579,#581,#134,.T.);
#498=EDGE_CURVE('',#582,#553,#135,.T.);
#499=EDGE_CURVE('',#580,#582,#136,.T.);
#500=EDGE_CURVE('',#581,#582,#137,.T.);
#501=EDGE_CURVE('',#583,#578,#138,.T.);
#502=EDGE_CURVE('',#583,#557,#139,.T.);
#503=EDGE_CURVE('',#584,#558,#140,.T.);
#504=EDGE_CURVE('',#584,#577,#141,.T.);
#505=EDGE_CURVE('',#583,#584,#142,.T.);
#506=VERTEX_POINT('',#1185);
#507=VERTEX_POINT('',#1186);
#508=VERTEX_POINT('',#1188);
#509=VERTEX_POINT('',#1190);
#510=VERTEX_POINT('',#1192);
#511=VERTEX_POINT('',#1194);
#512=VERTEX_POINT('',#1196);
#513=VERTEX_POINT('',#1207);
#514=VERTEX_POINT('',#1209);
#515=VERTEX_POINT('',#1220);
#516=VERTEX_POINT('',#1222);
#517=VERTEX_POINT('',#1233);
#518=VERTEX_POINT('',#1237);
#519=VERTEX_POINT('',#1267);
#520=VERTEX_POINT('',#1268);
#521=VERTEX_POINT('',#1272);
#522=VERTEX_POINT('',#1302);
#523=VERTEX_POINT('',#1303);
#524=VERTEX_POINT('',#1307);
#525=VERTEX_POINT('',#1337);
#526=VERTEX_POINT('',#1338);
#527=VERTEX_POINT('',#1342);
#528=VERTEX_POINT('',#1372);
#529=VERTEX_POINT('',#1373);
#530=VERTEX_POINT('',#1381);
#531=VERTEX_POINT('',#1383);
#532=VERTEX_POINT('',#1387);
#533=VERTEX_POINT('',#1389);
#534=VERTEX_POINT('',#1393);
#535=VERTEX_POINT('',#1395);
#536=VERTEX_POINT('',#1409);
#537=VERTEX_POINT('',#1410);
#538=VERTEX_POINT('',#1412);
#539=VERTEX_POINT('',#1414);
#540=VERTEX_POINT('',#1418);
#541=VERTEX_POINT('',#1419);
#542=VERTEX_POINT('',#1421);
#543=VERTEX_POINT('',#1423);
#544=VERTEX_POINT('',#1427);
#545=VERTEX_POINT('',#1428);
#546=VERTEX_POINT('',#1430);
#547=VERTEX_POINT('',#1432);
#548=VERTEX_POINT('',#1436);
#549=VERTEX_POINT('',#1438);
#550=VERTEX_POINT('',#1440);
#551=VERTEX_POINT('',#1442);
#552=VERTEX_POINT('',#1444);
#553=VERTEX_POINT('',#1446);
#554=VERTEX_POINT('',#1448);
#555=VERTEX_POINT('',#1450);
#556=VERTEX_POINT('',#1454);
#557=VERTEX_POINT('',#1456);
#558=VERTEX_POINT('',#1458);
#559=VERTEX_POINT('',#1462);
#560=VERTEX_POINT('',#1464);
#561=VERTEX_POINT('',#1467);
#562=VERTEX_POINT('',#1469);
#563=VERTEX_POINT('',#1472);
#564=VERTEX_POINT('',#1474);
#565=VERTEX_POINT('',#1477);
#566=VERTEX_POINT('',#1480);
#567=VERTEX_POINT('',#1483);
#568=VERTEX_POINT('',#1486);
#569=VERTEX_POINT('',#1489);
#570=VERTEX_POINT('',#1491);
#571=VERTEX_POINT('',#1493);
#572=VERTEX_POINT('',#1501);
#573=VERTEX_POINT('',#1504);
#574=VERTEX_POINT('',#1509);
#575=VERTEX_POINT('',#1512);
#576=VERTEX_POINT('',#1515);
#577=VERTEX_POINT('',#1519);
#578=VERTEX_POINT('',#1521);
#579=VERTEX_POINT('',#1525);
#580=VERTEX_POINT('',#1527);
#581=VERTEX_POINT('',#1531);
#582=VERTEX_POINT('',#1535);
#583=VERTEX_POINT('',#1542);
#584=VERTEX_POINT('',#1546);
#585=B_SPLINE_CURVE_WITH_KNOTS('',3,(#1175,#1176,#1177,#1178,#1179,#1180,
#1181,#1182,#1183,#1184),.UNSPECIFIED.,.F.,.F.,(4,1,1,1,1,1,1,4),(0.,0.00267335919902187,
0.0040100387985328,0.00534671839804373,0.00668339799755466,0.0080200775970656,
0.00935675719657653,0.0106934367960875),.UNSPECIFIED.);
#586=B_SPLINE_CURVE_WITH_KNOTS('',3,(#1197,#1198,#1199,#1200,#1201,#1202,
#1203,#1204,#1205,#1206),.UNSPECIFIED.,.F.,.F.,(4,1,1,1,1,1,1,4),(0.,0.00267335919902185,
0.00401003879853278,0.00534671839804371,0.00668339799755463,0.00802007759706556,
0.00935675719657648,0.0106934367960874),.UNSPECIFIED.);
#587=B_SPLINE_CURVE_WITH_KNOTS('',3,(#1210,#1211,#1212,#1213,#1214,#1215,
#1216,#1217,#1218,#1219),.UNSPECIFIED.,.F.,.F.,(4,1,1,1,1,1,1,4),(0.,0.00267335919902186,
0.00401003879853278,0.00534671839804371,0.00668339799755464,0.00802007759706557,
0.0093567571965765,0.0106934367960874),.UNSPECIFIED.);
#588=B_SPLINE_CURVE_WITH_KNOTS('',3,(#1223,#1224,#1225,#1226,#1227,#1228,
#1229,#1230,#1231,#1232),.UNSPECIFIED.,.F.,.F.,(4,1,1,1,1,1,1,4),(0.,0.00267335919902185,
0.00401003879853278,0.00534671839804371,0.00668339799755464,0.00802007759706556,
0.00935675719657649,0.0106934367960874),.UNSPECIFIED.);
#589=B_SPLINE_CURVE_WITH_KNOTS('',3,(#1238,#1239,#1240,#1241,#1242,#1243,
#1244,#1245,#1246,#1247,#1248,#1249,#1250,#1251,#1252,#1253,#1254,#1255,
#1256,#1257,#1258,#1259,#1260,#1261,#1262,#1263,#1264,#1265,#1266),
 .UNSPECIFIED.,.F.,.F.,(4,2,2,2,2,2,2,1,2,2,2,2,2,2,4),(54.128491192431,
54.2367443679041,54.3449975433771,54.5615038943233,54.7780102452694,54.9945165962155,
55.4275292981077,55.860542,56.2935547018923,56.7265674037845,56.9430737547306,
57.1595801056768,57.3760864566229,57.4843396320959,57.592592807569),
 .UNSPECIFIED.);
#590=B_SPLINE_CURVE_WITH_KNOTS('',3,(#1273,#1274,#1275,#1276,#1277,#1278,
#1279,#1280,#1281,#1282,#1283,#1284,#1285,#1286,#1287,#1288,#1289,#1290,
#1291,#1292,#1293,#1294,#1295,#1296,#1297,#1298,#1299,#1300,#1301),
 .UNSPECIFIED.,.F.,.F.,(4,2,2,2,2,2,2,1,2,2,2,2,2,2,4),(39.107392479957,
39.2156456554301,39.3238988309031,39.5404051818492,39.7569115327952,39.9734178837412,
40.4064305856334,40.8394432875255,41.2724559894176,41.7054686913098,41.9219750422558,
42.1384813932019,42.354987744148,42.463240919621,42.571494095094),
 .UNSPECIFIED.);
#591=B_SPLINE_CURVE_WITH_KNOTS('',3,(#1308,#1309,#1310,#1311,#1312,#1313,
#1314,#1315,#1316,#1317,#1318,#1319,#1320,#1321,#1322,#1323,#1324,#1325,
#1326,#1327,#1328,#1329,#1330,#1331,#1332,#1333,#1334,#1335,#1336),
 .UNSPECIFIED.,.F.,.F.,(4,2,2,2,2,2,2,1,2,2,2,2,2,2,4),(17.428505904906,
17.536759080379,17.6450122558521,17.8615186067981,18.0780249577442,18.2945313086902,
18.7275440105824,19.1605567124745,19.5935694143667,20.0265821162588,20.2430884672048,
20.4595948181509,20.676101169097,20.78435434457,20.892607520043),
 .UNSPECIFIED.);
#592=B_SPLINE_CURVE_WITH_KNOTS('',3,(#1343,#1344,#1345,#1346,#1347,#1348,
#1349,#1350,#1351,#1352,#1353,#1354,#1355,#1356,#1357,#1358,#1359,#1360,
#1361,#1362,#1363,#1364,#1365,#1366,#1367,#1368,#1369,#1370,#1371),
 .UNSPECIFIED.,.F.,.F.,(4,2,2,2,2,2,2,1,2,2,2,2,2,2,4),(2.407407192431,
2.51566036790406,2.62391354337713,2.84041989432325,3.05692624526938,3.2734325962155,
3.70644529810775,4.139458,4.57247070189225,5.0054834037845,5.22198975473062,
5.43849610567675,5.65500245662287,5.76325563209594,5.871508807569),
 .UNSPECIFIED.);
#593=EDGE_LOOP('',(#200,#201,#202,#203,#204,#205,#206,#207,#208,#209,#210,
#211));
#594=EDGE_LOOP('',(#212));
#595=EDGE_LOOP('',(#213,#214));
#596=EDGE_LOOP('',(#215));
#597=EDGE_LOOP('',(#216,#217));
#598=EDGE_LOOP('',(#218));
#599=EDGE_LOOP('',(#219,#220));
#600=EDGE_LOOP('',(#221));
#601=EDGE_LOOP('',(#222,#223));
#602=EDGE_LOOP('',(#224,#225));
#603=EDGE_LOOP('',(#226,#227));
#604=EDGE_LOOP('',(#228,#229));
#605=EDGE_LOOP('',(#230,#231));
#606=EDGE_LOOP('',(#232,#233,#234,#235,#236,#237,#238,#239,#240,#241,#242,
#243));
#607=EDGE_LOOP('',(#244,#245,#246,#247,#248));
#608=EDGE_LOOP('',(#249,#250,#251,#252));
#609=EDGE_LOOP('',(#253));
#610=EDGE_LOOP('',(#254));
#611=EDGE_LOOP('',(#255));
#612=EDGE_LOOP('',(#256));
#613=EDGE_LOOP('',(#257,#258,#259,#260,#261));
#614=EDGE_LOOP('',(#262,#263));
#615=EDGE_LOOP('',(#264,#265));
#616=EDGE_LOOP('',(#266,#267));
#617=EDGE_LOOP('',(#268,#269));
#618=EDGE_LOOP('',(#270,#271,#272,#273));
#619=EDGE_LOOP('',(#274,#275,#276,#277));
#620=EDGE_LOOP('',(#278,#279,#280,#281));
#621=EDGE_LOOP('',(#282,#283,#284,#285));
#622=EDGE_LOOP('',(#286,#287,#288,#289));
#623=EDGE_LOOP('',(#290));
#624=EDGE_LOOP('',(#291));
#625=EDGE_LOOP('',(#292));
#626=EDGE_LOOP('',(#293,#294,#295,#296,#297,#298,#299,#300,#301,#302,#303,
#304,#305,#306));
#627=EDGE_LOOP('',(#307));
#628=EDGE_LOOP('',(#308));
#629=EDGE_LOOP('',(#309));
#630=EDGE_LOOP('',(#310));
#631=EDGE_LOOP('',(#311));
#632=EDGE_LOOP('',(#312));
#633=EDGE_LOOP('',(#313));
#634=EDGE_LOOP('',(#314));
#635=EDGE_LOOP('',(#315));
#636=EDGE_LOOP('',(#316));
#637=EDGE_LOOP('',(#317));
#638=EDGE_LOOP('',(#318));
#639=EDGE_LOOP('',(#319));
#640=EDGE_LOOP('',(#320));
#641=EDGE_LOOP('',(#321));
#642=EDGE_LOOP('',(#322));
#643=EDGE_LOOP('',(#323));
#644=EDGE_LOOP('',(#324));
#645=EDGE_LOOP('',(#325));
#646=EDGE_LOOP('',(#326,#327,#328,#329,#330,#331));
#647=EDGE_LOOP('',(#332));
#648=EDGE_LOOP('',(#333));
#649=EDGE_LOOP('',(#334,#335,#336,#337));
#650=EDGE_LOOP('',(#338));
#651=EDGE_LOOP('',(#339));
#652=EDGE_LOOP('',(#340));
#653=EDGE_LOOP('',(#341));
#654=EDGE_LOOP('',(#342));
#655=EDGE_LOOP('',(#343));
#656=EDGE_LOOP('',(#344));
#657=EDGE_LOOP('',(#345));
#658=EDGE_LOOP('',(#346));
#659=EDGE_LOOP('',(#347));
#660=EDGE_LOOP('',(#348));
#661=EDGE_LOOP('',(#349));
#662=EDGE_LOOP('',(#350));
#663=EDGE_LOOP('',(#351));
#664=EDGE_LOOP('',(#352));
#665=EDGE_LOOP('',(#353));
#666=EDGE_LOOP('',(#354,#355,#356,#357,#358,#359,#360,#361));
#667=EDGE_LOOP('',(#362,#363,#364,#365,#366,#367,#368,#369));
#668=EDGE_LOOP('',(#370,#371,#372,#373));
#669=EDGE_LOOP('',(#374,#375,#376,#377));
#670=EDGE_LOOP('',(#378,#379,#380,#381));
#671=EDGE_LOOP('',(#382,#383,#384,#385));
#672=EDGE_LOOP('',(#386));
#673=EDGE_LOOP('',(#387,#388,#389,#390));
#674=EDGE_LOOP('',(#391,#392,#393,#394));
#675=EDGE_LOOP('',(#395,#396,#397,#398));
#676=EDGE_LOOP('',(#399,#400,#401,#402));
#677=EDGE_LOOP('',(#403));
#678=FACE_BOUND('',#593,.T.);
#679=FACE_BOUND('',#594,.T.);
#680=FACE_BOUND('',#595,.T.);
#681=FACE_BOUND('',#596,.T.);
#682=FACE_BOUND('',#597,.T.);
#683=FACE_BOUND('',#598,.T.);
#684=FACE_BOUND('',#599,.T.);
#685=FACE_BOUND('',#600,.T.);
#686=FACE_BOUND('',#601,.T.);
#687=FACE_BOUND('',#602,.T.);
#688=FACE_BOUND('',#603,.T.);
#689=FACE_BOUND('',#604,.T.);
#690=FACE_BOUND('',#605,.T.);
#691=FACE_BOUND('',#606,.T.);
#692=FACE_BOUND('',#607,.T.);
#693=FACE_BOUND('',#608,.T.);
#694=FACE_BOUND('',#609,.T.);
#695=FACE_BOUND('',#610,.T.);
#696=FACE_BOUND('',#611,.T.);
#697=FACE_BOUND('',#612,.T.);
#698=FACE_BOUND('',#613,.T.);
#699=FACE_BOUND('',#614,.T.);
#700=FACE_BOUND('',#615,.T.);
#701=FACE_BOUND('',#616,.T.);
#702=FACE_BOUND('',#617,.T.);
#703=FACE_BOUND('',#618,.T.);
#704=FACE_BOUND('',#619,.T.);
#705=FACE_BOUND('',#620,.T.);
#706=FACE_BOUND('',#621,.T.);
#707=FACE_BOUND('',#622,.T.);
#708=FACE_BOUND('',#623,.T.);
#709=FACE_BOUND('',#624,.T.);
#710=FACE_BOUND('',#625,.T.);
#711=FACE_BOUND('',#626,.T.);
#712=FACE_BOUND('',#627,.T.);
#713=FACE_BOUND('',#628,.T.);
#714=FACE_BOUND('',#629,.T.);
#715=FACE_BOUND('',#630,.T.);
#716=FACE_BOUND('',#631,.T.);
#717=FACE_BOUND('',#632,.T.);
#718=FACE_BOUND('',#633,.T.);
#719=FACE_BOUND('',#634,.T.);
#720=FACE_BOUND('',#635,.T.);
#721=FACE_BOUND('',#636,.T.);
#722=FACE_BOUND('',#637,.T.);
#723=FACE_BOUND('',#638,.T.);
#724=FACE_BOUND('',#639,.T.);
#725=FACE_BOUND('',#640,.T.);
#726=FACE_BOUND('',#641,.T.);
#727=FACE_BOUND('',#642,.T.);
#728=FACE_BOUND('',#643,.T.);
#729=FACE_BOUND('',#644,.T.);
#730=FACE_BOUND('',#645,.T.);
#731=FACE_BOUND('',#646,.T.);
#732=FACE_BOUND('',#647,.T.);
#733=FACE_BOUND('',#648,.T.);
#734=FACE_BOUND('',#649,.T.);
#735=FACE_BOUND('',#650,.T.);
#736=FACE_BOUND('',#651,.T.);
#737=FACE_BOUND('',#652,.T.);
#738=FACE_BOUND('',#653,.T.);
#739=FACE_BOUND('',#654,.T.);
#740=FACE_BOUND('',#655,.T.);
#741=FACE_BOUND('',#656,.T.);
#742=FACE_BOUND('',#657,.T.);
#743=FACE_BOUND('',#658,.T.);
#744=FACE_BOUND('',#659,.T.);
#745=FACE_BOUND('',#660,.T.);
#746=FACE_BOUND('',#661,.T.);
#747=FACE_BOUND('',#662,.T.);
#748=FACE_BOUND('',#663,.T.);
#749=FACE_BOUND('',#664,.T.);
#750=FACE_BOUND('',#665,.T.);
#751=FACE_BOUND('',#666,.T.);
#752=FACE_BOUND('',#667,.T.);
#753=FACE_BOUND('',#668,.T.);
#754=FACE_BOUND('',#669,.T.);
#755=FACE_BOUND('',#670,.T.);
#756=FACE_BOUND('',#671,.T.);
#757=FACE_BOUND('',#672,.T.);
#758=FACE_BOUND('',#673,.T.);
#759=FACE_BOUND('',#674,.T.);
#760=FACE_BOUND('',#675,.T.);
#761=FACE_BOUND('',#676,.T.);
#762=FACE_BOUND('',#677,.T.);
#763=CYLINDRICAL_SURFACE('',#856,0.004);
#764=CYLINDRICAL_SURFACE('',#859,0.002);
#765=CYLINDRICAL_SURFACE('',#862,0.002);
#766=CYLINDRICAL_SURFACE('',#865,0.002);
#767=CYLINDRICAL_SURFACE('',#868,0.002);
#768=CYLINDRICAL_SURFACE('',#879,0.00395);
#769=CYLINDRICAL_SURFACE('',#880,0.00395);
#770=CYLINDRICAL_SURFACE('',#881,0.00395);
#771=CYLINDRICAL_SURFACE('',#882,0.00395);
#772=CYLINDRICAL_SURFACE('',#894,0.01115);
#773=CYLINDRICAL_SURFACE('',#897,0.01515);
#774=CYLINDRICAL_SURFACE('',#900,0.00625);
#775=CYLINDRICAL_SURFACE('',#905,0.00915);
#776=CYLINDRICAL_SURFACE('',#909,0.01115);
#777=CYLINDRICAL_SURFACE('',#917,0.020150709234632);
#778=CYLINDRICAL_SURFACE('',#918,0.01115);
#779=CYLINDRICAL_SURFACE('',#922,0.01115);
#780=CYLINDRICAL_SURFACE('',#924,0.002);
#781=CYLINDRICAL_SURFACE('',#926,0.002);
#782=CYLINDRICAL_SURFACE('',#928,0.01515);
#783=ADVANCED_FACE('',(#678),#763,.F.);
#784=ADVANCED_FACE('',(#679,#680),#764,.F.);
#785=ADVANCED_FACE('',(#681,#682),#765,.F.);
#786=ADVANCED_FACE('',(#683,#684),#766,.F.);
#787=ADVANCED_FACE('',(#685,#686),#767,.F.);
#788=ADVANCED_FACE('',(#687,#688,#689,#690,#691),#23,.F.);
#789=ADVANCED_FACE('',(#692),#24,.T.);
#790=ADVANCED_FACE('',(#693,#694,#695,#696,#697),#25,.F.);
#791=ADVANCED_FACE('',(#698),#26,.F.);
#792=ADVANCED_FACE('',(#699),#768,.F.);
#793=ADVANCED_FACE('',(#700),#769,.F.);
#794=ADVANCED_FACE('',(#701),#770,.F.);
#795=ADVANCED_FACE('',(#702),#771,.F.);
#796=ADVANCED_FACE('',(#703),#27,.F.);
#797=ADVANCED_FACE('',(#704),#28,.T.);
#798=ADVANCED_FACE('',(#705),#29,.F.);
#799=ADVANCED_FACE('',(#706),#30,.F.);
#800=ADVANCED_FACE('',(#707),#31,.F.);
#801=ADVANCED_FACE('',(#708,#709,#710,#711),#32,.T.);
#802=ADVANCED_FACE('',(#712,#713),#772,.F.);
#803=ADVANCED_FACE('',(#714,#715),#773,.T.);
#804=ADVANCED_FACE('',(#716,#717),#774,.F.);
#805=ADVANCED_FACE('',(#718,#719),#33,.T.);
#806=ADVANCED_FACE('',(#720,#721),#775,.F.);
#807=ADVANCED_FACE('',(#722,#723),#34,.F.);
#808=ADVANCED_FACE('',(#724,#725),#776,.F.);
#809=ADVANCED_FACE('',(#726,#727,#728,#729,#730,#731),#35,.F.);
#810=ADVANCED_FACE('',(#732,#733),#10,.F.);
#811=ADVANCED_FACE('',(#734),#777,.T.);
#812=ADVANCED_FACE('',(#735,#736),#778,.F.);
#813=ADVANCED_FACE('',(#737,#738),#36,.T.);
#814=ADVANCED_FACE('',(#739,#740),#779,.F.);
#815=ADVANCED_FACE('',(#741,#742),#37,.T.);
#816=ADVANCED_FACE('',(#743,#744),#780,.F.);
#817=ADVANCED_FACE('',(#745,#746),#781,.F.);
#818=ADVANCED_FACE('',(#747,#748),#782,.T.);
#819=ADVANCED_FACE('',(#749,#750),#38,.T.);
#820=ADVANCED_FACE('',(#751),#39,.T.);
#821=ADVANCED_FACE('',(#752),#40,.F.);
#822=ADVANCED_FACE('',(#753),#41,.F.);
#823=ADVANCED_FACE('',(#754),#42,.T.);
#824=ADVANCED_FACE('',(#755),#43,.F.);
#825=ADVANCED_FACE('',(#756,#757),#44,.F.);
#826=ADVANCED_FACE('',(#758),#45,.F.);
#827=ADVANCED_FACE('',(#759),#46,.T.);
#828=ADVANCED_FACE('',(#760),#47,.T.);
#829=ADVANCED_FACE('',(#761,#762),#48,.F.);
#830=CLOSED_SHELL('',(#783,#784,#785,#786,#787,#788,#789,#790,#791,#792,
#793,#794,#795,#796,#797));
#831=CLOSED_SHELL('',(#798,#799,#800,#801,#802,#803,#804,#805,#806,#807,
#808,#809,#810,#811,#812,#813,#814,#815,#816,#817,#818,#819,#820,#821,#822,
#823,#824,#825,#826,#827,#828,#829));
#832=STYLED_ITEM('',(#834),#847);
#833=STYLED_ITEM('',(#835),#848);
#834=PRESENTATION_STYLE_ASSIGNMENT((#836));
#835=PRESENTATION_STYLE_ASSIGNMENT((#837));
#836=SURFACE_STYLE_USAGE(.BOTH.,#838);
#837=SURFACE_STYLE_USAGE(.BOTH.,#839);
#838=SURFACE_SIDE_STYLE('',(#840));
#839=SURFACE_SIDE_STYLE('',(#841));
#840=SURFACE_STYLE_FILL_AREA(#842);
#841=SURFACE_STYLE_FILL_AREA(#843);
#842=FILL_AREA_STYLE('',(#844));
#843=FILL_AREA_STYLE('',(#845));
#844=FILL_AREA_STYLE_COLOUR('',#846);
#845=FILL_AREA_STYLE_COLOUR('',#846);
#846=COLOUR_RGB('',0.615686274509804,0.811764705882353,0.929411764705882);
#847=MANIFOLD_SOLID_BREP('Part 1',#830);
#848=MANIFOLD_SOLID_BREP('V2',#831);
#849=SHAPE_DEFINITION_REPRESENTATION(#1562,#852);
#850=SHAPE_DEFINITION_REPRESENTATION(#1563,#853);
#851=SHAPE_DEFINITION_REPRESENTATION(#1565,#854);
#852=SHAPE_REPRESENTATION('Full Main Body',(#855,#885,#941),#1553);
#853=SHAPE_REPRESENTATION('Part 1',(#855),#1554);
#854=SHAPE_REPRESENTATION('V2',(#855),#1555);
#855=AXIS2_PLACEMENT_3D('',#1173,#942,#943);
#856=AXIS2_PLACEMENT_3D('',#1174,#944,#945);
#857=AXIS2_PLACEMENT_3D('',#1189,#947,#948);
#858=AXIS2_PLACEMENT_3D('',#1193,#950,#951);
#859=AXIS2_PLACEMENT_3D('',#1235,#956,#957);
#860=AXIS2_PLACEMENT_3D('',#1236,#958,#959);
#861=AXIS2_PLACEMENT_3D('',#1269,#960,#961);
#862=AXIS2_PLACEMENT_3D('',#1270,#962,#963);
#863=AXIS2_PLACEMENT_3D('',#1271,#964,#965);
#864=AXIS2_PLACEMENT_3D('',#1304,#966,#967);
#865=AXIS2_PLACEMENT_3D('',#1305,#968,#969);
#866=AXIS2_PLACEMENT_3D('',#1306,#970,#971);
#867=AXIS2_PLACEMENT_3D('',#1339,#972,#973);
#868=AXIS2_PLACEMENT_3D('',#1340,#974,#975);
#869=AXIS2_PLACEMENT_3D('',#1341,#976,#977);
#870=AXIS2_PLACEMENT_3D('',#1374,#978,#979);
#871=AXIS2_PLACEMENT_3D('',#1375,#980,#981);
#872=AXIS2_PLACEMENT_3D('',#1376,#982,#983);
#873=AXIS2_PLACEMENT_3D('',#1377,#984,#985);
#874=AXIS2_PLACEMENT_3D('',#1378,#986,#987);
#875=AXIS2_PLACEMENT_3D('',#1379,#988,#989);
#876=AXIS2_PLACEMENT_3D('',#1385,#993,#994);
#877=AXIS2_PLACEMENT_3D('',#1391,#998,#999);
#878=AXIS2_PLACEMENT_3D('',#1397,#1003,#1004);
#879=AXIS2_PLACEMENT_3D('',#1400,#1007,#1008);
#880=AXIS2_PLACEMENT_3D('',#1401,#1009,#1010);
#881=AXIS2_PLACEMENT_3D('',#1402,#1011,#1012);
#882=AXIS2_PLACEMENT_3D('',#1403,#1013,#1014);
#883=AXIS2_PLACEMENT_3D('',#1404,#1015,#1016);
#884=AXIS2_PLACEMENT_3D('',#1405,#1017,#1018);
#885=AXIS2_PLACEMENT_3D('',#1406,#1019,#1020);
#886=AXIS2_PLACEMENT_3D('',#1407,#1021,#1022);
#887=AXIS2_PLACEMENT_3D('',#1416,#1027,#1028);
#888=AXIS2_PLACEMENT_3D('',#1425,#1033,#1034);
#889=AXIS2_PLACEMENT_3D('',#1434,#1039,#1040);
#890=AXIS2_PLACEMENT_3D('',#1435,#1041,#1042);
#891=AXIS2_PLACEMENT_3D('',#1437,#1043,#1044);
#892=AXIS2_PLACEMENT_3D('',#1439,#1045,#1046);
#893=AXIS2_PLACEMENT_3D('',#1452,#1053,#1054);
#894=AXIS2_PLACEMENT_3D('',#1460,#1059,#1060);
#895=AXIS2_PLACEMENT_3D('',#1461,#1061,#1062);
#896=AXIS2_PLACEMENT_3D('',#1463,#1063,#1064);
#897=AXIS2_PLACEMENT_3D('',#1465,#1065,#1066);
#898=AXIS2_PLACEMENT_3D('',#1466,#1067,#1068);
#899=AXIS2_PLACEMENT_3D('',#1468,#1069,#1070);
#900=AXIS2_PLACEMENT_3D('',#1470,#1071,#1072);
#901=AXIS2_PLACEMENT_3D('',#1471,#1073,#1074);
#902=AXIS2_PLACEMENT_3D('',#1473,#1075,#1076);
#903=AXIS2_PLACEMENT_3D('',#1475,#1077,#1078);
#904=AXIS2_PLACEMENT_3D('',#1476,#1079,#1080);
#905=AXIS2_PLACEMENT_3D('',#1478,#1081,#1082);
#906=AXIS2_PLACEMENT_3D('',#1479,#1083,#1084);
#907=AXIS2_PLACEMENT_3D('',#1481,#1085,#1086);
#908=AXIS2_PLACEMENT_3D('',#1482,#1087,#1088);
#909=AXIS2_PLACEMENT_3D('',#1484,#1089,#1090);
#910=AXIS2_PLACEMENT_3D('',#1485,#1091,#1092);
#911=AXIS2_PLACEMENT_3D('',#1487,#1093,#1094);
#912=AXIS2_PLACEMENT_3D('',#1488,#1095,#1096);
#913=AXIS2_PLACEMENT_3D('',#1490,#1097,#1098);
#914=AXIS2_PLACEMENT_3D('',#1492,#1099,#1100);
#915=AXIS2_PLACEMENT_3D('',#1495,#1102,#1103);
#916=AXIS2_PLACEMENT_3D('',#1497,#1105,#1106);
#917=AXIS2_PLACEMENT_3D('',#1498,#1107,#1108);
#918=AXIS2_PLACEMENT_3D('',#1499,#1109,#1110);
#919=AXIS2_PLACEMENT_3D('',#1500,#1111,#1112);
#920=AXIS2_PLACEMENT_3D('',#1502,#1113,#1114);
#921=AXIS2_PLACEMENT_3D('',#1503,#1115,#1116);
#922=AXIS2_PLACEMENT_3D('',#1505,#1117,#1118);
#923=AXIS2_PLACEMENT_3D('',#1506,#1119,#1120);
#924=AXIS2_PLACEMENT_3D('',#1507,#1121,#1122);
#925=AXIS2_PLACEMENT_3D('',#1508,#1123,#1124);
#926=AXIS2_PLACEMENT_3D('',#1510,#1125,#1126);
#927=AXIS2_PLACEMENT_3D('',#1511,#1127,#1128);
#928=AXIS2_PLACEMENT_3D('',#1513,#1129,#1130);
#929=AXIS2_PLACEMENT_3D('',#1514,#1131,#1132);
#930=AXIS2_PLACEMENT_3D('',#1516,#1133,#1134);
#931=AXIS2_PLACEMENT_3D('',#1517,#1135,#1136);
#932=AXIS2_PLACEMENT_3D('',#1523,#1140,#1141);
#933=AXIS2_PLACEMENT_3D('',#1529,#1145,#1146);
#934=AXIS2_PLACEMENT_3D('',#1533,#1149,#1150);
#935=AXIS2_PLACEMENT_3D('',#1537,#1153,#1154);
#936=AXIS2_PLACEMENT_3D('',#1539,#1156,#1157);
#937=AXIS2_PLACEMENT_3D('',#1540,#1158,#1159);
#938=AXIS2_PLACEMENT_3D('',#1544,#1162,#1163);
#939=AXIS2_PLACEMENT_3D('',#1548,#1166,#1167);
#940=AXIS2_PLACEMENT_3D('',#1550,#1169,#1170);
#941=AXIS2_PLACEMENT_3D('',#1551,#1171,#1172);
#942=DIRECTION('',(0.,0.,1.));
#943=DIRECTION('',(1.,0.,0.));
#944=DIRECTION('',(1.,0.,0.));
#945=DIRECTION('',(0.,-1.,2.22044604925E-16));
#946=DIRECTION('',(1.,-2.22044604925E-16,2.775557561563E-16));
#947=DIRECTION('',(1.,-2.22044604925E-16,2.775557561563E-16));
#948=DIRECTION('',(-2.775557561563E-16,-2.22044604925E-16,1.));
#949=DIRECTION('',(1.,-2.22044604925E-16,2.775557561563E-16));
#950=DIRECTION('',(1.,-2.22044604925E-16,2.775557561563E-16));
#951=DIRECTION('',(-2.775557561563E-16,-2.22044604925E-16,1.));
#952=DIRECTION('',(1.,-2.22044604925E-16,2.775557561563E-16));
#953=DIRECTION('',(1.,-2.22044604925E-16,2.775557561563E-16));
#954=DIRECTION('',(1.,-2.22044604925E-16,2.775557561563E-16));
#955=DIRECTION('',(1.,-2.22044604925E-16,2.775557561563E-16));
#956=DIRECTION('',(0.,0.,1.));
#957=DIRECTION('',(-1.,-6.162975822039E-32,0.));
#958=DIRECTION('',(-2.775557561563E-16,2.22044604925E-16,1.));
#959=DIRECTION('',(-1.,-6.162975822039E-32,-2.775557561563E-16));
#960=DIRECTION('',(-2.775557561563E-16,2.22044604925E-16,1.));
#961=DIRECTION('',(-1.,-4.930380657631E-32,-2.775557561563E-16));
#962=DIRECTION('',(0.,0.,1.));
#963=DIRECTION('',(-1.,-6.162975822039E-32,0.));
#964=DIRECTION('',(-2.775557561563E-16,2.22044604925E-16,1.));
#965=DIRECTION('',(-1.,-6.162975822039E-32,-2.775557561563E-16));
#966=DIRECTION('',(-2.775557561563E-16,2.22044604925E-16,1.));
#967=DIRECTION('',(-1.,-4.930380657631E-32,-2.775557561563E-16));
#968=DIRECTION('',(0.,0.,1.));
#969=DIRECTION('',(-1.,-6.162975822039E-32,0.));
#970=DIRECTION('',(-2.775557561563E-16,2.22044604925E-16,1.));
#971=DIRECTION('',(-1.,-6.162975822039E-32,-2.775557561563E-16));
#972=DIRECTION('',(-2.775557561563E-16,2.22044604925E-16,1.));
#973=DIRECTION('',(-1.,-4.930380657631E-32,-2.775557561563E-16));
#974=DIRECTION('',(0.,0.,1.));
#975=DIRECTION('',(-1.,-6.162975822039E-32,0.));
#976=DIRECTION('',(-2.775557561563E-16,2.22044604925E-16,1.));
#977=DIRECTION('',(-1.,-6.162975822039E-32,-2.775557561563E-16));
#978=DIRECTION('',(-2.775557561563E-16,2.22044604925E-16,1.));
#979=DIRECTION('',(-1.,-4.930380657631E-32,-2.775557561563E-16));
#980=DIRECTION('',(0.,0.,-1.));
#981=DIRECTION('',(-2.22044604925E-16,-1.,0.));
#982=DIRECTION('',(0.,0.,1.));
#983=DIRECTION('',(1.,0.,0.));
#984=DIRECTION('',(0.,0.,1.));
#985=DIRECTION('',(1.,0.,0.));
#986=DIRECTION('',(0.,0.,1.));
#987=DIRECTION('',(1.,0.,0.));
#988=DIRECTION('',(0.,0.,1.));
#989=DIRECTION('',(1.,0.,0.));
#990=DIRECTION('',(-2.22044604925E-16,-1.,2.22044604925E-16));
#991=DIRECTION('',(1.,-2.22044604925E-16,2.775557561563E-16));
#992=DIRECTION('',(-2.22044604925E-16,-1.,2.22044604925E-16));
#993=DIRECTION('',(1.,0.,0.));
#994=DIRECTION('',(0.,1.479114197289E-31,1.));
#995=DIRECTION('',(2.22044604925E-16,-2.22044604925E-16,-1.));
#996=DIRECTION('',(2.22044604925E-16,1.,-2.22044604925E-16));
#997=DIRECTION('',(-2.22044604925E-16,2.22044604925E-16,1.));
#998=DIRECTION('',(0.,0.,1.));
#999=DIRECTION('',(1.,0.,0.));
#1000=DIRECTION('',(-1.,0.,0.));
#1001=DIRECTION('',(2.22044604925E-16,1.,-2.22044604925E-16));
#1002=DIRECTION('',(1.,-2.22044604925E-16,2.775557561563E-16));
#1003=DIRECTION('',(1.,0.,0.));
#1004=DIRECTION('',(0.,1.479114197289E-31,1.));
#1005=DIRECTION('',(-2.22044604925E-16,2.22044604925E-16,1.));
#1006=DIRECTION('',(-2.22044604925E-16,2.22044604925E-16,1.));
#1007=DIRECTION('',(0.,0.,-1.));
#1008=DIRECTION('',(-1.,0.,0.));
#1009=DIRECTION('',(0.,0.,-1.));
#1010=DIRECTION('',(-1.,0.,0.));
#1011=DIRECTION('',(0.,0.,-1.));
#1012=DIRECTION('',(-1.,0.,0.));
#1013=DIRECTION('',(0.,0.,-1.));
#1014=DIRECTION('',(-1.,0.,0.));
#1015=DIRECTION('',(0.,1.,0.));
#1016=DIRECTION('',(-1.,0.,0.));
#1017=DIRECTION('',(0.,1.,0.));
#1018=DIRECTION('',(-1.,0.,0.));
#1019=DIRECTION('',(0.,0.,1.));
#1020=DIRECTION('',(1.,0.,0.));
#1021=DIRECTION('',(0.,0.,1.));
#1022=DIRECTION('',(1.,0.,0.));
#1023=DIRECTION('',(1.,0.,0.));
#1024=DIRECTION('',(0.,-1.,2.22044604925E-16));
#1025=DIRECTION('',(1.,0.,0.));
#1026=DIRECTION('',(0.,-1.,2.22044604925E-16));
#1027=DIRECTION('',(1.,0.,0.));
#1028=DIRECTION('',(0.,2.22044604925E-16,-1.));
#1029=DIRECTION('',(0.,2.22044604925E-16,-1.));
#1030=DIRECTION('',(0.,-1.,2.22044604925E-16));
#1031=DIRECTION('',(0.,2.22044604925E-16,-1.));
#1032=DIRECTION('',(0.,-1.,-2.22044604925E-16));
#1033=DIRECTION('',(-1.,-9.603647188716E-33,4.32509819005E-17));
#1034=DIRECTION('',(4.32509819005E-17,-2.22044604925E-16,1.));
#1035=DIRECTION('',(0.,-1.,2.22044604925E-16));
#1036=DIRECTION('',(4.32509819005E-17,-2.22044604925E-16,1.));
#1037=DIRECTION('',(0.,-1.,-2.22044604925E-16));
#1038=DIRECTION('',(4.32509819005E-17,-2.22044604925E-16,1.));
#1039=DIRECTION('',(0.,1.,0.));
#1040=DIRECTION('',(0.,0.,1.));
#1041=DIRECTION('',(6.651070529198E-36,1.,2.22044604925E-16));
#1042=DIRECTION('',(1.,-6.651070529201E-36,1.301750668682E-32));
#1043=DIRECTION('',(0.,1.,0.));
#1044=DIRECTION('',(0.,0.,1.));
#1045=DIRECTION('',(0.,1.,0.));
#1046=DIRECTION('',(0.,0.,1.));
#1047=DIRECTION('',(0.0838273137537972,-2.21263073769371E-16,-0.996480296578323));
#1048=DIRECTION('',(-0.0838273137537972,-2.21263073769371E-16,-0.996480296578323));
#1049=DIRECTION('',(-1.,0.,0.));
#1050=DIRECTION('',(0.,0.,1.));
#1051=DIRECTION('',(-1.,0.,0.));
#1052=DIRECTION('',(-0.0838273137537972,-2.21263073769371E-16,-0.996480296578323));
#1053=DIRECTION('',(0.,-1.,-2.22044604925E-16));
#1054=DIRECTION('',(1.,0.,0.));
#1055=DIRECTION('',(0.0838273137537972,-2.21263073769371E-16,-0.996480296578323));
#1056=DIRECTION('',(-1.,0.,0.));
#1057=DIRECTION('',(0.,0.,1.));
#1058=DIRECTION('',(-1.,0.,0.));
#1059=DIRECTION('',(0.,-1.,0.));
#1060=DIRECTION('',(1.,0.,-1.826722203279E-50));
#1061=DIRECTION('',(2.873774171972E-34,1.,2.22044604925E-16));
#1062=DIRECTION('',(1.,-2.873774171972E-34,0.));
#1063=DIRECTION('',(2.873774171972E-34,1.,2.22044604925E-16));
#1064=DIRECTION('',(1.,-2.873774171972E-34,0.));
#1065=DIRECTION('',(0.,-1.,0.));
#1066=DIRECTION('',(1.,0.,-1.164349077425E-51));
#1067=DIRECTION('',(6.651070529198E-36,1.,2.22044604925E-16));
#1068=DIRECTION('',(1.,-6.651070529201E-36,1.301750668682E-32));
#1069=DIRECTION('',(2.873774171972E-34,1.,2.22044604925E-16));
#1070=DIRECTION('',(1.,-2.873774171972E-34,0.));
#1071=DIRECTION('',(0.,-1.,0.));
#1072=DIRECTION('',(0.,0.,-1.));
#1073=DIRECTION('',(0.,-1.,0.));
#1074=DIRECTION('',(0.,0.,-1.));
#1075=DIRECTION('',(0.,1.,0.));
#1076=DIRECTION('',(0.,0.,1.));
#1077=DIRECTION('',(0.,1.,0.));
#1078=DIRECTION('',(0.,0.,1.));
#1079=DIRECTION('',(6.651070529198E-36,1.,2.22044604925E-16));
#1080=DIRECTION('',(1.,-6.651070529198E-36,-1.336382355046E-51));
#1081=DIRECTION('',(0.,-1.,0.));
#1082=DIRECTION('',(1.,0.,-1.164349077425E-51));
#1083=DIRECTION('',(6.651070529198E-36,1.,2.22044604925E-16));
#1084=DIRECTION('',(1.,-6.651070529198E-36,-1.336382355046E-51));
#1085=DIRECTION('',(0.,1.,0.));
#1086=DIRECTION('',(0.,0.,1.));
#1087=DIRECTION('',(0.,-1.,-2.22044604925E-16));
#1088=DIRECTION('',(1.,0.,0.));
#1089=DIRECTION('',(0.,-1.,0.));
#1090=DIRECTION('',(1.,0.,-1.826722203279E-50));
#1091=DIRECTION('',(0.,-1.,-2.22044604925E-16));
#1092=DIRECTION('',(1.,0.,0.));
#1093=DIRECTION('',(0.,1.,0.));
#1094=DIRECTION('',(0.,0.,1.));
#1095=DIRECTION('',(0.,-1.,0.));
#1096=DIRECTION('',(0.,0.,-1.));
#1097=DIRECTION('',(0.,-1.,0.));
#1098=DIRECTION('',(0.,0.,-1.));
#1099=DIRECTION('',(0.,-1.,0.));
#1100=DIRECTION('',(0.,0.,-1.));
#1101=DIRECTION('',(0.0838273137537972,-2.21263073769371E-16,-0.996480296578323));
#1102=DIRECTION('',(0.,-1.,-2.22044604925E-16));
#1103=DIRECTION('',(1.,0.,0.));
#1104=DIRECTION('',(-0.0838273137537972,-2.21263073769371E-16,-0.996480296578323));
#1105=DIRECTION('',(0.,-1.,0.));
#1106=DIRECTION('',(1.,0.,1.301750668682E-32));
#1107=DIRECTION('',(0.,1.,0.));
#1108=DIRECTION('',(1.,0.,0.));
#1109=DIRECTION('',(0.,-1.,0.));
#1110=DIRECTION('',(0.,0.,-1.));
#1111=DIRECTION('',(0.,1.,0.));
#1112=DIRECTION('',(0.,0.,1.));
#1113=DIRECTION('',(0.,1.,0.));
#1114=DIRECTION('',(-1.,0.,0.));
#1115=DIRECTION('',(0.,1.,0.));
#1116=DIRECTION('',(0.,0.,1.));
#1117=DIRECTION('',(0.,1.,0.));
#1118=DIRECTION('',(0.,0.,1.));
#1119=DIRECTION('',(0.,1.,0.));
#1120=DIRECTION('',(0.,0.,1.));
#1121=DIRECTION('',(0.,-1.,0.));
#1122=DIRECTION('',(0.,0.,-1.));
#1123=DIRECTION('',(0.,-1.,0.));
#1124=DIRECTION('',(0.,0.,-1.));
#1125=DIRECTION('',(0.,-1.,0.));
#1126=DIRECTION('',(0.,0.,-1.));
#1127=DIRECTION('',(0.,-1.,0.));
#1128=DIRECTION('',(0.,0.,-1.));
#1129=DIRECTION('',(0.,-1.,0.));
#1130=DIRECTION('',(0.,0.,-1.));
#1131=DIRECTION('',(0.,1.,0.));
#1132=DIRECTION('',(0.,0.,1.));
#1133=DIRECTION('',(0.,1.,0.));
#1134=DIRECTION('',(-1.,0.,0.));
#1135=DIRECTION('',(0.996480296578323,1.86134027643861E-17,0.0838273137537972));
#1136=DIRECTION('',(0.0838273137537972,-2.21263073769371E-16,-0.996480296578323));
#1137=DIRECTION('',(0.,-1.,0.));
#1138=DIRECTION('',(0.0838273137537973,0.,-0.996480296578323));
#1139=DIRECTION('',(0.,-1.,0.));
#1140=DIRECTION('',(0.996480296578323,-1.86134027643861E-17,-0.0838273137537972));
#1141=DIRECTION('',(-0.0838273137537972,-2.21263073769371E-16,-0.996480296578323));
#1142=DIRECTION('',(0.,-1.,0.));
#1143=DIRECTION('',(-0.0838273137537972,0.,-0.996480296578323));
#1144=DIRECTION('',(0.,-1.,0.));
#1145=DIRECTION('',(0.,0.,-1.));
#1146=DIRECTION('',(-1.,0.,0.));
#1147=DIRECTION('',(0.,-1.,0.));
#1148=DIRECTION('',(1.,0.,0.));
#1149=DIRECTION('',(0.,0.,-1.));
#1150=DIRECTION('',(-1.,0.,0.));
#1151=DIRECTION('',(0.,-1.,0.));
#1152=DIRECTION('',(1.,0.,0.));
#1153=DIRECTION('',(-1.,0.,0.));
#1154=DIRECTION('',(0.,0.,1.));
#1155=DIRECTION('',(0.,0.,-1.));
#1156=DIRECTION('',(0.,-1.,0.));
#1157=DIRECTION('',(1.,0.,0.));
#1158=DIRECTION('',(0.,0.,-1.));
#1159=DIRECTION('',(-1.,0.,0.));
#1160=DIRECTION('',(1.,0.,0.));
#1161=DIRECTION('',(0.,-1.,0.));
#1162=DIRECTION('',(0.,0.,-1.));
#1163=DIRECTION('',(-1.,0.,0.));
#1164=DIRECTION('',(0.,-1.,0.));
#1165=DIRECTION('',(1.,0.,0.));
#1166=DIRECTION('',(-1.,0.,0.));
#1167=DIRECTION('',(0.,0.,1.));
#1168=DIRECTION('',(0.,0.,-1.));
#1169=DIRECTION('',(0.,-1.,0.));
#1170=DIRECTION('',(1.,0.,0.));
#1171=DIRECTION('',(0.,0.,1.));
#1172=DIRECTION('',(1.,0.,0.));
#1173=CARTESIAN_POINT('',(0.,0.,0.));
#1174=CARTESIAN_POINT('',(-0.03,0.004,-0.0488));
#1175=CARTESIAN_POINT('',(-0.0296818637608571,0.004,-0.0528));
#1176=CARTESIAN_POINT('',(-0.0294521351438263,0.00312213303664847,-0.0528));
#1177=CARTESIAN_POINT('',(-0.0286728059475749,0.00201308308153804,-0.0523616084567478));
#1178=CARTESIAN_POINT('',(-0.0271983848906732,0.00120930671759791,-0.0516847636981963));
#1179=CARTESIAN_POINT('',(-0.0258639326463812,0.000970405552541413,-0.0514095887146301));
#1180=CARTESIAN_POINT('',(-0.0245197509973329,0.0012090734491785,-0.0516852152300656));
#1181=CARTESIAN_POINT('',(-0.0234172630613478,0.00181468642292441,-0.052192098525972));
#1182=CARTESIAN_POINT('',(-0.0225336133854764,0.00273983471063601,-0.0526529383789705));
#1183=CARTESIAN_POINT('',(-0.0221540917247871,0.00356103909220583,-0.0528));
#1184=CARTESIAN_POINT('',(-0.0220392202391429,0.004,-0.0528));
#1185=CARTESIAN_POINT('',(-0.0296818637608571,0.004,-0.0528));
#1186=CARTESIAN_POINT('',(-0.0220392202391429,0.004,-0.0528));
#1187=CARTESIAN_POINT('',(-0.03,0.004,-0.0528));
#1188=CARTESIAN_POINT('',(-0.03,0.004,-0.0528));
#1189=CARTESIAN_POINT('',(-0.03,0.004,-0.0488));
#1190=CARTESIAN_POINT('',(-0.03,-7.4162898044959E-18,-0.0488));
#1191=CARTESIAN_POINT('',(-0.03,-1.136868377216E-17,-0.0488));
#1192=CARTESIAN_POINT('',(0.03,-1.38777878078145E-17,-0.0488));
#1193=CARTESIAN_POINT('',(0.03,0.004,-0.0488));
#1194=CARTESIAN_POINT('',(0.03,0.004,-0.0528));
#1195=CARTESIAN_POINT('',(-0.03,0.004,-0.0528));
#1196=CARTESIAN_POINT('',(0.0296818637608571,0.004,-0.0528));
#1197=CARTESIAN_POINT('',(0.0220392202391429,0.004,-0.0528));
#1198=CARTESIAN_POINT('',(0.0222689488561737,0.00312213303664847,-0.0528));
#1199=CARTESIAN_POINT('',(0.0230482780524251,0.00201308308153804,-0.0523616084567478));
#1200=CARTESIAN_POINT('',(0.0245226991093268,0.00120930671759791,-0.0516847636981963));
#1201=CARTESIAN_POINT('',(0.0258571513536188,0.000970405552541412,-0.0514095887146301));
#1202=CARTESIAN_POINT('',(0.0272013330026671,0.00120907344917851,-0.0516852152300656));
#1203=CARTESIAN_POINT('',(0.0283038209386522,0.00181468642292441,-0.0521920985259721));
#1204=CARTESIAN_POINT('',(0.0291874706145236,0.002739834710636,-0.0526529383789705));
#1205=CARTESIAN_POINT('',(0.0295669922752129,0.00356103909220583,-0.0528));
#1206=CARTESIAN_POINT('',(0.0296818637608571,0.004,-0.0528));
#1207=CARTESIAN_POINT('',(0.0220392202391429,0.004,-0.0528));
#1208=CARTESIAN_POINT('',(-0.03,0.004,-0.0528));
#1209=CARTESIAN_POINT('',(0.0146607650483821,0.004,-0.0528));
#1210=CARTESIAN_POINT('',(0.0070181215266679,0.004,-0.0528));
#1211=CARTESIAN_POINT('',(0.00724785014369873,0.00312213303664847,-0.0528));
#1212=CARTESIAN_POINT('',(0.00802717933995013,0.00201308308153804,-0.0523616084567478));
#1213=CARTESIAN_POINT('',(0.00950160039685182,0.00120930671759791,-0.0516847636981963));
#1214=CARTESIAN_POINT('',(0.0108360526411438,0.000970405552541411,-0.0514095887146301));
#1215=CARTESIAN_POINT('',(0.0121802342901921,0.00120907344917851,-0.0516852152300656));
#1216=CARTESIAN_POINT('',(0.0132827222261772,0.0018146864229244,-0.052192098525972));
#1217=CARTESIAN_POINT('',(0.0141663719020486,0.00273983471063602,-0.0526529383789705));
#1218=CARTESIAN_POINT('',(0.0145458935627379,0.00356103909220583,-0.0528));
#1219=CARTESIAN_POINT('',(0.0146607650483821,0.004,-0.0528));
#1220=CARTESIAN_POINT('',(0.0070181215266679,0.004,-0.0528));
#1221=CARTESIAN_POINT('',(-0.03,0.004,-0.0528));
#1222=CARTESIAN_POINT('',(-0.0070181215266629,0.004,-0.0528));
#1223=CARTESIAN_POINT('',(-0.0146607650483771,0.004,-0.0528));
#1224=CARTESIAN_POINT('',(-0.0144310364313463,0.00312213303664847,-0.0528));
#1225=CARTESIAN_POINT('',(-0.0136517072350949,0.00201308308153804,-0.0523616084567478));
#1226=CARTESIAN_POINT('',(-0.0121772861781932,0.00120930671759791,-0.0516847636981963));
#1227=CARTESIAN_POINT('',(-0.0108428339339012,0.000970405552541413,-0.0514095887146301));
#1228=CARTESIAN_POINT('',(-0.00949865228485295,0.00120907344917851,-0.0516852152300656));
#1229=CARTESIAN_POINT('',(-0.00839616434886782,0.0018146864229244,-0.052192098525972));
#1230=CARTESIAN_POINT('',(-0.00751251467299636,0.002739834710636,-0.0526529383789705));
#1231=CARTESIAN_POINT('',(-0.0071329930123071,0.00356103909220583,-0.0528));
#1232=CARTESIAN_POINT('',(-0.0070181215266629,0.004,-0.0528));
#1233=CARTESIAN_POINT('',(-0.0146607650483771,0.004,-0.0528));
#1234=CARTESIAN_POINT('',(-0.03,0.004,-0.0528));
#1235=CARTESIAN_POINT('',(0.025860542,0.005,-0.0528));
#1236=CARTESIAN_POINT('',(0.025860542,0.005,-0.0628));
#1237=CARTESIAN_POINT('',(0.023860542,0.005,-0.0628));
#1238=CARTESIAN_POINT('',(0.024128491192431,0.004,-0.0528));
#1239=CARTESIAN_POINT('',(0.0241645755842555,0.00393750000000006,-0.0528));
#1240=CARTESIAN_POINT('',(0.02420065997608,0.00388257340264387,-0.0528));
#1241=CARTESIAN_POINT('',(0.0242728287597287,0.00378221929435775,-0.0528));
#1242=CARTESIAN_POINT('',(0.024308913151553,0.00373687325165613,-0.0528));
#1243=CARTESIAN_POINT('',(0.0244171663270261,0.00361115864713326,-0.0528));
#1244=CARTESIAN_POINT('',(0.0244893351106747,0.00354095171000887,-0.0528));
#1245=CARTESIAN_POINT('',(0.0246336726779721,0.00341765841378734,-0.0528));
#1246=CARTESIAN_POINT('',(0.0247058414616208,0.00336475867623439,-0.0528));
#1247=CARTESIAN_POINT('',(0.0248501790289182,0.00327184232921522,-0.0528));
#1248=CARTESIAN_POINT('',(0.0249223478125669,0.00323188834590818,-0.0528));
#1249=CARTESIAN_POINT('',(0.025138854163513,0.00312788616717821,-0.0528));
#1250=CARTESIAN_POINT('',(0.0252831917308105,0.0030794423663208,-0.0528));
#1251=CARTESIAN_POINT('',(0.0255718668654054,0.00301542605113633,-0.0528));
#1252=CARTESIAN_POINT('',(0.0258605420000001,0.00298457394886363,-0.0528));
#1253=CARTESIAN_POINT('',(0.0261492171345946,0.00301542605113644,-0.0527999999999994));
#1254=CARTESIAN_POINT('',(0.0264378922691896,0.00307944236632092,-0.0527999999999967));
#1255=CARTESIAN_POINT('',(0.0265822298364871,0.00312788616717843,-0.0527999999999957));
#1256=CARTESIAN_POINT('',(0.0267987361874327,0.0032318883459076,-0.0527999999999964));
#1257=CARTESIAN_POINT('',(0.0268709049710812,0.00327184232921432,-0.0527999999999968));
#1258=CARTESIAN_POINT('',(0.0270152425383756,0.00336475867622846,-0.052799999999998));
#1259=CARTESIAN_POINT('',(0.0270874113220219,0.00341765841377744,-0.0527999999999987));
#1260=CARTESIAN_POINT('',(0.0272317488893014,0.00354095170996778,-0.0528));
#1261=CARTESIAN_POINT('',(0.0273039176729356,0.00361115864706705,-0.0528));
#1262=CARTESIAN_POINT('',(0.0274121708483457,0.00373687325148085,-0.0528));
#1263=CARTESIAN_POINT('',(0.0274482552401419,0.00378221929413363,-0.0528));
#1264=CARTESIAN_POINT('',(0.0275204240237071,0.00388257340227487,-0.0528));
#1265=CARTESIAN_POINT('',(0.0275565084154762,0.00393749999953525,-0.0528));
#1266=CARTESIAN_POINT('',(0.027592592807221,0.003999999999397,-0.0528));
#1267=CARTESIAN_POINT('',(0.024128491192431,0.004,-0.0528));
#1268=CARTESIAN_POINT('',(0.027592592807221,0.0039999999996985,-0.0528));
#1269=CARTESIAN_POINT('',(0.025860542,0.005,-0.0528));
#1270=CARTESIAN_POINT('',(0.010839443287525,0.005,-0.0528));
#1271=CARTESIAN_POINT('',(0.010839443287525,0.005,-0.0628));
#1272=CARTESIAN_POINT('',(0.008839443287525,0.005,-0.0628));
#1273=CARTESIAN_POINT('',(0.009107392479957,0.004,-0.0528));
#1274=CARTESIAN_POINT('',(0.00914347687178126,0.00393750000000005,-0.0528));
#1275=CARTESIAN_POINT('',(0.00917956126360564,0.00388257340264385,-0.0528));
#1276=CARTESIAN_POINT('',(0.00925173004725433,0.0037822192943577,-0.0528));
#1277=CARTESIAN_POINT('',(0.00928781443907867,0.00373687325165606,-0.0528));
#1278=CARTESIAN_POINT('',(0.00939606761455168,0.00361115864713314,-0.0528));
#1279=CARTESIAN_POINT('',(0.00946823639820038,0.00354095171000874,-0.0528));
#1280=CARTESIAN_POINT('',(0.00961257396549779,0.0034176584137872,-0.0528));
#1281=CARTESIAN_POINT('',(0.00968474274914648,0.00336475867623424,-0.0528));
#1282=CARTESIAN_POINT('',(0.0098290803164439,0.00327184232921506,-0.0528));
#1283=CARTESIAN_POINT('',(0.00990124910009264,0.00323188834590799,-0.0528));
#1284=CARTESIAN_POINT('',(0.0101177554510388,0.00312788616717801,-0.0528));
#1285=CARTESIAN_POINT('',(0.0102620930183362,0.00307944236632073,-0.0528));
#1286=CARTESIAN_POINT('',(0.010550768152931,0.00301542605113642,-0.0528));
#1287=CARTESIAN_POINT('',(0.010839443287526,0.00298457394886353,-0.0528));
#1288=CARTESIAN_POINT('',(0.0111281184221207,0.00301542605113651,-0.0528));
#1289=CARTESIAN_POINT('',(0.0114167935567154,0.00307944236632102,-0.0528));
#1290=CARTESIAN_POINT('',(0.011561131124013,0.00312788616717852,-0.0528));
#1291=CARTESIAN_POINT('',(0.0117776374749586,0.00323188834590764,-0.0528));
#1292=CARTESIAN_POINT('',(0.011849806258607,0.00327184232921433,-0.0528));
#1293=CARTESIAN_POINT('',(0.0119941438259014,0.00336475867622845,-0.0528));
#1294=CARTESIAN_POINT('',(0.0120663126095478,0.00341765841377746,-0.0528));
#1295=CARTESIAN_POINT('',(0.0122106501768272,0.00354095170996788,-0.0528));
#1296=CARTESIAN_POINT('',(0.0122828189604614,0.00361115864706723,-0.0528));
#1297=CARTESIAN_POINT('',(0.0123910721358714,0.00373687325148104,-0.0528));
#1298=CARTESIAN_POINT('',(0.0124271565276675,0.0037822192941338,-0.0528));
#1299=CARTESIAN_POINT('',(0.0124993253112325,0.00388257340227495,-0.0528));
#1300=CARTESIAN_POINT('',(0.0125354097030015,0.00393749999953527,-0.0528));
#1301=CARTESIAN_POINT('',(0.012571494094746,0.003999999999397,-0.0528));
#1302=CARTESIAN_POINT('',(0.009107392479957,0.004,-0.0528));
#1303=CARTESIAN_POINT('',(0.012571494094746,0.0039999999996985,-0.0528));
#1304=CARTESIAN_POINT('',(0.010839443287525,0.005,-0.0528));
#1305=CARTESIAN_POINT('',(-0.01083944328752,0.005,-0.0528));
#1306=CARTESIAN_POINT('',(-0.01083944328752,0.005,-0.0628));
#1307=CARTESIAN_POINT('',(-0.01283944328752,0.005,-0.0628));
#1308=CARTESIAN_POINT('',(-0.01257149409509,0.004,-0.0528));
#1309=CARTESIAN_POINT('',(-0.0125354097032667,0.00393750000000008,-0.0528));
#1310=CARTESIAN_POINT('',(-0.0124993253114427,0.0038825734026439,-0.0528));
#1311=CARTESIAN_POINT('',(-0.0124271565277943,0.0037822192943578,-0.0528));
#1312=CARTESIAN_POINT('',(-0.01239107213597,0.00373687325165619,-0.0528));
#1313=CARTESIAN_POINT('',(-0.0122828189604969,0.00361115864713333,-0.0528));
#1314=CARTESIAN_POINT('',(-0.0122106501768482,0.00354095171000895,-0.0528));
#1315=CARTESIAN_POINT('',(-0.0120663126095511,0.00341765841378745,-0.0528));
#1316=CARTESIAN_POINT('',(-0.0119941438259027,0.0033647586762345,-0.0528));
#1317=CARTESIAN_POINT('',(-0.0118498062586055,0.00327184232921535,-0.0528));
#1318=CARTESIAN_POINT('',(-0.0117776374749566,0.00323188834590831,-0.0528));
#1319=CARTESIAN_POINT('',(-0.0115611311240094,0.00312788616717832,-0.0528));
#1320=CARTESIAN_POINT('',(-0.0114167935567104,0.00307944236632091,-0.0528));
#1321=CARTESIAN_POINT('',(-0.0111281184221169,0.00301542605113639,-0.0528));
#1322=CARTESIAN_POINT('',(-0.0108394432875288,0.00298457394886367,-0.0528));
#1323=CARTESIAN_POINT('',(-0.0105507681529275,0.00301542605113631,-0.0528));
#1324=CARTESIAN_POINT('',(-0.0102620930183326,0.00307944236632055,-0.0528));
#1325=CARTESIAN_POINT('',(-0.0101177554510358,0.00312788616717807,-0.0528));
#1326=CARTESIAN_POINT('',(-0.00990124910009128,0.00323188834590734,-0.0528));
#1327=CARTESIAN_POINT('',(-0.00982908031644317,0.0032718423292141,-0.0528));
#1328=CARTESIAN_POINT('',(-0.00968474274914928,0.00336475867622829,-0.0528));
#1329=CARTESIAN_POINT('',(-0.00961257396550305,0.00341765841377729,-0.0528));
#1330=CARTESIAN_POINT('',(-0.00946823639822375,0.00354095170996767,-0.0528));
#1331=CARTESIAN_POINT('',(-0.00939606761458951,0.00361115864706696,-0.0528));
#1332=CARTESIAN_POINT('',(-0.00928781443917936,0.00373687325148079,-0.0528));
#1333=CARTESIAN_POINT('',(-0.00925173004738316,0.00378221929413358,-0.0528));
#1334=CARTESIAN_POINT('',(-0.00917956126381794,0.00388257340227483,-0.0528));
#1335=CARTESIAN_POINT('',(-0.00914347687204874,0.00393749999953523,-0.0528));
#1336=CARTESIAN_POINT('',(-0.009107392480304,0.003999999999397,-0.0528));
#1337=CARTESIAN_POINT('',(-0.01257149409509,0.004,-0.0528));
#1338=CARTESIAN_POINT('',(-0.009107392480304,0.0039999999996985,-0.0528));
#1339=CARTESIAN_POINT('',(-0.01083944328752,0.005,-0.0528));
#1340=CARTESIAN_POINT('',(-0.025860542,0.005,-0.0528));
#1341=CARTESIAN_POINT('',(-0.025860542,0.005,-0.0628));
#1342=CARTESIAN_POINT('',(-0.027860542,0.005,-0.0628));
#1343=CARTESIAN_POINT('',(-0.02759259280756,0.004,-0.0528));
#1344=CARTESIAN_POINT('',(-0.0275565084157367,0.00393750000000007,-0.0528));
#1345=CARTESIAN_POINT('',(-0.0275204240239127,0.00388257340264388,-0.0528));
#1346=CARTESIAN_POINT('',(-0.0274482552402643,0.00378221929435775,-0.0528));
#1347=CARTESIAN_POINT('',(-0.0274121708484399,0.00373687325165612,-0.0528));
#1348=CARTESIAN_POINT('',(-0.0273039176729669,0.00361115864713323,-0.0528));
#1349=CARTESIAN_POINT('',(-0.0272317488893181,0.00354095171000883,-0.0528));
#1350=CARTESIAN_POINT('',(-0.0270874113220211,0.00341765841378732,-0.0527999999999988));
#1351=CARTESIAN_POINT('',(-0.0270152425383729,0.00336475867623439,-0.0527999999999983));
#1352=CARTESIAN_POINT('',(-0.0268709049710763,0.00327184232921525,-0.0527999999999976));
#1353=CARTESIAN_POINT('',(-0.0267987361874281,0.00323188834590823,-0.0527999999999976));
#1354=CARTESIAN_POINT('',(-0.026582229836483,0.00312788616717837,-0.0527999999999982));
#1355=CARTESIAN_POINT('',(-0.0264378922691857,0.00307944236632111,-0.0527999999999994));
#1356=CARTESIAN_POINT('',(-0.0261492171345895,0.00301542605113655,-0.0528));
#1357=CARTESIAN_POINT('',(-0.025860541999995,0.00298457394886353,-0.0528));
#1358=CARTESIAN_POINT('',(-0.0255718668654004,0.00301542605113637,-0.0527999999999994));
#1359=CARTESIAN_POINT('',(-0.0252831917308045,0.00307944236632081,-0.0527999999999967));
#1360=CARTESIAN_POINT('',(-0.0251388541635075,0.00312788616717845,-0.0527999999999957));
#1361=CARTESIAN_POINT('',(-0.0249223478125631,0.00323188834590768,-0.0527999999999964));
#1362=CARTESIAN_POINT('',(-0.024850179028915,0.00327184232921438,-0.0527999999999969));
#1363=CARTESIAN_POINT('',(-0.0247058414616206,0.0033647586762285,-0.0527999999999981));
#1364=CARTESIAN_POINT('',(-0.0246336726779739,0.00341765841377745,-0.0527999999999987));
#1365=CARTESIAN_POINT('',(-0.0244893351106938,0.00354095170996777,-0.0528));
#1366=CARTESIAN_POINT('',(-0.0244171663270593,0.00361115864706705,-0.0528));
#1367=CARTESIAN_POINT('',(-0.0243089131516482,0.00373687325148085,-0.0528));
#1368=CARTESIAN_POINT('',(-0.0242728287598516,0.00378221929413363,-0.0528));
#1369=CARTESIAN_POINT('',(-0.0242006599762854,0.00388257340227487,-0.0528));
#1370=CARTESIAN_POINT('',(-0.0241645755845154,0.00393749999953525,-0.0528));
#1371=CARTESIAN_POINT('',(-0.02412849119277,0.003999999999397,-0.0528));
#1372=CARTESIAN_POINT('',(-0.02759259280756,0.004,-0.0528));
#1373=CARTESIAN_POINT('',(-0.02412849119277,0.0039999999996985,-0.0528));
#1374=CARTESIAN_POINT('',(-0.025860542,0.005,-0.0528));
#1375=CARTESIAN_POINT('',(-0.03,0.01,-0.0528));
#1376=CARTESIAN_POINT('',(-0.025860542,0.005,-0.0528));
#1377=CARTESIAN_POINT('',(-0.01083944328752,0.005,-0.0528));
#1378=CARTESIAN_POINT('',(0.010839443287525,0.005,-0.0528));
#1379=CARTESIAN_POINT('',(0.025860542,0.005,-0.0528));
#1380=CARTESIAN_POINT('',(0.03,0.01,-0.0528));
#1381=CARTESIAN_POINT('',(0.03,0.01,-0.0528));
#1382=CARTESIAN_POINT('',(-0.03,0.01,-0.0528));
#1383=CARTESIAN_POINT('',(-0.03,0.01,-0.0528));
#1384=CARTESIAN_POINT('',(-0.03,0.01,-0.0528));
#1385=CARTESIAN_POINT('',(0.03,0.005,-0.0578));
#1386=CARTESIAN_POINT('',(0.03,-1.127986593019E-17,-0.0528));
#1387=CARTESIAN_POINT('',(0.03,-1.376294973165E-17,-0.0628));
#1388=CARTESIAN_POINT('',(0.03,-1.350031197944E-17,-0.0628));
#1389=CARTESIAN_POINT('',(0.03,0.01,-0.0628));
#1390=CARTESIAN_POINT('',(0.03,0.01,-0.0628));
#1391=CARTESIAN_POINT('',(-0.031437522,-1.394440118929E-17,-0.0628));
#1392=CARTESIAN_POINT('',(-0.031437522,-1.376294973165E-17,-0.0628));
#1393=CARTESIAN_POINT('',(-0.03,-1.38777878078145E-17,-0.0628));
#1394=CARTESIAN_POINT('',(-0.03,-1.7763568394E-19,-0.0628));
#1395=CARTESIAN_POINT('',(-0.03,0.01,-0.0628));
#1396=CARTESIAN_POINT('',(-0.03,0.01,-0.0628));
#1397=CARTESIAN_POINT('',(-0.03,0.005,-0.0578));
#1398=CARTESIAN_POINT('',(-0.03,-5.56461424253E-18,-0.02486079462911));
#1399=CARTESIAN_POINT('',(-0.03,0.01,-0.0628));
#1400=CARTESIAN_POINT('',(-0.025860542,0.005,-0.0478));
#1401=CARTESIAN_POINT('',(-0.01083944328752,0.005,-0.0478));
#1402=CARTESIAN_POINT('',(0.010839443287525,0.005,-0.0478));
#1403=CARTESIAN_POINT('',(0.025860542,0.005,-0.0478));
#1404=CARTESIAN_POINT('',(0.,0.,-0.0578));
#1405=CARTESIAN_POINT('',(0.,0.01,-0.0578));
#1406=CARTESIAN_POINT('',(0.0790361538529396,0.0358449939787388,-0.0289051825777278));
#1407=CARTESIAN_POINT('',(-0.031437522,-1.394440118929E-17,-0.0628));
#1408=CARTESIAN_POINT('',(-0.031437522,-1.394440118929E-17,-0.0628));
#1409=CARTESIAN_POINT('',(-0.0314375220000049,-1.39444011892927E-17,-0.0628));
#1410=CARTESIAN_POINT('',(0.032537522000008,-1.39444011892927E-17,-0.0628));
#1411=CARTESIAN_POINT('',(0.032537522000005,-1.394440118929E-17,-0.0628));
#1412=CARTESIAN_POINT('',(0.032537522000008,-0.007,-0.0628));
#1413=CARTESIAN_POINT('',(-0.031437522,-0.007,-0.0628));
#1414=CARTESIAN_POINT('',(-0.0314375220000049,-0.007,-0.0628));
#1415=CARTESIAN_POINT('',(-0.031437522,-1.394440118929E-17,-0.0628));
#1416=CARTESIAN_POINT('',(-0.01960070923463,-2.228217610423E-17,0.10035));
#1417=CARTESIAN_POINT('',(-0.01960070923463,-2.228217610423E-17,0.10035));
#1418=CARTESIAN_POINT('',(-0.0196007092346306,-2.228217610423E-17,0.10035));
#1419=CARTESIAN_POINT('',(-0.01960070923463,-1.72989902402816E-17,0.077907726000001));
#1420=CARTESIAN_POINT('',(-0.01960070923463,1.729899024028E-17,0.077907726000001));
#1421=CARTESIAN_POINT('',(-0.01960070923463,-0.007,0.077907726000001));
#1422=CARTESIAN_POINT('',(-0.01960070923463,-0.007,0.10035));
#1423=CARTESIAN_POINT('',(-0.0196007092346306,-0.007,0.10035));
#1424=CARTESIAN_POINT('',(-0.01960070923463,-2.228217610423E-17,0.10035));
#1425=CARTESIAN_POINT('',(0.020700709234632,-4.04303168351E-18,0.018208195983303));
#1426=CARTESIAN_POINT('',(0.020700709234632,1.729899024028E-17,0.077907726000001));
#1427=CARTESIAN_POINT('',(0.020700709234632,-1.72989902402759E-17,0.077907726000001));
#1428=CARTESIAN_POINT('',(0.020700709234632,-0.007,0.077907726000001));
#1429=CARTESIAN_POINT('',(0.020700709234632,-4.04303168351E-18,0.018208195983303));
#1430=CARTESIAN_POINT('',(0.020700709234632,-2.22821761042281E-17,0.10035));
#1431=CARTESIAN_POINT('',(0.020700709234632,-2.228217610423E-17,0.10035));
#1432=CARTESIAN_POINT('',(0.020700709234632,-0.007,0.10035));
#1433=CARTESIAN_POINT('',(0.020700709234632,-0.007,0.018208195983303));
#1434=CARTESIAN_POINT('',(0.000532022784451,-1.376294973165E-17,0.06198281528296));
#1435=CARTESIAN_POINT('',(0.00055,-4.04303168351E-18,0.018208195983303));
#1436=CARTESIAN_POINT('',(0.0197,-4.04303168351E-18,0.018208195983303));
#1437=CARTESIAN_POINT('',(0.00055,-1.376294973165E-17,0.064199999234632));
#1438=CARTESIAN_POINT('',(0.00055,-1.376294973165E-17,0.075349999234632));
#1439=CARTESIAN_POINT('',(0.00055,-1.376294973165E-17,0.103620219234632));
#1440=CARTESIAN_POINT('',(0.00055,-1.376294973165E-17,0.118770219234632));
#1441=CARTESIAN_POINT('',(0.020700709234632,1.729899024028E-17,0.077907726000001));
#1442=CARTESIAN_POINT('',(0.0229474540370532,6.58122564687009E-18,0.0512));
#1443=CARTESIAN_POINT('',(-0.01960070923463,1.729899024028E-17,0.077907726000001));
#1444=CARTESIAN_POINT('',(-0.0218474540370512,1.7347234759768E-18,0.0512));
#1445=CARTESIAN_POINT('',(0.000532022784451,-1.376294973165E-17,0.0512));
#1446=CARTESIAN_POINT('',(-0.0139499969501861,-1.376294973165E-17,0.0512));
#1447=CARTESIAN_POINT('',(-0.0139499969501861,-1.376294973165E-17,0.06198281528296));
#1448=CARTESIAN_POINT('',(-0.0139499969501861,-1.376294973165E-17,0.0612));
#1449=CARTESIAN_POINT('',(0.000532022784451,-1.376294973165E-17,0.0612));
#1450=CARTESIAN_POINT('',(-0.021006220005213,7.69144867149555E-18,0.0612));
#1451=CARTESIAN_POINT('',(-0.01960070923463,1.729899024028E-17,0.077907726000001));
#1452=CARTESIAN_POINT('',(0.00055,-2.228217610423E-17,0.10035));
#1453=CARTESIAN_POINT('',(0.020700709234632,1.729899024028E-17,0.077907726000001));
#1454=CARTESIAN_POINT('',(0.022106220005215,7.69144867149555E-18,0.0612));
#1455=CARTESIAN_POINT('',(0.000532022784451,-1.376294973165E-17,0.0612));
#1456=CARTESIAN_POINT('',(0.0150500030498139,-1.38777878078145E-17,0.0612));
#1457=CARTESIAN_POINT('',(0.0150500030498139,-1.376294973165E-17,0.06198281528296));
#1458=CARTESIAN_POINT('',(0.0150500030498139,-1.376294973165E-17,0.0512));
#1459=CARTESIAN_POINT('',(0.000532022784451,-1.376294973165E-17,0.0512));
#1460=CARTESIAN_POINT('',(0.00055,0.0195,0.018208195983303));
#1461=CARTESIAN_POINT('',(0.00055,0.0195,0.018208195983303));
#1462=CARTESIAN_POINT('',(0.0117,0.0195,0.018208195983303));
#1463=CARTESIAN_POINT('',(0.00055,0.0265,0.018208195983303));
#1464=CARTESIAN_POINT('',(0.0117,0.0265,0.018208195983303));
#1465=CARTESIAN_POINT('',(0.00055,-4.04303168351E-18,0.018208195983303));
#1466=CARTESIAN_POINT('',(0.00055,0.004,0.018208195983303));
#1467=CARTESIAN_POINT('',(0.0157,0.004,0.018208195983303));
#1468=CARTESIAN_POINT('',(0.00055,0.0265,0.018208195983303));
#1469=CARTESIAN_POINT('',(0.0157,0.0265,0.018208195983303));
#1470=CARTESIAN_POINT('',(0.00055,0.018,0.064199999234632));
#1471=CARTESIAN_POINT('',(0.00055,-0.007,0.064199999234632));
#1472=CARTESIAN_POINT('',(0.00055,-0.007,0.057949999234632));
#1473=CARTESIAN_POINT('',(0.00055,-0.0055,0.064199999234632));
#1474=CARTESIAN_POINT('',(0.00055,-0.0055,0.070449999234632));
#1475=CARTESIAN_POINT('',(0.00047821888412,0.0195,0.042250947690864));
#1476=CARTESIAN_POINT('',(0.00055,0.0195,0.018208195983303));
#1477=CARTESIAN_POINT('',(0.0097,0.0195,0.018208195983303));
#1478=CARTESIAN_POINT('',(0.00055,-4.04303168351E-18,0.018208195983303));
#1479=CARTESIAN_POINT('',(0.00055,-4.04303168351E-18,0.018208195983303));
#1480=CARTESIAN_POINT('',(0.0097,-4.04303168351E-18,0.018208195983303));
#1481=CARTESIAN_POINT('',(0.000532022784451,-1.376294973165E-17,0.06198281528296));
#1482=CARTESIAN_POINT('',(0.00055,-4.04303168351E-18,0.018208195983303));
#1483=CARTESIAN_POINT('',(0.0117,-4.04303168351E-18,0.018208195983303));
#1484=CARTESIAN_POINT('',(0.00055,0.0195,0.018208195983303));
#1485=CARTESIAN_POINT('',(0.00055,-0.007,0.018208195983303));
#1486=CARTESIAN_POINT('',(0.0117,-0.007,0.018208195983303));
#1487=CARTESIAN_POINT('',(0.000532022784451,-0.007,0.06198281528296));
#1488=CARTESIAN_POINT('',(0.00055,-0.007,0.103620219234632));
#1489=CARTESIAN_POINT('',(0.00055,-0.007,0.092470219234632));
#1490=CARTESIAN_POINT('',(0.018050003049814,-0.007,0.0562));
#1491=CARTESIAN_POINT('',(0.018050003049814,-0.007,0.0542));
#1492=CARTESIAN_POINT('',(-0.016949996950186,-0.007,0.0562000000000007));
#1493=CARTESIAN_POINT('',(-0.016949996950186,-0.007,0.0542000000000007));
#1494=CARTESIAN_POINT('',(0.020700709234632,-0.007,0.077907726000001));
#1495=CARTESIAN_POINT('',(0.00055,-0.007,0.10035));
#1496=CARTESIAN_POINT('',(-0.01960070923463,-0.007,0.077907726000001));
#1497=CARTESIAN_POINT('',(0.00055,0.004,0.018208195983303));
#1498=CARTESIAN_POINT('',(0.00055,-2.228217610423E-17,0.10035));
#1499=CARTESIAN_POINT('',(0.00055,0.018,0.103620219234632));
#1500=CARTESIAN_POINT('',(0.00055,0.0055,0.103620219234632));
#1501=CARTESIAN_POINT('',(0.00055,0.0055,0.114770219234632));
#1502=CARTESIAN_POINT('',(0.00055,-0.0055,0.0592790979916515));
#1503=CARTESIAN_POINT('',(0.00055,-0.0055,0.064199999234632));
#1504=CARTESIAN_POINT('',(0.00055,-0.0055,0.075349999234632));
#1505=CARTESIAN_POINT('',(0.00055,-0.0055,0.064199999234632));
#1506=CARTESIAN_POINT('',(0.000477964426877,0.0265,0.042336176963653));
#1507=CARTESIAN_POINT('',(-0.016949996950186,0.018,0.0562000000000007));
#1508=CARTESIAN_POINT('',(-0.016949996950186,0.0147,0.0562000000000007));
#1509=CARTESIAN_POINT('',(-0.016949996950186,0.0147,0.0542000000000007));
#1510=CARTESIAN_POINT('',(0.018050003049814,0.018,0.0562));
#1511=CARTESIAN_POINT('',(0.018050003049814,0.0147,0.0562));
#1512=CARTESIAN_POINT('',(0.018050003049814,0.0147,0.0542));
#1513=CARTESIAN_POINT('',(0.00055,0.0055,0.103620219234632));
#1514=CARTESIAN_POINT('',(0.00055,0.0055,0.103620219234632));
#1515=CARTESIAN_POINT('',(0.00055,0.0055,0.118770219234632));
#1516=CARTESIAN_POINT('',(0.00055,0.0055,0.0592790979916515));
#1517=CARTESIAN_POINT('',(0.020700709234632,1.729899024028E-17,0.077907726000001));
#1518=CARTESIAN_POINT('',(0.0229474540370532,0.0147,0.0512));
#1519=CARTESIAN_POINT('',(0.0229474540370532,0.0147,0.0512));
#1520=CARTESIAN_POINT('',(0.0225268370211341,0.0147,0.0562));
#1521=CARTESIAN_POINT('',(0.022106220005215,0.0147,0.0612));
#1522=CARTESIAN_POINT('',(0.022106220005215,0.0147,0.0612));
#1523=CARTESIAN_POINT('',(-0.01960070923463,1.729899024028E-17,0.077907726000001));
#1524=CARTESIAN_POINT('',(-0.021006220005213,0.0147,0.0612));
#1525=CARTESIAN_POINT('',(-0.021006220005213,0.0147,0.0612));
#1526=CARTESIAN_POINT('',(-0.0214268370211321,0.0147,0.0562));
#1527=CARTESIAN_POINT('',(-0.0218474540370512,0.0147,0.0512));
#1528=CARTESIAN_POINT('',(-0.0218474540370512,0.0147,0.0512));
#1529=CARTESIAN_POINT('',(-0.0174781084776995,0.0147,0.0612));
#1530=CARTESIAN_POINT('',(-0.0139499969501861,0.0147,0.0612));
#1531=CARTESIAN_POINT('',(-0.0139499969501861,0.0147,0.0612));
#1532=CARTESIAN_POINT('',(-0.0174781084776995,0.0147,0.0612));
#1533=CARTESIAN_POINT('',(-0.0178987254936187,0.0147,0.0512));
#1534=CARTESIAN_POINT('',(-0.0139499969501861,0.0147,0.0512));
#1535=CARTESIAN_POINT('',(-0.0139499969501861,0.0147,0.0512));
#1536=CARTESIAN_POINT('',(-0.0178987254936187,0.0147,0.0512));
#1537=CARTESIAN_POINT('',(-0.0139499969501861,0.0147,0.0562));
#1538=CARTESIAN_POINT('',(-0.0139499969501861,0.0147,0.0562));
#1539=CARTESIAN_POINT('',(0.00337481684982777,0.0147,0.0592790979916515));
#1540=CARTESIAN_POINT('',(0.0185781115275145,0.0147,0.0612));
#1541=CARTESIAN_POINT('',(0.0185781115275145,0.0147,0.0612));
#1542=CARTESIAN_POINT('',(0.0150500030498139,0.0147,0.0612));
#1543=CARTESIAN_POINT('',(0.0150500030498139,0.0147,0.0612));
#1544=CARTESIAN_POINT('',(0.0189987285434336,0.0147,0.0512));
#1545=CARTESIAN_POINT('',(0.0150500030498139,0.0147,0.0512));
#1546=CARTESIAN_POINT('',(0.0150500030498139,0.0147,0.0512));
#1547=CARTESIAN_POINT('',(0.0189987285434336,0.0147,0.0512));
#1548=CARTESIAN_POINT('',(0.0150500030498139,0.0147,0.0562));
#1549=CARTESIAN_POINT('',(0.0150500030498139,0.0147,0.0562));
#1550=CARTESIAN_POINT('',(0.00337481684982777,0.0147,0.0592790979916515));
#1551=CARTESIAN_POINT('',(0.0784861538529381,0.0358449939787388,-0.0289051825777278));
#1552=MECHANICAL_DESIGN_GEOMETRIC_PRESENTATION_REPRESENTATION('',(#832,
#833),#1553);
#1553=(
GEOMETRIC_REPRESENTATION_CONTEXT(3)
GLOBAL_UNCERTAINTY_ASSIGNED_CONTEXT((#1556))
GLOBAL_UNIT_ASSIGNED_CONTEXT((#1561,#1560,#1559))
REPRESENTATION_CONTEXT('Full Main Body','TOP_LEVEL_ASSEMBLY_PART')
);
#1554=(
GEOMETRIC_REPRESENTATION_CONTEXT(3)
GLOBAL_UNCERTAINTY_ASSIGNED_CONTEXT((#1557))
GLOBAL_UNIT_ASSIGNED_CONTEXT((#1561,#1560,#1559))
REPRESENTATION_CONTEXT('Part 1','COMPONENT_PART')
);
#1555=(
GEOMETRIC_REPRESENTATION_CONTEXT(3)
GLOBAL_UNCERTAINTY_ASSIGNED_CONTEXT((#1558))
GLOBAL_UNIT_ASSIGNED_CONTEXT((#1561,#1560,#1559))
REPRESENTATION_CONTEXT('V2','COMPONENT_PART')
);
#1556=UNCERTAINTY_MEASURE_WITH_UNIT(LENGTH_MEASURE(1.E-8),#1561,
'DISTANCE_ACCURACY_VALUE','Maximum Tolerance applied to model');
#1557=UNCERTAINTY_MEASURE_WITH_UNIT(LENGTH_MEASURE(2.E-5),#1561,
'DISTANCE_ACCURACY_VALUE','Maximum Tolerance applied to model');
#1558=UNCERTAINTY_MEASURE_WITH_UNIT(LENGTH_MEASURE(1.E-8),#1561,
'DISTANCE_ACCURACY_VALUE','Maximum Tolerance applied to model');
#1559=(
NAMED_UNIT(*)
SI_UNIT($,.STERADIAN.)
SOLID_ANGLE_UNIT()
);
#1560=(
NAMED_UNIT(*)
PLANE_ANGLE_UNIT()
SI_UNIT($,.RADIAN.)
);
#1561=(
LENGTH_UNIT()
NAMED_UNIT(*)
SI_UNIT($,.METRE.)
);
#1562=PRODUCT_DEFINITION_SHAPE('','',#1567);
#1563=PRODUCT_DEFINITION_SHAPE('','',#1568);
#1564=PRODUCT_DEFINITION_SHAPE(' ','NAUO PRDDFN',#13);
#1565=PRODUCT_DEFINITION_SHAPE('','',#1569);
#1566=PRODUCT_DEFINITION_SHAPE(' ','NAUO PRDDFN',#14);
#1567=PRODUCT_DEFINITION('','',#1573,#1570);
#1568=PRODUCT_DEFINITION('','',#1574,#1571);
#1569=PRODUCT_DEFINITION('','',#1575,#1572);
#1570=PRODUCT_DEFINITION_CONTEXT('',#1589,'design');
#1571=PRODUCT_DEFINITION_CONTEXT('',#1589,'design');
#1572=PRODUCT_DEFINITION_CONTEXT('',#1589,'design');
#1573=PRODUCT_DEFINITION_FORMATION_WITH_SPECIFIED_SOURCE('','',#1579,
 .NOT_KNOWN.);
#1574=PRODUCT_DEFINITION_FORMATION_WITH_SPECIFIED_SOURCE('','',#1580,
 .NOT_KNOWN.);
#1575=PRODUCT_DEFINITION_FORMATION_WITH_SPECIFIED_SOURCE('','',#1581,
 .NOT_KNOWN.);
#1576=PRODUCT_RELATED_PRODUCT_CATEGORY('','',(#1579));
#1577=PRODUCT_RELATED_PRODUCT_CATEGORY('','',(#1580));
#1578=PRODUCT_RELATED_PRODUCT_CATEGORY('','',(#1581));
#1579=PRODUCT('Full Main Body','Full Main Body','Full Main Body',(#1585));
#1580=PRODUCT('Part 1','Part 1','Part 1',(#1586));
#1581=PRODUCT('V2','V2','V2',(#1587));
#1582=PRODUCT_CATEGORY('','');
#1583=PRODUCT_CATEGORY('','');
#1584=PRODUCT_CATEGORY('','');
#1585=PRODUCT_CONTEXT('',#1589,'mechanical');
#1586=PRODUCT_CONTEXT('',#1589,'mechanical');
#1587=PRODUCT_CONTEXT('',#1589,'mechanical');
#1588=APPLICATION_PROTOCOL_DEFINITION('international standard',
'ap242_managed_model_based_3d_engineering',2020,#1589);
#1589=APPLICATION_CONTEXT('managed model based 3d engineering');
ENDSEC;
END-ISO-10303-21;
